SplineFontDB: 3.0
FontName: Tanha
FullName: Tanha
FamilyName: Tanha
Weight: Regular
Copyright: Copyright (c) 2003 by Bitstream, Inc. All Rights Reserved.\nCopyright (c) 2006 by Tavmjong Bah. All Rights Reserved.\nDejaVu changes are in public domain\nCopyright (c) 2015 by Saber Rastikerdar. All Rights Reserved.
Version: 0.1.1
ItalicAngle: 0
UnderlinePosition: -100
UnderlineWidth: 100
Ascent: 1536
Descent: 512
LayerCount: 2
Layer: 0 1 "Back"  1
Layer: 1 1 "Fore"  0
XUID: [1021 502 1027637223 6329498]
UniqueID: 4046467
FSType: 0
OS2Version: 1
OS2_WeightWidthSlopeOnly: 0
OS2_UseTypoMetrics: 1
CreationTime: 1431850356
ModificationTime: 1446919546
PfmFamily: 33
TTFWeight: 400
TTFWidth: 5
LineGap: 0
VLineGap: 0
Panose: 2 11 6 3 3 8 4 2 2 4
OS2TypoAscent: 2250
OS2TypoAOffset: 0
OS2TypoDescent: -750
OS2TypoDOffset: 0
OS2TypoLinegap: 0
OS2WinAscent: 2250
OS2WinAOffset: 0
OS2WinDescent: 750
OS2WinDOffset: 0
HheadAscent: 2250
HheadAOffset: 0
HheadDescent: -750
HheadDOffset: 0
OS2SubXSize: 1331
OS2SubYSize: 1433
OS2SubXOff: 0
OS2SubYOff: 286
OS2SupXSize: 1331
OS2SupYSize: 1433
OS2SupXOff: 0
OS2SupYOff: 983
OS2StrikeYSize: 102
OS2StrikeYPos: 530
OS2Vendor: 'PfEd'
OS2CodePages: 600001ff.dfff0000
Lookup: 1 0 0 "'case' Case-Sensitive Forms in Latin lookup 0"  {"'case' Case-Sensitive Forms in Latin lookup 0 subtable"  } ['case' ('DFLT' <'dflt' > 'latn' <'CAT ' 'ESP ' 'GAL ' 'dflt' > ) ]
Lookup: 6 1 0 "'ccmp' Glyph Composition/Decomposition lookup 2"  {"'ccmp' Glyph Composition/Decomposition lookup 2 subtable"  } ['ccmp' ('arab' <'KUR ' 'SND ' 'URD ' 'dflt' > 'hebr' <'dflt' > 'nko ' <'dflt' > ) ]
Lookup: 6 0 0 "'ccmp' Glyph Composition/Decomposition lookup 3"  {"'ccmp' Glyph Composition/Decomposition lookup 3 subtable"  } ['ccmp' ('cyrl' <'MKD ' 'SRB ' 'dflt' > 'grek' <'dflt' > 'latn' <'ISM ' 'KSM ' 'LSM ' 'MOL ' 'NSM ' 'ROM ' 'SKS ' 'SSM ' 'dflt' > ) ]

StartChar: exclam
Encoding: 33 33 1
Width: 821
GlyphClass: 2
Flags: W
LayerCount: 2
Fore
SplineSet
319 244 m 1,0,-1
 502 244 l 1,1,-1
 502 10 l 1,2,-1
 319 10 l 1,3,-1
 319 244 l 1,0,-1
319 1483 m 1,4,-1
 502 1483 l 1,5,-1
 502 838.28 l 1,6,-1
 482.545 491 l 1,7,-1
 339.429 491 l 1,8,-1
 319 838.294 l 1,9,-1
 319 1483 l 1,4,-1
EndSplineSet
EndChar

StartChar: quotedbl
Encoding: 34 34 2
Width: 942
GlyphClass: 2
Flags: W
LayerCount: 2
Fore
SplineSet
357 1483 m 1,0,-1
 357 948 l 1,1,-1
 207 948 l 1,2,-1
 207 1483 l 1,3,-1
 357 1483 l 1,0,-1
735 1483 m 1,4,-1
 735 948 l 1,5,-1
 585 948 l 1,6,-1
 585 1483 l 1,7,-1
 735 1483 l 1,4,-1
EndSplineSet
EndChar

StartChar: numbersign
Encoding: 35 35 3
Width: 1716
GlyphClass: 2
Flags: W
LayerCount: 2
Fore
SplineSet
1059.75 911 m 1,0,-1
 748.204 911 l 1,1,-1
 659.174 557 l 1,2,-1
 972.842 557 l 1,3,-1
 1059.75 911 l 1,0,-1
884.185 1460 m 1,4,-1
 780.185 1045 l 1,5,-1
 1092.78 1045 l 1,6,-1
 1197.78 1460 l 1,7,-1
 1337.21 1460 l 1,8,-1
 1234.21 1045 l 1,9,-1
 1549 1045 l 1,10,-1
 1549 911 l 1,11,-1
 1200.16 911 l 1,12,-1
 1113.25 557 l 1,13,-1
 1434 557 l 1,14,-1
 1434 424 l 1,15,-1
 1079.2 424 l 1,16,-1
 975.201 10 l 1,17,-1
 835.793 10 l 1,18,-1
 938.793 424 l 1,19,-1
 625.183 424 l 1,20,-1
 522.183 10 l 1,21,-1
 381.823 10 l 1,22,-1
 485.823 424 l 1,23,-1
 168 424 l 1,24,-1
 168 557 l 1,25,-1
 517.796 557 l 1,26,-1
 606.826 911 l 1,27,-1
 282 911 l 1,28,-1
 282 1045 l 1,29,-1
 640.84 1045 l 1,30,-1
 742.84 1460 l 1,31,-1
 884.185 1460 l 1,4,-1
EndSplineSet
EndChar

StartChar: dollar
Encoding: 36 36 4
Width: 1263
GlyphClass: 2
Flags: W
LayerCount: 2
Fore
SplineSet
660.649 11.3232 m 1,0,-1
 660.649 -291 l 1,1,-1
 584.161 -291 l 1,2,-1
 583.206 9.81152 l 1,3,-1
 573.862 9.99805 l 2,4,5
 474.435 11.9795 474.435 11.9795 373.096 34.2783 c 0,6,7
 272.311 55.874 272.311 55.874 170 98.6367 c 1,8,-1
 170 254.104 l 1,9,10
 266.097 196.252 266.097 196.252 363.53 165.951 c 0,11,12
 467.064 133.013 467.064 133.013 574.55 132 c 2,13,-1
 584.193 131.909 l 1,14,-1
 584.193 606.503 l 1,15,-1
 576.172 607.87 l 2,16,17
 365.382 643.415 365.382 643.415 267.002 727.598 c 0,18,19
 170 810.601 170 810.601 170 956 c 0,20,21
 170 1114.42 170 1114.42 275.531 1205.43 c 0,22,23
 382.005 1297.25 382.005 1297.25 575.29 1311.02 c 2,24,-1
 584.193 1311.66 l 1,25,-1
 584.193 1546 l 1,26,-1
 660.649 1546 l 1,27,-1
 660.649 1314.42 l 1,28,-1
 669.795 1314.01 l 2,29,30
 758.046 1310.04 758.046 1310.04 840.556 1294.66 c 0,31,32
 922.599 1279.98 922.599 1279.98 1002 1254.71 c 1,33,-1
 1002 1103.11 l 1,34,35
 924.829 1140.43 924.829 1140.43 844.184 1161.67 c 0,36,37
 759.596 1184.94 759.596 1184.94 670.621 1188.99 c 2,38,-1
 660.649 1189.44 l 1,39,-1
 660.649 743.424 l 1,40,-1
 668.75 742.117 l 2,41,42
 884.713 707.539 884.713 707.539 989.563 619.348 c 0,43,44
 1093 532.344 1093 532.344 1093 381 c 0,45,46
 1093 216.594 1093 216.594 982.983 122.086 c 0,47,48
 871.997 26.7441 871.997 26.7441 669.538 11.9756 c 2,49,-1
 660.649 11.3232 l 1,0,-1
573.052 760.139 m 2,50,-1
 584.193 758.18 l 1,51,-1
 584.193 1191.18 l 1,52,-1
 573.572 1189.94 l 2,53,54
 459.759 1176.6 459.759 1176.6 398.441 1121.55 c 0,55,56
 334 1065.56 334 1065.56 334 973 c 0,57,58
 334 882.374 334 882.374 394.025 831.379 c 0,59,60
 450.998 781.59 450.998 781.59 573.052 760.139 c 2,50,-1
671.903 587.841 m 2,61,-1
 660.649 589.966 l 1,62,-1
 660.649 133.572 l 1,63,-1
 671.474 135.089 l 2,64,65
 795.639 152.479 795.639 152.479 859.988 209.391 c 0,66,67
 928 267.385 928 267.385 928 362 c 0,68,69
 928 454.64 928 454.64 862.957 509.637 c 0,70,71
 801.535 563.361 801.535 563.361 671.903 587.841 c 2,61,-1
EndSplineSet
EndChar

StartChar: percent
Encoding: 37 37 5
Width: 1906
GlyphClass: 2
Flags: W
LayerCount: 2
Fore
SplineSet
1601.83 588.034 m 0,0,1
 1549.36 667 1549.36 667 1460.46 667 c 0,2,3
 1369.65 667 1369.65 667 1318.05 588.56 c 0,4,5
 1267.7 512.042 1267.7 512.042 1267.7 377 c 0,6,7
 1267.7 243.974 1267.7 243.974 1318.03 166.966 c 0,8,9
 1369.63 88 1369.63 88 1460.46 88 c 0,10,11
 1549.36 88 1549.36 88 1601.83 166.966 c 0,12,13
 1653 243.974 1653 243.974 1653 377 c 0,14,15
 1653 511.029 1653 511.029 1601.83 588.034 c 0,0,1
1219.62 668.007 m 0,16,17
 1308.63 774 1308.63 774 1460.46 774 c 128,-1,18
 1612.36 774 1612.36 774 1702.36 667.544 c 0,19,20
 1793 560.336 1793 560.336 1793 377 c 128,-1,21
 1793 193.68 1793 193.68 1701.9 86.9932 c 0,22,23
 1611.38 -19 1611.38 -19 1460.46 -19 c 0,24,25
 1307.66 -19 1307.66 -19 1219.14 86.9736 c 0,26,27
 1130.02 193.675 1130.02 193.675 1130.02 377 c 0,28,29
 1130.02 561.317 1130.02 561.317 1219.62 668.007 c 0,16,17
587.471 1323.55 m 0,30,31
 535.379 1403 535.379 1403 445.54 1403 c 128,-1,32
 355.64 1403 355.64 1403 303.171 1324.03 c 0,33,34
 252 1247.02 252 1247.02 252 1114 c 0,35,36
 252 978.992 252 978.992 302.662 902.479 c 0,37,38
 354.626 824 354.626 824 445.54 824 c 128,-1,39
 536.355 824 536.355 824 587.955 902.44 c 0,40,41
 638.296 978.967 638.296 978.967 638.296 1114 c 0,42,43
 638.296 1246.03 638.296 1246.03 587.471 1323.55 c 0,30,31
432.467 -19 m 1,44,-1
 1339.15 1510 l 1,45,-1
 1473.53 1510 l 1,46,-1
 566.851 -19 l 1,47,-1
 432.467 -19 l 1,44,-1
203.637 1403.54 m 0,48,49
 293.638 1510 293.638 1510 445.54 1510 c 0,50,51
 596.408 1510 596.408 1510 685.907 1403.99 c 0,52,53
 775.979 1297.29 775.979 1297.29 775.979 1114 c 0,54,55
 775.979 928.707 775.979 928.707 686.397 822.511 c 0,56,57
 597.392 717 597.392 717 445.54 717 c 0,58,59
 292.642 717 292.642 717 203.139 822.953 c 0,60,61
 113 929.66 113 929.66 113 1114 c 0,62,63
 113 1296.34 113 1296.34 203.637 1403.54 c 0,48,49
EndSplineSet
EndChar

StartChar: ampersand
Encoding: 38 38 6
Width: 1597
GlyphClass: 2
Flags: W
LayerCount: 2
Fore
SplineSet
491.351 810.47 m 2,0,1
 399.002 728.27 399.002 728.27 355.657 646.169 c 0,2,3
 312 563.478 312 563.478 312 473 c 0,4,5
 312 322.596 312 322.596 421.249 222.623 c 0,6,7
 530.115 123 530.115 123 694 123 c 0,8,9
 790.834 123 790.834 123 875.548 155.151 c 128,-1,10
 960.235 187.291 960.235 187.291 1034.59 252.481 c 2,11,-1
 1042.53 259.435 l 1,12,-1
 498.485 816.82 l 1,13,-1
 491.351 810.47 l 2,0,1
631.827 908.033 m 2,14,-1
 1148.5 379.159 l 1,15,-1
 1155.33 389.475 l 2,16,17
 1215.09 479.623 1215.09 479.623 1248.51 582.408 c 0,18,19
 1280.4 680.482 1280.4 680.482 1287.44 791 c 1,20,-1
 1452.98 791 l 1,21,22
 1439.89 665.704 1439.89 665.704 1390.73 543.739 c 0,23,24
 1339.19 415.892 1339.19 415.892 1246.95 290.939 c 2,25,-1
 1241.9 284.089 l 1,26,-1
 1510.22 10 l 1,27,-1
 1286.22 10 l 1,28,-1
 1139.63 160.698 l 1,29,-1
 1132.5 154.598 l 2,30,31
 1029.82 66.728 1029.82 66.728 917.435 23.8429 c 128,-1,32
 805.16 -19 805.16 -19 676 -19 c 0,33,34
 438.833 -19 438.833 -19 288.684 115.938 c 0,35,36
 139 250.458 139 250.458 139 461 c 0,37,38
 139 586.246 139 586.246 204.592 696.383 c 0,39,40
 270.556 807.145 270.556 807.145 402.942 904.957 c 2,41,-1
 411.105 910.988 l 1,42,-1
 404.954 919.06 l 2,43,44
 357.783 980.971 357.783 980.971 333.285 1042.21 c 0,45,46
 309 1102.92 309 1102.92 309 1161 c 0,47,48
 309 1318.51 309 1318.51 416.637 1414.02 c 0,49,50
 524.802 1510 524.802 1510 705 1510 c 0,51,52
 786.911 1510 786.911 1510 868.368 1492.23 c 0,53,54
 946.702 1475.14 946.702 1475.14 1028 1441.35 c 1,55,-1
 1028 1282.64 l 1,56,57
 947.888 1324.43 947.888 1324.43 874.962 1347.05 c 0,58,59
 794.529 1372 794.529 1372 725 1372 c 0,60,61
 616.331 1372 616.331 1372 548.035 1314.13 c 0,62,63
 479 1255.63 479 1255.63 479 1163 c 0,64,65
 479 1109.34 479 1109.34 509.823 1055.53 c 0,66,67
 539.945 1002.95 539.945 1002.95 631.827 908.033 c 2,14,-1
EndSplineSet
EndChar

StartChar: quotesingle
Encoding: 39 39 7
Width: 563
GlyphClass: 2
Flags: W
LayerCount: 2
Fore
SplineSet
357 1483 m 1,0,-1
 357 948 l 1,1,-1
 207 948 l 1,2,-1
 207 1483 l 1,3,-1
 357 1483 l 1,0,-1
EndSplineSet
EndChar

StartChar: parenleft
Encoding: 40 40 8
Width: 799
GlyphClass: 2
Flags: W
GlyphCompositionVertical: 3  uni239D%0,0,44,2703 uni239C%1,44,44,2731 uni239B%0,44,0,2740
LayerCount: 2
Fore
SplineSet
617.671 1544 m 1,0,1
 489.523 1320.31 489.523 1320.31 426.393 1101.78 c 0,2,3
 361 875.41 361 875.41 361 643 c 128,-1,4
 361 410.581 361 410.581 426.894 182.722 c 0,5,6
 490.501 -37.2327 490.501 -37.2327 617.699 -260 c 1,7,-1
 480.487 -260 l 1,8,9
 333.251 -28.07 333.251 -28.07 260.001 195.118 c 0,10,11
 186 420.599 186 420.599 186 643 c 0,12,13
 186 864.42 186 864.42 259.504 1088.89 c 0,14,15
 332.269 1311.1 332.269 1311.1 480.48 1544 c 1,16,-1
 617.671 1544 l 1,0,1
EndSplineSet
EndChar

StartChar: parenright
Encoding: 41 41 9
Width: 799
GlyphClass: 2
Flags: W
GlyphCompositionVertical: 3  uni23A0%0,0,44,2703 uni239F%1,44,44,2731 uni239E%0,44,0,2740
LayerCount: 2
Fore
SplineSet
181.266 1544 m 1,0,-1
 318.5 1544 l 1,1,2
 465.754 1311.08 465.754 1311.08 539.003 1088.87 c 0,3,4
 613 864.382 613 864.382 613 643 c 0,5,6
 613 420.599 613 420.599 538.999 195.118 c 0,7,8
 465.749 -28.0702 465.749 -28.0702 318.513 -260 c 1,9,-1
 181.301 -260 l 1,10,11
 308.503 -37.2191 308.503 -37.2191 372.106 182.722 c 0,12,13
 438 410.581 438 410.581 438 643 c 128,-1,14
 438 875.442 438 875.442 372.101 1101.8 c 0,15,16
 308.495 1320.28 308.495 1320.28 181.266 1544 c 1,0,-1
EndSplineSet
EndChar

StartChar: asterisk
Encoding: 42 42 10
Width: 1024
GlyphClass: 2
Flags: W
LayerCount: 2
Fore
SplineSet
949.139 1250.88 m 1,0,-1
 583.008 1053.02 l 1,1,-1
 949.11 854.165 l 1,2,-1
 901.534 773.777 l 1,3,-1
 559 980.725 l 1,4,-1
 559 596 l 1,5,-1
 465 596 l 1,6,-1
 465 980.725 l 1,7,-1
 122.466 773.777 l 1,8,-1
 74.89 854.165 l 1,9,-1
 440.992 1053.02 l 1,10,-1
 74.8608 1250.88 l 1,11,-1
 122.504 1332.2 l 1,12,-1
 449.829 1134.44 l 2,13,14
 457.415 1129.86 457.415 1129.86 465 1125.27 c 1,15,-1
 465 1510 l 1,16,-1
 559 1510 l 1,17,-1
 559 1125.27 l 1,18,19
 566.585 1129.86 566.585 1129.86 574.171 1134.44 c 2,20,-1
 901.495 1332.2 l 1,21,-1
 949.139 1250.88 l 1,0,-1
EndSplineSet
EndChar

StartChar: plus
Encoding: 43 43 11
Width: 1716
GlyphClass: 2
Flags: W
LayerCount: 2
Fore
SplineSet
932 1274 m 1,0,-1
 932 717 l 1,1,-1
 1489 717 l 1,2,-1
 1489 567 l 1,3,-1
 932 567 l 1,4,-1
 932 10 l 1,5,-1
 784 10 l 1,6,-1
 784 567 l 1,7,-1
 227 567 l 1,8,-1
 227 717 l 1,9,-1
 784 717 l 1,10,-1
 784 1274 l 1,11,-1
 932 1274 l 1,0,-1
EndSplineSet
EndChar

StartChar: comma
Encoding: 44 44 12
Width: 651
GlyphClass: 2
Flags: W
LayerCount: 2
Fore
SplineSet
250 244 m 1,0,-1
 441 244 l 1,1,-1
 441 84.4133 l 1,2,-1
 280.888 -228 l 1,3,-1
 170.886 -228 l 1,4,-1
 250 80.7391 l 1,5,-1
 250 244 l 1,0,-1
EndSplineSet
EndChar

StartChar: hyphen
Encoding: 45 45 13
Width: 739
GlyphClass: 2
Flags: W
LayerCount: 2
Fore
SplineSet
110 633 m 1,0,-1
 629 633 l 1,1,-1
 629 489 l 1,2,-1
 110 489 l 1,3,-1
 110 633 l 1,0,-1
EndSplineSet
EndChar

StartChar: period
Encoding: 46 46 14
Width: 651
GlyphClass: 2
Flags: W
LayerCount: 2
Fore
SplineSet
229 244 m 1,0,-1
 420 244 l 1,1,-1
 420 10 l 1,2,-1
 229 10 l 1,3,-1
 229 244 l 1,0,-1
EndSplineSet
EndChar

StartChar: slash
Encoding: 47 47 15
Width: 690
GlyphClass: 2
Flags: W
LayerCount: 2
Fore
SplineSet
527.377 1483 m 1,0,-1
 676.444 1483 l 1,1,-1
 162.623 -180 l 1,2,-1
 13.5562 -180 l 1,3,-1
 527.377 1483 l 1,0,-1
EndSplineSet
EndChar

StartChar: colon
Encoding: 58 58 16
Width: 690
GlyphClass: 2
Flags: W
LayerCount: 2
Fore
SplineSet
250 244 m 1,0,-1
 441 244 l 1,1,-1
 441 10 l 1,2,-1
 250 10 l 1,3,-1
 250 244 l 1,0,-1
250 1049 m 1,4,-1
 441 1049 l 1,5,-1
 441 815 l 1,6,-1
 250 815 l 1,7,-1
 250 1049 l 1,4,-1
EndSplineSet
EndChar

StartChar: semicolon
Encoding: 59 59 17
Width: 690
GlyphClass: 2
Flags: W
LayerCount: 2
Fore
SplineSet
250 1049 m 1,0,-1
 441 1049 l 1,1,-1
 441 815 l 1,2,-1
 250 815 l 1,3,-1
 250 1049 l 1,0,-1
250 244 m 1,4,-1
 441 244 l 1,5,-1
 441 84.4133 l 1,6,-1
 280.888 -228 l 1,7,-1
 170.886 -228 l 1,8,-1
 250 80.7391 l 1,9,-1
 250 244 l 1,4,-1
EndSplineSet
EndChar

StartChar: less
Encoding: 60 60 18
Width: 1716
GlyphClass: 2
Flags: W
LayerCount: 2
Fore
SplineSet
1489 1015.06 m 1,0,-1
 437.082 640.974 l 1,1,-1
 1489 268.93 l 1,2,-1
 1489 108.265 l 1,3,-1
 227 566.01 l 1,4,-1
 227 717.99 l 1,5,-1
 1489 1175.74 l 1,6,-1
 1489 1015.06 l 1,0,-1
EndSplineSet
EndChar

StartChar: equal
Encoding: 61 61 19
Width: 1716
GlyphClass: 2
Flags: W
GlyphCompositionHorizontal: 2  equal%0,0,44,1433 equal%1,44,0,1433
LayerCount: 2
Fore
SplineSet
227 920 m 1,0,-1
 1489 920 l 1,1,-1
 1489 772 l 1,2,-1
 227 772 l 1,3,-1
 227 920 l 1,0,-1
227 512 m 1,4,-1
 1489 512 l 1,5,-1
 1489 362 l 1,6,-1
 227 362 l 1,7,-1
 227 512 l 1,4,-1
EndSplineSet
EndChar

StartChar: greater
Encoding: 62 62 20
Width: 1716
GlyphClass: 2
Flags: W
LayerCount: 2
Fore
SplineSet
227 1015.05 m 1,0,-1
 227 1175.74 l 1,1,-1
 1489 717.99 l 1,2,-1
 1489 566.01 l 1,3,-1
 227 108.265 l 1,4,-1
 227 268.934 l 1,5,-1
 1276.87 640.974 l 1,6,-1
 227 1015.05 l 1,0,-1
EndSplineSet
EndChar

StartChar: question
Encoding: 63 63 21
Width: 1087
GlyphClass: 2
Flags: W
LayerCount: 2
Fore
SplineSet
401 244 m 1,0,-1
 584 244 l 1,1,-1
 584 10 l 1,2,-1
 401 10 l 1,3,-1
 401 244 l 1,0,-1
578 411 m 1,4,-1
 407 411 l 1,5,-1
 407 555 l 2,6,7
 407 653.94 407 653.94 434.184 717.044 c 128,-1,8
 461.378 780.171 461.378 780.171 549.97 864.829 c 1,9,-1
 639.922 953.781 l 1,10,11
 698.007 1007.79 698.007 1007.79 724.29 1056.23 c 0,12,13
 751 1105.46 751 1105.46 751 1157 c 0,14,15
 751 1250.66 751 1250.66 681.931 1308.66 c 0,16,17
 613.644 1366 613.644 1366 502 1366 c 0,18,19
 421.099 1366 421.099 1366 329.858 1330.31 c 0,20,21
 246.878 1297.86 246.878 1297.86 157 1237.89 c 1,22,-1
 157 1401.35 l 1,23,24
 247.764 1455.55 247.764 1455.55 340.287 1482.4 c 0,25,26
 435.411 1510 435.411 1510 537 1510 c 0,27,28
 717.264 1510 717.264 1510 825.937 1415.46 c 0,29,30
 934 1321.44 934 1321.44 934 1167 c 0,31,32
 934 1093.47 934 1093.47 899.148 1027.15 c 0,33,34
 863.918 960.112 863.918 960.112 775.052 875.193 c 1,35,-1
 686.97 789.112 l 2,36,37
 639.392 741.534 639.392 741.534 619.446 714.427 c 0,38,39
 598.973 686.604 598.973 686.604 590.428 659.898 c 0,40,41
 584.138 637.882 584.138 637.882 581.05 606.995 c 0,42,43
 578 576.493 578 576.493 578 524 c 2,44,-1
 578 411 l 1,4,-1
EndSplineSet
EndChar

StartChar: at
Encoding: 64 64 22
Width: 2048
GlyphClass: 2
Flags: W
LayerCount: 2
Fore
SplineSet
752 537 m 0,0,1
 752 390.255 752 390.255 825.46 305.931 c 0,2,3
 899.45 221 899.45 221 1028 221 c 0,4,5
 1155.58 221 1155.58 221 1229.08 306.481 c 0,6,7
 1302 391.286 1302 391.286 1302 537 c 0,8,9
 1302 680.758 1302 680.758 1227.53 766.075 c 0,10,11
 1152.54 852 1152.54 852 1026 852 c 0,12,13
 900.454 852 900.454 852 825.963 766.572 c 0,14,15
 752 681.75 752 681.75 752 537 c 0,0,1
1299.11 244.146 m 0,16,17
 1240.58 169.032 1240.58 169.032 1165.24 133.547 c 128,-1,18
 1089.76 98 1089.76 98 989 98 c 0,19,20
 821.58 98 821.58 98 717.069 219.035 c 0,21,22
 612 340.716 612 340.716 612 537 c 128,-1,23
 612 733.268 612 733.268 717.567 855.462 c 0,24,25
 822.567 977 822.567 977 989 977 c 0,26,27
 1089.72 977 1089.72 977 1165.67 940.487 c 128,-1,28
 1241.54 904.012 1241.54 904.012 1299.1 829.868 c 2,29,-1
 1317 806.811 l 1,30,-1
 1317 957 l 1,31,-1
 1440 957 l 1,32,-1
 1440 219.38 l 1,33,-1
 1451.49 221.112 l 2,34,35
 1601.57 243.725 1601.57 243.725 1686.54 358.552 c 0,36,37
 1771 472.691 1771 472.691 1771 653 c 0,38,39
 1771 761.633 1771 761.633 1738.98 857.177 c 128,-1,40
 1706.91 952.873 1706.91 952.873 1641.83 1034.22 c 0,41,42
 1536.33 1167.1 1536.33 1167.1 1384.72 1237.57 c 128,-1,43
 1233.18 1308 1233.18 1308 1055 1308 c 0,44,45
 930.609 1308 930.609 1308 816.236 1275.11 c 128,-1,46
 701.758 1242.19 701.758 1242.19 604.497 1177.35 c 1,47,48
 445.395 1073.98 445.395 1073.98 355.682 906.216 c 128,-1,49
 266 738.506 266 738.506 266 543 c 0,50,51
 266 382.01 266 382.01 324.259 241.177 c 128,-1,52
 382.549 100.272 382.549 100.272 492.963 -7.10481 c 1,53,54
 599.42 -112.548 599.42 -112.548 739.327 -167.801 c 128,-1,55
 879.098 -223 879.098 -223 1038 -223 c 0,56,57
 1168.69 -223 1168.69 -223 1294.8 -178.94 c 0,58,59
 1416.05 -136.578 1416.05 -136.578 1518.37 -58.8701 c 1,60,-1
 1595.77 -154.322 l 1,61,62
 1475.04 -245.882 1475.04 -245.882 1334.2 -295.059 c 0,63,64
 1188.31 -346 1188.31 -346 1038 -346 c 0,65,66
 854.916 -346 854.916 -346 692.709 -281.213 c 128,-1,67
 530.56 -216.45 530.56 -216.45 403.987 -92.8456 c 128,-1,68
 277.479 30.6941 277.479 30.6941 211.261 193.272 c 128,-1,69
 145 355.957 145 355.957 145 543 c 0,70,71
 145 723.019 145 723.019 212.246 886.19 c 128,-1,72
 279.494 1049.37 279.494 1049.37 404.016 1172.87 c 0,73,74
 531.57 1298.45 531.57 1298.45 698.709 1365.21 c 128,-1,75
 865.895 1432 865.895 1432 1053 1432 c 0,76,77
 1262.73 1432 1262.73 1432 1442.18 1345.98 c 128,-1,78
 1621.53 1260.01 1621.53 1260.01 1743.06 1101.92 c 0,79,80
 1817.06 1005.23 1817.06 1005.23 1856.04 891.752 c 128,-1,81
 1895 778.326 1895 778.326 1895 657 c 0,82,83
 1895 398.286 1895 398.286 1739.09 249.228 c 0,84,85
 1586.08 102.949 1586.08 102.949 1317 94.2664 c 1,86,-1
 1317 267.103 l 1,87,88
 1309.14 257.184 1309.14 257.184 1299.11 244.146 c 0,16,17
EndSplineSet
EndChar

StartChar: bracketleft
Encoding: 91 91 23
Width: 799
GlyphClass: 2
Flags: W
GlyphCompositionVertical: 3  uni23A3%0,0,44,2703 uni23A2%1,44,44,2731 uni23A1%0,44,0,2699
LayerCount: 2
Fore
SplineSet
186 1546 m 1,0,-1
 590 1546 l 1,1,-1
 590 1423 l 1,2,-1
 350 1423 l 1,3,-1
 350 -137 l 1,4,-1
 590 -137 l 1,5,-1
 590 -260 l 1,6,-1
 186 -260 l 1,7,-1
 186 1546 l 1,0,-1
EndSplineSet
EndChar

StartChar: backslash
Encoding: 92 92 24
Width: 690
GlyphClass: 2
Flags: W
LayerCount: 2
Fore
SplineSet
162.623 1483 m 1,0,-1
 676.444 -180 l 1,1,-1
 527.377 -180 l 1,2,-1
 13.5562 1483 l 1,3,-1
 162.623 1483 l 1,0,-1
EndSplineSet
EndChar

StartChar: bracketright
Encoding: 93 93 25
Width: 799
GlyphClass: 2
Flags: W
GlyphCompositionVertical: 3  uni23A6%0,0,44,2687 uni23A5%1,44,44,2713 uni23A4%0,44,0,2699
LayerCount: 2
Fore
SplineSet
613 1546 m 1,0,-1
 613 -260 l 1,1,-1
 209 -260 l 1,2,-1
 209 -137 l 1,3,-1
 448 -137 l 1,4,-1
 448 1423 l 1,5,-1
 209 1423 l 1,6,-1
 209 1546 l 1,7,-1
 613 1546 l 1,0,-1
EndSplineSet
EndChar

StartChar: asciicircum
Encoding: 94 94 26
Width: 1716
GlyphClass: 2
Flags: W
LayerCount: 2
Fore
SplineSet
951.783 1483 m 1,0,-1
 1475.29 946 l 1,1,-1
 1301.83 946 l 1,2,-1
 858 1344.44 l 1,3,-1
 414.17 946 l 1,4,-1
 240.714 946 l 1,5,-1
 764.217 1483 l 1,6,-1
 951.783 1483 l 1,0,-1
EndSplineSet
EndChar

StartChar: underscore
Encoding: 95 95 27
Width: 1024
GlyphClass: 2
Flags: W
GlyphCompositionHorizontal: 2  underscore%0,0,44,1188 underscore%1,44,0,1188
LayerCount: 2
Fore
SplineSet
1034 -350 m 1,0,-1
 1034 -473 l 1,1,-1
 -10 -473 l 1,2,-1
 -10 -350 l 1,3,-1
 1034 -350 l 1,0,-1
EndSplineSet
EndChar

StartChar: grave
Encoding: 96 96 28
Width: 1024
GlyphClass: 2
Flags: W
LayerCount: 2
Fore
SplineSet
362.016 1628 m 1,0,-1
 628.936 1274 l 1,1,-1
 500.549 1274 l 1,2,-1
 191.982 1628 l 1,3,-1
 362.016 1628 l 1,0,-1
EndSplineSet
EndChar

StartChar: braceleft
Encoding: 123 123 29
Width: 1303
GlyphClass: 2
Flags: W
GlyphCompositionVertical: 5  uni23A9%0,0,44,2700 uni23AA%1,44,44,2742 uni23A8%0,44,44,2727 uni23AA%1,44,44,2742 uni23A7%0,44,0,2719
LayerCount: 2
Fore
SplineSet
1037 -200 m 1,0,-1
 1037 -324 l 1,1,-1
 985 -324 l 2,2,3
 739.763 -324 739.763 -324 658.088 -252.477 c 0,4,5
 577 -181.467 577 -181.467 577 35 c 2,6,-1
 577 274 l 2,7,8
 577 428.932 577 428.932 520.319 489.814 c 0,9,10
 463.355 551 463.355 551 317 551 c 2,11,-1
 266 551 l 1,12,-1
 266 674 l 1,13,-1
 317 674 l 2,14,15
 464.352 674 464.352 674 520.821 734.688 c 0,16,17
 577 795.065 577 795.065 577 948 c 2,18,-1
 577 1188 l 2,19,20
 577 1404.45 577 1404.45 658.063 1474.95 c 0,21,22
 739.746 1546 739.746 1546 985 1546 c 2,23,-1
 1037 1546 l 1,24,-1
 1037 1423 l 1,25,-1
 979 1423 l 2,26,27
 833.788 1423 833.788 1423 787.848 1375.99 c 128,-1,28
 742 1329.07 742 1329.07 742 1184 c 2,29,-1
 742 936 l 2,30,31
 742 781.928 742 781.928 698.081 713.396 c 0,32,33
 654.788 645.842 654.788 645.842 548.784 621.751 c 2,34,-1
 507.332 612.33 l 1,35,-1
 548.636 602.283 l 2,36,37
 655.711 576.241 655.711 576.241 698.554 508.647 c 0,38,39
 742 440.099 742 440.099 742 287 c 2,40,-1
 742 39 l 2,41,42
 742 -106.073 742 -106.073 787.848 -152.989 c 128,-1,43
 833.789 -200 833.789 -200 979 -200 c 2,44,-1
 1037 -200 l 1,0,-1
EndSplineSet
EndChar

StartChar: bar
Encoding: 124 124 30
Width: 690
GlyphClass: 2
Flags: W
GlyphCompositionVertical: 2  bar%0,0,44,2287 bar%1,44,0,2287
LayerCount: 2
Fore
SplineSet
420 1555 m 1,0,-1
 420 -473 l 1,1,-1
 270 -473 l 1,2,-1
 270 1555 l 1,3,-1
 420 1555 l 1,0,-1
EndSplineSet
EndChar

StartChar: braceright
Encoding: 125 125 31
Width: 1303
GlyphClass: 2
Flags: W
GlyphCompositionVertical: 5  uni23AD%0,0,44,2700 uni23AA%1,44,44,2742 uni23AC%0,44,44,2727 uni23AA%1,44,44,2742 uni23AB%0,44,0,2719
LayerCount: 2
Fore
SplineSet
266 -200 m 1,0,-1
 326 -200 l 2,1,2
 470.177 -200 470.177 -200 515.612 -154.03 c 128,-1,3
 561 -108.107 561 -108.107 561 39 c 2,4,-1
 561 287 l 2,5,6
 561 440.099 561 440.099 604.446 508.647 c 0,7,8
 647.288 576.241 647.288 576.241 754.364 602.283 c 2,9,-1
 795.849 612.375 l 1,10,-1
 754.197 621.756 l 2,11,12
 647.231 645.847 647.231 645.847 604.446 713.353 c 0,13,14
 561 781.904 561 781.904 561 936 c 2,15,-1
 561 1184 l 2,16,17
 561 1330.07 561 1330.07 515.653 1376.49 c 128,-1,18
 470.213 1423 470.213 1423 326 1423 c 2,19,-1
 266 1423 l 1,20,-1
 266 1546 l 1,21,-1
 319 1546 l 2,22,23
 564.232 1546 564.232 1546 644.893 1474.99 c 0,24,25
 725 1404.47 725 1404.47 725 1188 c 2,26,-1
 725 948 l 2,27,28
 725 795.041 725 795.041 781.711 734.654 c 0,29,30
 838.673 674 838.673 674 985 674 c 2,31,-1
 1037 674 l 1,32,-1
 1037 551 l 1,33,-1
 985 551 l 2,34,35
 838.645 551 838.645 551 781.681 489.814 c 0,36,37
 725 428.932 725 428.932 725 274 c 2,38,-1
 725 35 l 2,39,40
 725 -181.501 725 -181.501 644.867 -252.516 c 0,41,42
 564.205 -324 564.205 -324 319 -324 c 2,43,-1
 266 -324 l 1,44,-1
 266 -200 l 1,0,-1
EndSplineSet
EndChar

StartChar: asciitilde
Encoding: 126 126 32
Width: 1716
GlyphClass: 2
Flags: W
LayerCount: 2
Fore
SplineSet
1489 796.136 m 1,0,-1
 1489 644.002 l 1,1,2
 1387.16 568.098 1387.16 568.098 1300.95 535.348 c 0,3,4
 1213.16 502 1213.16 502 1118 502 c 0,5,6
 1009.94 502 1009.94 502 865.582 560.338 c 0,7,8
 854.574 564.34 854.574 564.34 849.827 566.24 c 0,9,10
 842.688 569.29 842.688 569.29 827.714 574.285 c 0,11,12
 670.931 637 670.931 637 575 637 c 0,13,14
 484.871 637 484.871 637 396.914 597.627 c 0,15,16
 317.076 561.888 317.076 561.888 227 488.331 c 1,17,-1
 227 639.998 l 1,18,19
 328.858 715.926 328.858 715.926 415.097 749.169 c 0,20,21
 502.86 783 502.86 783 598 783 c 0,22,23
 706.028 783 706.028 783 851.286 723.715 c 1,24,-1
 866.385 717.676 l 2,25,26
 874.528 714.622 874.528 714.622 888.459 709.646 c 0,27,28
 1045.07 647 1045.07 647 1141 647 c 0,29,30
 1229.15 647 1229.15 647 1315.6 685.88 c 0,31,32
 1394.5 721.364 1394.5 721.364 1489 796.136 c 1,0,-1
EndSplineSet
EndChar

StartChar: afii57388
Encoding: 1548 1548 34
Width: 664
VWidth: 2054
GlyphClass: 2
Flags: W
LayerCount: 2
Fore
SplineSet
355.818 0 m 4,0,1
 243.533 0 243.533 0 220 110 c 4,2,3
 209.1 160.95 209.1 160.95 228.857 247 c 4,4,5
 265.432 406.292 265.432 406.292 435.857 568 c 5,6,-1
 542.392 568 l 5,7,8
 364.725 423 364.725 423 353.857 252 c 5,9,10
 506.726 254.051 506.726 254.051 497.818 99.0693 c 4,11,12
 492.191 0 492.191 0 355.818 0 c 4,0,1
EndSplineSet
EndChar

StartChar: uni0615
Encoding: 1557 1557 35
Width: 0
VWidth: 2186
GlyphClass: 4
Flags: W
AnchorPoint: "Anchor-10" 547.84 1279.5 mark 0
AnchorPoint: "Anchor-9" 547.84 1279.5 mark 0
AnchorPoint: "Anchor-1" 547.84 1975 basemark 0
AnchorPoint: "Anchor-1" 547.84 1279.5 mark 0
LayerCount: 2
Fore
SplineSet
466.096 1456.96 m 1,0,-1
 552.12 1456.96 l 2,1,2
 639.138 1456.96 639.138 1456.96 665.862 1472.75 c 0,3,4
 697.288 1492.32 697.288 1492.32 713.059 1508.3 c 128,-1,5
 728.83 1524.27 728.83 1524.27 728.83 1541.65 c 0,6,7
 728.83 1583.09 728.83 1583.09 689.03 1604.94 c 1,8,9
 681.399 1607.6 681.399 1607.6 672.751 1605.46 c 128,-1,10
 664.102 1603.31 664.102 1603.31 640.309 1592.64 c 128,-1,11
 616.515 1581.97 616.515 1581.97 601.865 1576.19 c 0,12,13
 543.049 1552.44 543.049 1552.44 483.147 1478.12 c 2,14,-1
 466.096 1456.96 l 1,0,-1
576.73 1374.89 m 2,15,-1
 282.64 1374.89 l 1,16,-1
 282.64 1456.96 l 1,17,-1
 369.31 1456.96 l 1,18,-1
 369.31 1883.89 l 1,19,-1
 452.45 1883.89 l 1,20,-1
 452.45 1497.67 l 1,21,-1
 477.109 1547.67 l 2,22,23
 513.381 1621.22 513.381 1621.22 619.878 1662.18 c 0,24,25
 682.718 1686.12 682.718 1686.12 752.956 1660.03 c 0,26,27
 814.11 1636.51 814.11 1636.51 814.11 1557.7 c 0,28,29
 814.11 1466.67 814.11 1466.67 750.648 1417.09 c 0,30,31
 696.384 1374.89 696.384 1374.89 576.73 1374.89 c 2,15,-1
EndSplineSet
EndChar

StartChar: uni061B
Encoding: 1563 1563 36
Width: 654
VWidth: 2054
GlyphClass: 2
Flags: W
LayerCount: 2
Fore
SplineSet
338.676 433.611 m 4,0,1
 226.39 433.611 226.39 433.611 202.857 543.611 c 4,2,3
 191.957 594.561 191.957 594.561 211.715 680.611 c 4,4,5
 248.289 839.903 248.289 839.903 418.715 1001.61 c 5,6,-1
 525.249 1001.61 l 5,7,8
 347.582 856.611 347.582 856.611 336.715 685.611 c 5,9,10
 489.583 687.663 489.583 687.663 480.676 532.681 c 4,11,12
 475.048 433.611 475.048 433.611 338.676 433.611 c 4,0,1
232.49 239.023 m 1,13,-1
 420.274 239.023 l 1,14,-1
 420.274 7.99023 l 1,15,-1
 232.49 7.99023 l 1,16,-1
 232.49 239.023 l 1,13,-1
EndSplineSet
EndChar

StartChar: uni061F
Encoding: 1567 1567 37
Width: 1087
GlyphClass: 2
Flags: W
LayerCount: 2
Fore
SplineSet
700 254 m 1,0,-1
 700 0 l 1,1,-1
 497 0 l 1,2,-1
 497 254 l 1,3,-1
 700 254 l 1,0,-1
503 401 m 1,4,-1
 503 524 l 2,5,6
 503 576 503 576 500 606 c 128,-1,7
 497 636 497 636 491 657 c 0,8,9
 483 682 483 682 463.5 708.5 c 128,-1,10
 444 735 444 735 397 782 c 2,11,-1
 309 868 l 1,12,13
 219 954 219 954 183 1022.5 c 128,-1,14
 147 1091 147 1091 147 1167 c 0,15,16
 147 1326 147 1326 258.5 1423 c 128,-1,17
 370 1520 370 1520 554 1520 c 0,18,19
 657 1520 657 1520 753.5 1492 c 128,-1,20
 850 1464 850 1464 944 1407 c 1,21,-1
 944 1219 l 1,22,23
 847 1286 847 1286 757.5 1321 c 128,-1,24
 668 1356 668 1356 589 1356 c 0,25,26
 481 1356 481 1356 415.5 1301 c 128,-1,27
 350 1246 350 1246 350 1157 c 0,28,29
 350 1108 350 1108 375.5 1061 c 128,-1,30
 401 1014 401 1014 458 961 c 1,31,-1
 548 872 l 1,32,33
 638 786 638 786 666 721 c 128,-1,34
 694 656 694 656 694 555 c 2,35,-1
 694 401 l 1,36,-1
 503 401 l 1,4,-1
EndSplineSet
EndChar

StartChar: uni0621
Encoding: 1569 1569 38
Width: 703
VWidth: 2181
GlyphClass: 2
Flags: W
AnchorPoint: "Anchor-7" 356 -199 basechar 0
AnchorPoint: "Anchor-10" 308.5 992.5 basechar 0
LayerCount: 2
Fore
SplineSet
91.1709 0.134766 m 1,0,-1
 91.1709 123.013 l 1,1,2
 123.768 132.107 123.768 132.107 208.768 158.414 c 0,3,4
 263.819 177.061 263.819 177.061 333.154 216.433 c 1,5,6
 94.7676 256.723 94.7676 256.723 94.7676 460.414 c 0,7,8
 94.7676 624.233 94.7676 624.233 221.178 702.127 c 128,-1,9
 347.591 780.023 347.591 780.023 543.029 736.774 c 1,10,-1
 543.029 607.535 l 1,11,12
 465.891 629.31 465.891 629.31 409.938 627.711 c 0,13,14
 363.193 626.832 363.193 626.832 316.923 603.697 c 0,15,16
 225.735 558.104 225.735 558.104 226.684 452.016 c 0,17,18
 226.684 313.818 226.684 313.818 386.768 294.414 c 0,19,20
 444.223 287.655 444.223 287.655 517.995 294.826 c 0,21,22
 548.766 297.817 548.766 297.817 612.365 330.839 c 1,23,-1
 612.365 203.272 l 1,24,25
 534.168 153.269 534.168 153.269 365.976 87.6338 c 0,26,27
 184.858 17.0654 184.858 17.0654 91.1709 0.134766 c 1,0,-1
EndSplineSet
EndChar

StartChar: uni0627
Encoding: 1575 1575 44
Width: 489
VWidth: 2181
GlyphClass: 2
Flags: W
AnchorPoint: "Anchor-10" 257.5 1353 basechar 0
AnchorPoint: "Anchor-7" 312.5 -224.5 basechar 0
LayerCount: 2
Fore
SplineSet
332 1167.9 m 1,0,1
 369.03 937.71 369.03 937.71 365 597.904 c 0,2,3
 360.301 115.663 360.301 115.663 281.94 1.5 c 1,4,-1
 164.061 1.5 l 1,5,6
 226.65 359.072 226.65 359.072 223 627.904 c 0,7,8
 219.03 925.71 219.03 925.71 196 1167.9 c 1,9,-1
 332 1167.9 l 1,0,1
EndSplineSet
Substitution2: "'fina' Terminal Forms in Arabic lookup 9 subtable" uniFE8E
EndChar

StartChar: uni062D
Encoding: 1581 1581 50
Width: 1276
VWidth: 2181
GlyphClass: 2
Flags: W
AnchorPoint: "Anchor-10" 461.5 1146 basechar 0
AnchorPoint: "Anchor-7" 538.84 -755.5 basechar 0
LayerCount: 2
Fore
SplineSet
686.592 521.391 m 4,0,1
 240.591 317.39 240.591 317.39 233.409 -34.6094 c 0,2,3
 229.187 -196.483 229.187 -196.483 377.645 -287.944 c 0,4,5
 540.313 -388.16 540.313 -388.16 803.409 -355.609 c 0,6,7
 931.09 -339.812 931.09 -339.812 1162.23 -234.23 c 1,8,-1
 1194.95 -387.492 l 1,9,10
 1029.06 -476.651 1029.06 -476.651 868.635 -500.987 c 0,11,12
 717.252 -524.18 717.252 -524.18 600.24 -513.381 c 0,13,14
 331.359 -488.566 331.359 -488.566 196.24 -335.381 c 0,15,16
 82.0503 -205.923 82.0503 -205.923 92.4092 -13.6094 c 0,17,18
 115.88 422.121 115.88 422.121 668.099 650.438 c 1,19,20
 600.232 659.045 600.232 659.045 545.232 671.045 c 0,21,22
 483.558 684.413 483.558 684.413 423.232 685.045 c 0,23,24
 311.326 686.227 311.326 686.227 195.232 538.045 c 1,25,-1
 91.2324 618.045 l 1,26,27
 174.928 740.209 174.928 740.209 252.232 793.045 c 0,28,29
 315.352 836.186 315.352 836.186 417.232 831.045 c 0,30,31
 513.854 826.17 513.854 826.17 618.232 795.045 c 0,32,33
 618.265 795.035 618.265 795.035 925.026 706.23 c 1,34,-1
 900.767 561.477 l 1,35,36
 733.996 543.396 733.996 543.396 686.592 521.391 c 4,0,1
EndSplineSet
Substitution2: "'fina' Terminal Forms in Arabic lookup 9 subtable" uniFEA2
Substitution2: "'medi' Medial Forms in Arabic lookup 11 subtable" uniFEA4
Substitution2: "'init' Initial Forms in Arabic lookup 13 subtable" uniFEA3
EndChar

StartChar: uni062F
Encoding: 1583 1583 52
Width: 968
VWidth: 2181
GlyphClass: 2
Flags: W
AnchorPoint: "Anchor-10" 346.935 1117.81 basechar 0
AnchorPoint: "Anchor-7" 396.059 -193.422 basechar 0
LayerCount: 2
Fore
SplineSet
409.019 168.504 m 0,0,1
 627.496 181.002 627.496 181.002 669.719 253.06 c 0,2,3
 733.91 362.607 733.91 362.607 645.719 503.06 c 0,4,5
 537.719 675.059 537.719 675.059 402.609 761.52 c 1,6,-1
 501.589 904.939 l 1,7,8
 810.436 663.212 810.436 663.212 829.019 370.504 c 0,9,10
 839.218 216.629 839.218 216.629 777.719 133.06 c 0,11,12
 684.539 2.87905 684.539 2.87905 406.829 -2.43262 c 0,13,14
 195.604 -6.47266 195.604 -6.47266 91.458 31.5605 c 1,15,-1
 91.458 202.814 l 1,16,17
 267.626 159.504 267.626 159.504 409.019 168.504 c 0,0,1
EndSplineSet
Substitution2: "'fina' Terminal Forms in Arabic lookup 9 subtable" uniFEAA
EndChar

StartChar: uni0631
Encoding: 1585 1585 54
Width: 712
VWidth: 2186
GlyphClass: 2
Flags: W
AnchorPoint: "Anchor-7" 391 -631.5 basechar 0
AnchorPoint: "Anchor-10" 308.81 942.01 basechar 0
LayerCount: 2
Fore
SplineSet
634.565 82.0967 m 0,0,1
 557.806 -451.111 557.806 -451.111 89.4629 -512.711 c 1,2,-1
 15.4629 -404.711 l 1,3,4
 451.206 -311.962 451.206 -311.962 494.565 118.097 c 0,5,6
 502.38 196.625 502.38 196.625 488.463 464.289 c 5,7,-1
 633.463 480.289 l 5,8,9
 647.987 176.086 647.987 176.086 634.565 82.0967 c 0,0,1
EndSplineSet
PairPos2: "'kern' Horizontal Kerning lookup 15-1" uniFB58 dx=70 dy=0 dh=70 dv=0 dx=0 dy=0 dh=0 dv=0
PairPos2: "'kern' Horizontal Kerning lookup 15-1" uniFEF3 dx=70 dy=0 dh=70 dv=0 dx=0 dy=0 dh=0 dv=0
PairPos2: "'kern' Horizontal Kerning lookup 15-1" uniFBFE dx=70 dy=0 dh=70 dv=0 dx=0 dy=0 dh=0 dv=0
PairPos2: "'kern' Horizontal Kerning lookup 15-1" uniFEDF dx=-150 dy=0 dh=-150 dv=0 dx=0 dy=0 dh=0 dv=0
PairPos2: "'kern' Horizontal Kerning lookup 15-1" uniFBAC dx=-150 dy=0 dh=-150 dv=0 dx=0 dy=0 dh=0 dv=0
PairPos2: "'kern' Horizontal Kerning lookup 15-1" uniFB90 dx=-150 dy=0 dh=-150 dv=0 dx=0 dy=0 dh=0 dv=0
PairPos2: "'kern' Horizontal Kerning lookup 15-1" uni06A9 dx=-150 dy=0 dh=-150 dv=0 dx=0 dy=0 dh=0 dv=0
PairPos2: "'kern' Horizontal Kerning lookup 15-1" uni0649 dx=-100 dy=0 dh=-100 dv=0 dx=0 dy=0 dh=0 dv=0
PairPos2: "'kern' Horizontal Kerning lookup 15-1" uni0647 dx=-150 dy=0 dh=-150 dv=0 dx=0 dy=0 dh=0 dv=0
PairPos2: "'kern' Horizontal Kerning lookup 15-1" uniFEE7 dx=-150 dy=0 dh=-150 dv=0 dx=0 dy=0 dh=0 dv=0
PairPos2: "'kern' Horizontal Kerning lookup 15-1" uniFEE3 dx=-150 dy=0 dh=-150 dv=0 dx=0 dy=0 dh=0 dv=0
PairPos2: "'kern' Horizontal Kerning lookup 15-1" uni0645 dx=-150 dy=0 dh=-150 dv=0 dx=0 dy=0 dh=0 dv=0
PairPos2: "'kern' Horizontal Kerning lookup 15-1" uni0644 dx=-70 dy=0 dh=-70 dv=0 dx=0 dy=0 dh=0 dv=0
PairPos2: "'kern' Horizontal Kerning lookup 15-1" uniFEDB dx=-150 dy=0 dh=-150 dv=0 dx=0 dy=0 dh=0 dv=0
PairPos2: "'kern' Horizontal Kerning lookup 15-1" uniFED7 dx=-150 dy=0 dh=-150 dv=0 dx=0 dy=0 dh=0 dv=0
PairPos2: "'kern' Horizontal Kerning lookup 15-1" uni0642 dx=-70 dy=0 dh=-70 dv=0 dx=0 dy=0 dh=0 dv=0
PairPos2: "'kern' Horizontal Kerning lookup 15-1" uniFED3 dx=-150 dy=0 dh=-150 dv=0 dx=0 dy=0 dh=0 dv=0
PairPos2: "'kern' Horizontal Kerning lookup 15-1" uni0641 dx=-150 dy=0 dh=-150 dv=0 dx=0 dy=0 dh=0 dv=0
PairPos2: "'kern' Horizontal Kerning lookup 15-1" uniFECF dx=-70 dy=0 dh=-70 dv=0 dx=0 dy=0 dh=0 dv=0
PairPos2: "'kern' Horizontal Kerning lookup 15-1" uniFECB dx=-70 dy=0 dh=-70 dv=0 dx=0 dy=0 dh=0 dv=0
PairPos2: "'kern' Horizontal Kerning lookup 15-1" uniFEC7 dx=-150 dy=0 dh=-150 dv=0 dx=0 dy=0 dh=0 dv=0
PairPos2: "'kern' Horizontal Kerning lookup 15-1" uni0638 dx=-150 dy=0 dh=-150 dv=0 dx=0 dy=0 dh=0 dv=0
PairPos2: "'kern' Horizontal Kerning lookup 15-1" uniFEC3 dx=-150 dy=0 dh=-150 dv=0 dx=0 dy=0 dh=0 dv=0
PairPos2: "'kern' Horizontal Kerning lookup 15-1" uni0637 dx=-150 dy=0 dh=-150 dv=0 dx=0 dy=0 dh=0 dv=0
PairPos2: "'kern' Horizontal Kerning lookup 15-1" uniFEBF dx=-150 dy=0 dh=-150 dv=0 dx=0 dy=0 dh=0 dv=0
PairPos2: "'kern' Horizontal Kerning lookup 15-1" uni0636 dx=-150 dy=0 dh=-150 dv=0 dx=0 dy=0 dh=0 dv=0
PairPos2: "'kern' Horizontal Kerning lookup 15-1" uniFEBB dx=-150 dy=0 dh=-150 dv=0 dx=0 dy=0 dh=0 dv=0
PairPos2: "'kern' Horizontal Kerning lookup 15-1" uni0635 dx=-150 dy=0 dh=-150 dv=0 dx=0 dy=0 dh=0 dv=0
PairPos2: "'kern' Horizontal Kerning lookup 15-1" uniFEB7 dx=-150 dy=0 dh=-150 dv=0 dx=0 dy=0 dh=0 dv=0
PairPos2: "'kern' Horizontal Kerning lookup 15-1" uni0634 dx=-150 dy=0 dh=-150 dv=0 dx=0 dy=0 dh=0 dv=0
PairPos2: "'kern' Horizontal Kerning lookup 15-1" uniFEB3 dx=-150 dy=0 dh=-150 dv=0 dx=0 dy=0 dh=0 dv=0
PairPos2: "'kern' Horizontal Kerning lookup 15-1" uni0633 dx=-150 dy=0 dh=-150 dv=0 dx=0 dy=0 dh=0 dv=0
PairPos2: "'kern' Horizontal Kerning lookup 15-1" uni0630 dx=-150 dy=0 dh=-150 dv=0 dx=0 dy=0 dh=0 dv=0
PairPos2: "'kern' Horizontal Kerning lookup 15-1" uni062F dx=-150 dy=0 dh=-150 dv=0 dx=0 dy=0 dh=0 dv=0
PairPos2: "'kern' Horizontal Kerning lookup 15-1" uniFEA7 dx=-70 dy=0 dh=-70 dv=0 dx=0 dy=0 dh=0 dv=0
PairPos2: "'kern' Horizontal Kerning lookup 15-1" uniFEA3 dx=-70 dy=0 dh=-70 dv=0 dx=0 dy=0 dh=0 dv=0
PairPos2: "'kern' Horizontal Kerning lookup 15-1" uniFE9F dx=-70 dy=0 dh=-70 dv=0 dx=0 dy=0 dh=0 dv=0
PairPos2: "'kern' Horizontal Kerning lookup 15-1" uniFE9B dx=-150 dy=0 dh=-150 dv=0 dx=0 dy=0 dh=0 dv=0
PairPos2: "'kern' Horizontal Kerning lookup 15-1" uni062B dx=-150 dy=0 dh=-150 dv=0 dx=0 dy=0 dh=0 dv=0
PairPos2: "'kern' Horizontal Kerning lookup 15-1" uniFE97 dx=-150 dy=0 dh=-150 dv=0 dx=0 dy=0 dh=0 dv=0
PairPos2: "'kern' Horizontal Kerning lookup 15-1" uni062A dx=-150 dy=0 dh=-150 dv=0 dx=0 dy=0 dh=0 dv=0
PairPos2: "'kern' Horizontal Kerning lookup 15-1" uni0629 dx=-70 dy=0 dh=-70 dv=0 dx=0 dy=0 dh=0 dv=0
PairPos2: "'kern' Horizontal Kerning lookup 15-1" uniFE91 dx=-70 dy=0 dh=-70 dv=0 dx=0 dy=0 dh=0 dv=0
PairPos2: "'kern' Horizontal Kerning lookup 15-1" uni0628 dx=-150 dy=0 dh=-150 dv=0 dx=0 dy=0 dh=0 dv=0
PairPos2: "'kern' Horizontal Kerning lookup 15-1" uni0627 dx=-170 dy=0 dh=-170 dv=0 dx=0 dy=0 dh=0 dv=0
PairPos2: "'kern' Horizontal Kerning lookup 15-1" uni0622 dx=-170 dy=0 dh=-170 dv=0 dx=0 dy=0 dh=0 dv=0
PairPos2: "'kern' Horizontal Kerning lookup 15-1" uniFB94 dx=-70 dy=0 dh=-70 dv=0 dx=0 dy=0 dh=0 dv=0
PairPos2: "'kern' Horizontal Kerning lookup 15-1" afii57509 dx=-70 dy=0 dh=-70 dv=0 dx=0 dy=0 dh=0 dv=0
PairPos2: "'kern' Horizontal Kerning lookup 15-1" uniFB56 dx=-70 dy=0 dh=-70 dv=0 dx=0 dy=0 dh=0 dv=0
PairPos2: "'kern' Horizontal Kerning lookup 15-1" afii57506 dx=-70 dy=0 dh=-70 dv=0 dx=0 dy=0 dh=0 dv=0
Substitution2: "'fina' Terminal Forms in Arabic lookup 9 subtable" uniFEAE
EndChar

StartChar: uni0633
Encoding: 1587 1587 56
Width: 2268
VWidth: 2186
GlyphClass: 2
Flags: W
AnchorPoint: "Anchor-7" 344.5 -664.03 basechar 0
AnchorPoint: "Anchor-10" 536.51 846.5 basechar 0
LayerCount: 2
Fore
SplineSet
1840.06 157.633 m 21,0,1
 1882.66 157.633 1882.66 157.633 1922.52 182.191 c 0,2,3
 2105.42 294.902 2105.42 294.902 1955.93 642.77 c 1,4,-1
 2073.93 702.77 l 1,5,6
 2220.53 382.628 2220.53 382.628 2101.24 150.955 c 0,7,8
 2022.99 -1 2022.99 -1 1848.24 -1 c 1,9,10
 1679.92 -15.748 1679.92 -15.748 1625.7 50.2031 c 0,11,12
 1587.02 97.4844 1587.02 97.4844 1577.2 143.162 c 1,13,14
 1532.66 1.55995 1532.66 1.55995 1385.27 0 c 24,15,16
 1263.1 -1.29297 1263.1 -1.29297 1230.64 67.0156 c 1,17,18
 1216.24 -161.836 1216.24 -161.836 1109.3 -294.862 c 0,19,20
 977.926 -458.282 977.926 -458.282 677.83 -469.999 c 0,21,22
 418.515 -480.217 418.515 -480.217 275.577 -386.987 c 0,23,24
 81.0029 -260.078 81.0029 -260.078 90.5771 -16.9873 c 0,25,26
 103.024 299.039 103.024 299.039 355.065 553.479 c 1,27,-1
 463.065 472.955 l 1,28,29
 116.598 29.1074 116.598 29.1074 311.829 -206.475 c 0,30,31
 404.477 -318.883 404.477 -318.883 683.032 -316.814 c 0,32,33
 1075.69 -313.949 1075.69 -313.949 1094.06 39.4766 c 0,34,35
 1107.68 304.615 1107.68 304.615 1078.07 411.477 c 1,36,-1
 1230.06 489.477 l 1,37,38
 1225.88 297.41 1225.88 297.41 1241.74 244.125 c 1,39,40
 1257.47 160.751 1257.47 160.751 1382.22 162.493 c 24,41,42
 1480.47 164.65 1480.47 164.65 1536.09 295.127 c 2,43,-1
 1612.11 473.447 l 1,44,-1
 1719.07 473.447 l 1,45,-1
 1692.01 317.189 l 2,46,47
 1661.29 139.798 1661.29 139.798 1840.06 157.633 c 21,0,1
EndSplineSet
Substitution2: "'fina' Terminal Forms in Arabic lookup 9 subtable" uniFEB2
Substitution2: "'medi' Medial Forms in Arabic lookup 11 subtable" uniFEB4
Substitution2: "'init' Initial Forms in Arabic lookup 13 subtable" uniFEB3
EndChar

StartChar: uni0635
Encoding: 1589 1589 58
Width: 2343
VWidth: 2181
GlyphClass: 2
Flags: W
AnchorPoint: "Anchor-10" 660.84 910.5 basechar 0
AnchorPoint: "Anchor-7" 405.84 -701.5 basechar 0
LayerCount: 2
Fore
SplineSet
1452.96 180.009 m 5,0,-1
 1631.74 180.009 l 6,1,2
 1858.98 180.009 1858.98 180.009 1968.67 223 c 4,3,4
 2082.14 267.445 2082.14 267.445 2100.84 354.341 c 5,5,6
 2108.89 417.125 2108.89 417.125 2078.91 471.913 c 132,-1,7
 2048.92 526.7 2048.92 526.7 1964.1 531.102 c 4,8,9
 1883.02 535.309 1883.02 535.309 1754.92 460.7 c 4,10,11
 1589.31 348.635 1589.31 348.635 1452.96 180.009 c 5,0,-1
1240.07 246 m 5,12,13
 1259.17 222 1259.17 222 1311.63 228.834 c 5,14,15
 1531 545.817 1531 545.817 1782.14 658.444 c 4,16,17
 1982.11 748.378 1982.11 748.378 2122.92 663.7 c 4,18,19
 2290.92 562.68 2290.92 562.68 2259.62 329 c 4,20,21
 2242.33 198.383 2242.33 198.383 2113.14 107.445 c 4,22,23
 1961.58 0 1961.58 0 1689.52 0 c 4,24,-1
 1386.92 0 l 6,25,26
 1297.03 0 1297.03 0 1249.07 62.75 c 5,27,-1
 1231.64 63.0156 l 5,28,29
 1217.53 -161.48 1217.53 -161.48 1110.3 -294.862 c 4,30,31
 978.926 -458.282 978.926 -458.282 678.83 -469.999 c 4,32,33
 419.515 -480.217 419.515 -480.217 276.577 -386.987 c 4,34,35
 82.0029 -260.078 82.0029 -260.078 91.5771 -16.9873 c 4,36,37
 105.079 300.104 105.079 300.104 356.065 553.479 c 5,38,-1
 464.065 472.955 l 5,39,40
 117.598 29.1074 117.598 29.1074 312.829 -206.475 c 4,41,42
 405.477 -318.883 405.477 -318.883 684.032 -316.814 c 4,43,44
 1076.69 -313.949 1076.69 -313.949 1095.06 39.4766 c 4,45,46
 1108.68 304.615 1108.68 304.615 1079.07 411.477 c 5,47,-1
 1231.06 489.477 l 5,48,49
 1226.88 297.41 1226.88 297.41 1240.07 246 c 5,12,13
EndSplineSet
Substitution2: "'fina' Terminal Forms in Arabic lookup 9 subtable" uniFEBA
Substitution2: "'medi' Medial Forms in Arabic lookup 11 subtable" uniFEBC
Substitution2: "'init' Initial Forms in Arabic lookup 13 subtable" uniFEBB
EndChar

StartChar: uni0637
Encoding: 1591 1591 60
Width: 1422
VWidth: 2181
GlyphClass: 2
Flags: W
AnchorPoint: "Anchor-10" 326.72 1377.47 basechar 0
AnchorPoint: "Anchor-7" 745.72 -258 basechar 0
LayerCount: 2
Fore
SplineSet
524.34 180.009 m 1,0,-1
 703.115 180.009 l 2,1,2
 930.357 180.009 930.357 180.009 1040.05 223 c 0,3,4
 1153.52 267.445 1153.52 267.445 1172.22 354.341 c 1,5,6
 1180.27 417.125 1180.27 417.125 1150.29 471.913 c 128,-1,7
 1120.3 526.7 1120.3 526.7 1035.48 531.102 c 0,8,9
 954.402 535.309 954.402 535.309 826.304 460.7 c 0,10,11
 660.69 348.635 660.69 348.635 524.34 180.009 c 1,0,-1
760.898 0 m 0,12,-1
 548.304 0 l 2,13,14
 427.436 0 427.436 0 351.304 79.7002 c 1,15,16
 313.047 0 313.047 0 169.304 0 c 2,17,-1
 90.75 0 l 1,18,-1
 90.75 168.979 l 1,19,-1
 255.28 168.98 l 1,20,21
 217.727 305.664 217.727 305.664 216.304 599.7 c 4,22,23
 214.723 925.5 214.723 925.5 245.304 1170 c 5,24,-1
 382.304 1169 l 5,25,26
 353.311 691.38 353.311 691.38 353.304 627.999 c 4,27,28
 350.76 324.999 350.76 324.999 383.01 228.834 c 1,29,30
 602.384 545.816 602.384 545.816 853.523 658.444 c 0,31,32
 1053.49 748.378 1053.49 748.378 1194.3 663.7 c 0,33,34
 1362.48 564.08 1362.48 564.08 1331 329 c 0,35,36
 1313.71 198.383 1313.71 198.383 1184.52 107.445 c 0,37,38
 1032.96 0 1032.96 0 760.898 0 c 0,12,-1
EndSplineSet
Substitution2: "'fina' Terminal Forms in Arabic lookup 9 subtable" uniFEC2
Substitution2: "'medi' Medial Forms in Arabic lookup 11 subtable" uniFEC4
Substitution2: "'init' Initial Forms in Arabic lookup 13 subtable" uniFEC3
EndChar

StartChar: uni0639
Encoding: 1593 1593 62
Width: 1259
VWidth: 2181
GlyphClass: 2
Flags: W
AnchorPoint: "Anchor-10" 520.325 1347.51 basechar 0
AnchorPoint: "Anchor-7" 441.235 -706.76 basechar 0
LayerCount: 2
Fore
SplineSet
668.364 -350.414 m 0,0,1
 929.254 -338.107 929.254 -338.107 1129.99 -236.275 c 1,2,-1
 1162.71 -389.537 l 1,3,4
 987.351 -473.35 987.351 -473.35 772.646 -497.208 c 0,5,6
 641.331 -512.109 641.331 -512.109 527.721 -501.004 c 0,7,8
 300.69 -479.745 300.69 -479.745 186.438 -341.049 c 0,9,10
 69.9902 -199.961 69.9902 -199.961 87.3379 17.6338 c 0,11,12
 106.608 263.849 106.608 263.849 427.058 475.612 c 2,13,-1
 438.993 483.499 l 1,14,15
 401.751 491.494 401.751 491.494 349.399 518.215 c 0,16,17
 205.501 593.226 205.501 593.226 203.252 763.173 c 0,18,19
 199.384 1021.2 199.384 1021.2 431.899 1088 c 0,20,21
 610.389 1139.31 610.389 1139.31 824.289 1032.46 c 1,22,-1
 786.349 903.61 l 1,23,24
 657.345 961.465 657.345 961.465 553.899 964 c 0,25,26
 351.249 968.967 351.249 968.967 341.899 784 c 0,27,28
 335.376 654.944 335.376 654.944 444.011 605.549 c 0,29,30
 550.049 558.378 550.049 558.378 625.407 567.394 c 0,31,32
 784.224 586.893 784.224 586.893 943.04 606.393 c 1,33,-1
 943.04 455.731 l 1,34,35
 668.513 427.824 668.513 427.824 510.428 337.582 c 0,36,37
 259.25 192.469 259.25 192.469 250.592 -3.82812 c 0,38,39
 243.312 -178.299 243.312 -178.299 359.404 -265.989 c 1,40,41
 484.025 -358.754 484.025 -358.754 668.364 -350.414 c 0,0,1
EndSplineSet
Substitution2: "'fina' Terminal Forms in Arabic lookup 9 subtable" uniFECA
Substitution2: "'medi' Medial Forms in Arabic lookup 11 subtable" uniFECC
Substitution2: "'init' Initial Forms in Arabic lookup 13 subtable" uniFECB
EndChar

StartChar: afii57440
Encoding: 1600 1600 64
Width: 642
VWidth: 2181
GlyphClass: 2
Flags: W
AnchorPoint: "Anchor-10" 321 1274.5 basechar 0
AnchorPoint: "Anchor-7" 321 -116.5 basechar 0
LayerCount: 2
Fore
SplineSet
-3.40039 0 m 1,0,-1
 -3.40039 168.979 l 1,1,-1
 645.4 168.979 l 1,2,-1
 645.4 0 l 1,3,-1
 -3.40039 0 l 1,0,-1
EndSplineSet
EndChar

StartChar: uni0643
Encoding: 1603 1603 67
Width: 1734
VWidth: 2181
GlyphClass: 2
Flags: W
AnchorPoint: "Anchor-10" 531 1394.5 basechar 0
AnchorPoint: "Anchor-7" 479 -223.5 basechar 0
LayerCount: 2
Fore
SplineSet
873.041 2 m 24,0,1
 520.854 -0.0240258 520.854 -0.0240258 337.839 80.8037 c 0,2,3
 108.441 183.356 108.441 183.356 94.3193 419.902 c 0,4,5
 82.3195 620.902 82.3195 620.902 220.604 798.863 c 1,6,-1
 349.319 764.902 l 1,7,8
 231.056 604.152 231.056 604.152 238.319 437.902 c 0,9,10
 247.28 231.95 247.28 231.95 561.779 183.378 c 0,11,12
 638.355 171.572 638.355 171.572 807.097 171.017 c 17,13,14
 1009.18 163.795 1009.18 163.795 1131.14 176.459 c 0,15,16
 1494.12 214.145 1494.12 214.145 1511.61 381.05 c 2,17,-1
 1517.4 436.293 l 1,18,-1
 1517.43 436.553 l 1,19,20
 1521.42 455.675 1521.42 455.675 1523.33 736.404 c 0,21,22
 1525.56 1008.91 1525.56 1008.91 1489.33 1269.71 c 1,23,-1
 1628.3 1271.96 l 1,24,25
 1651.9 1143.4 1651.9 1143.4 1662.33 701.404 c 0,26,27
 1666.26 543.238 1666.26 543.238 1638.01 356 c 0,28,29
 1604.14 132.558 1604.14 132.558 1326.15 46.2764 c 0,30,31
 1189.35 3.81784 1189.35 3.81784 873.041 2 c 24,0,1
1044.77 1181.06 m 1,32,-1
 1044.77 1129.12 l 1,33,34
 975.084 1123.99 975.084 1123.99 936.614 1109.81 c 0,35,36
 839.33 1073.34 839.33 1073.34 839.33 1025.55 c 0,37,38
 839.33 989.411 839.33 989.411 858.004 965.402 c 0,39,40
 875.196 942.479 875.196 942.479 955.292 930.699 c 0,41,42
 1004.69 923.436 1004.69 923.436 1029.62 900.664 c 0,43,44
 1054.05 878.351 1054.05 878.351 1054.05 838.298 c 0,45,46
 1054.05 742.199 1054.05 742.199 964.839 691.751 c 0,47,48
 895.97 652.804 895.97 652.804 801.689 651.929 c 0,49,50
 741.751 651.929 741.751 651.929 689.148 660.715 c 1,51,-1
 689.148 719.167 l 1,52,53
 749.907 711.158 749.907 711.158 792.059 711.158 c 0,54,55
 866.867 711.158 866.867 711.158 915.098 730.146 c 0,56,57
 999.45 762.542 999.45 762.542 999.45 816.898 c 0,58,59
 999.45 877.435 999.45 877.435 901.515 893.393 c 0,60,61
 844.717 902.048 844.717 902.048 813.966 933.498 c 128,-1,62
 783.138 965.029 783.138 965.029 784.373 1021.9 c 0,63,64
 786.251 1097.81 786.251 1097.81 856.895 1133.61 c 0,65,66
 937.2 1174.24 937.2 1174.24 1044.77 1181.06 c 1,32,-1
EndSplineSet
Substitution2: "'fina' Terminal Forms in Arabic lookup 9 subtable" uniFEDA
Substitution2: "'medi' Medial Forms in Arabic lookup 11 subtable" uniFEDC
Substitution2: "'init' Initial Forms in Arabic lookup 13 subtable" uniFEDB
EndChar

StartChar: uni0644
Encoding: 1604 1604 68
Width: 1400
VWidth: 2186
GlyphClass: 2
Flags: W
AnchorPoint: "Anchor-10" 589.1 1056 basechar 0
AnchorPoint: "Anchor-7" 426.24 -686.116 basechar 0
LayerCount: 2
Fore
SplineSet
1255.58 38.751 m 0,0,1
 1206.83 -200.29 1206.83 -200.29 1099.58 -303.249 c 0,2,3
 936.46 -459.836 936.46 -459.836 678.83 -469.999 c 0,4,5
 419.515 -480.217 419.515 -480.217 276.577 -386.987 c 0,6,7
 82.0029 -260.078 82.0029 -260.078 91.5771 -16.9873 c 0,8,9
 104.024 299.04 104.024 299.04 356.065 553.479 c 1,10,-1
 464.065 472.955 l 1,11,12
 117.598 29.1074 117.598 29.1074 312.829 -206.475 c 0,13,14
 401.943 -314.595 401.943 -314.595 684.032 -316.814 c 0,15,16
 1029.49 -319.649 1029.49 -319.649 1106.7 0 c 0,17,18
 1165.79 248.414 1165.79 248.414 1157.64 625.404 c 0,19,20
 1152.02 940.58 1152.02 940.58 1130.64 1165.4 c 1,21,-1
 1266.64 1165.4 l 1,22,23
 1302.49 935.21 1302.49 935.21 1299.64 701.404 c 0,24,25
 1292.99 229.925 1292.99 229.925 1255.58 38.751 c 0,0,1
EndSplineSet
Substitution2: "'fina' Terminal Forms in Arabic lookup 9 subtable" uniFEDE
Substitution2: "'medi' Medial Forms in Arabic lookup 11 subtable" uniFEE0
Substitution2: "'init' Initial Forms in Arabic lookup 13 subtable" uniFEDF
EndChar

StartChar: uni0645
Encoding: 1605 1605 69
Width: 1317
VWidth: 2181
GlyphClass: 2
Flags: W
AnchorPoint: "Anchor-10" 635.5 1006.31 basechar 0
AnchorPoint: "Anchor-7" 222.631 -729.952 basechar 0
LayerCount: 2
Fore
SplineSet
637.792 438.013 m 1,0,1
 811.464 684.851 811.464 684.851 998.351 659.525 c 0,2,3
 1231.57 627.264 1231.57 627.264 1226.37 291.863 c 0,4,5
 1225.15 207.631 1225.15 207.631 1186.23 127.476 c 0,6,7
 1144.11 38.373 1144.11 38.373 1020.37 19.8682 c 0,8,9
 806.395 -11.5967 806.395 -11.5967 608.425 167.622 c 1,10,11
 515.032 -6.99219 515.032 -6.99219 422.598 -99 c 0,12,13
 306.598 -214.483 306.598 -214.483 102.598 -288.803 c 1,14,-1
 53 -142.076 l 1,15,16
 216.587 -93.0137 216.587 -93.0137 336.598 34.1973 c 0,17,18
 458.598 163.517 458.598 163.517 637.792 438.013 c 1,0,1
836.605 198.203 m 0,19,20
 955.538 153.379 955.538 153.379 1011.51 179.23 c 0,21,22
 1068.78 206.709 1068.78 206.709 1079.56 277.528 c 0,23,24
 1114.17 491.269 1114.17 491.269 971.256 499.828 c 0,25,26
 891.199 504.123 891.199 504.123 827.806 439.504 c 0,27,28
 742.306 350.203 742.306 350.203 708.105 272.304 c 1,29,30
 750.475 230.666 750.475 230.666 836.605 198.203 c 0,19,20
EndSplineSet
Substitution2: "'init' Initial Forms in Arabic lookup 13 subtable" uniFEE3
Substitution2: "'medi' Medial Forms in Arabic lookup 11 subtable" uniFEE4
Substitution2: "'fina' Terminal Forms in Arabic lookup 9 subtable" uniFEE2
EndChar

StartChar: uni0647
Encoding: 1607 1607 71
Width: 925
VWidth: 2181
GlyphClass: 2
Flags: W
AnchorPoint: "Anchor-10" 423.924 1149.58 basechar 0
AnchorPoint: "Anchor-7" 332.864 -181.56 basechar 0
LayerCount: 2
Fore
SplineSet
267.952 365.033 m 0,0,1
 240.905 290.105 240.905 290.105 266.486 242.395 c 0,2,3
 293.418 192.164 293.418 192.164 369.174 161.341 c 0,4,5
 448.84 129.302 448.84 129.302 552.344 152.239 c 0,6,7
 635.869 170.021 635.869 170.021 657.279 243.817 c 0,8,9
 674.104 301.806 674.104 301.806 639.956 397.045 c 2,10,-1
 639.901 397.197 l 1,11,12
 573.231 532.073 573.231 532.073 456.305 627.509 c 1,13,14
 306.497 477.354 306.497 477.354 267.952 365.033 c 0,0,1
163.312 503.273 m 24,15,16
 235.312 620.394 235.312 620.394 340.026 725.67 c 1,17,-1
 302.419 758.007 l 1,18,-1
 404.417 867.113 l 1,19,20
 680.777 667.43 680.777 667.43 771.902 472.861 c 0,21,22
 909.782 180.977 909.782 180.977 692.809 49.458 c 0,23,24
 614.796 2.1709 614.796 2.1709 468.301 3.53027 c 0,25,26
 330.438 4.82715 330.438 4.82715 255.768 40.5059 c 0,27,28
 120.207 105.396 120.207 105.396 97.3262 226.047 c 0,29,30
 72.7031 355.883 72.7031 355.883 163.312 503.273 c 24,15,16
EndSplineSet
Substitution2: "'fina' Terminal Forms in Arabic lookup 9 subtable" uniFEEA
Substitution2: "'medi' Medial Forms in Arabic lookup 11 subtable" uniFEEC
Substitution2: "'init' Initial Forms in Arabic lookup 13 subtable" uniFEEB
EndChar

StartChar: uni0648
Encoding: 1608 1608 72
Width: 822
VWidth: 2181
GlyphClass: 2
Flags: W
AnchorPoint: "Anchor-10" 351.282 1032.17 basechar 0
AnchorPoint: "Anchor-7" 516.191 -589.443 basechar 0
LayerCount: 2
Fore
SplineSet
462.055 516.782 m 0,0,1
 314.218 512.97 314.218 512.97 270.072 312.326 c 0,2,3
 240.225 174.764 240.225 174.764 385.021 148.953 c 0,4,5
 525.645 122.953 525.645 122.953 597.188 177.749 c 1,6,7
 611.216 201.973 611.216 201.973 585.072 345.326 c 0,8,9
 552.663 519.118 552.663 519.118 462.055 516.782 c 0,0,1
702.799 -57.959 m 0,10,11
 678.499 -155.884 678.499 -155.884 625.4 -244.773 c 0,12,13
 487.642 -475.386 487.642 -475.386 189.858 -514.014 c 1,14,-1
 111.858 -405.014 l 5,15,16
 488.262 -332.268 488.262 -332.268 581.729 27 c 1,17,18
 568.275 2.21191 568.275 2.21191 424.987 -1.25098 c 0,19,20
 251.306 -4.25 251.306 -4.25 182.05 92 c 0,21,22
 122.065 177.354 122.065 177.354 135.299 289.042 c 0,23,24
 155.316 457.968 155.316 457.968 261.208 573.749 c 0,25,26
 368.209 690.742 368.209 690.742 504.072 663.326 c 0,27,28
 642.031 635.171 642.031 635.171 687.072 501.326 c 0,29,30
 730.932 371.122 730.932 371.122 736.085 235.849 c 0,31,32
 741.209 100.31 741.209 100.31 702.799 -57.959 c 0,10,11
EndSplineSet
Substitution2: "'fina' Terminal Forms in Arabic lookup 9 subtable" uniFEEE
EndChar

StartChar: uni0649
Encoding: 1609 1609 73
Width: 1263
VWidth: 2181
GlyphClass: 2
Flags: W
AnchorPoint: "Anchor-10" 358.722 932.334 basechar 0
AnchorPoint: "Anchor-7" 307.423 -611.472 basechar 0
LayerCount: 2
Fore
SplineSet
1158.64 672.032 m 1,0,-1
 1188.56 671.845 l 1,1,-1
 1188.56 493.05 l 1,2,-1
 1134.04 492.499 l 2,3,4
 1044.72 491.596 1044.72 491.596 965.479 392.891 c 0,5,6
 934.083 353.344 934.083 353.344 930.929 324.84 c 0,7,8
 927.664 295.332 927.664 295.332 956.471 276.668 c 128,-1,9
 985.278 258.003 985.278 258.003 1049.11 250.97 c 0,10,11
 1073.61 248.27 1073.61 248.27 1092.66 241.499 c 0,12,13
 1169.33 214.251 1169.33 214.251 1141.27 59.3064 c 0,14,15
 1111.63 -108.909 1111.63 -108.909 930.449 -237.637 c 0,16,17
 733.636 -377.47 733.636 -377.47 488.449 -375.637 c 0,18,19
 137.93 -373.024 137.93 -373.024 89.4492 -73.6367 c 0,20,21
 69.1963 46.7078 69.1963 46.7078 114.907 201.059 c 4,22,23
 192.386 462.679 192.386 462.679 426.52 753.316 c 2,24,-1
 429.603 757.143 l 1,25,-1
 530.449 676.363 l 1,26,27
 477.528 612.858 477.528 612.858 379.449 454.363 c 0,28,29
 186.372 142.352 186.372 142.352 231.449 -37.6367 c 0,30,31
 275.626 -217.808 275.626 -217.808 503.449 -220.637 c 0,32,33
 760.768 -223.724 760.768 -223.724 921.45 -91.6367 c 0,34,35
 1003.88 -23.6016 1003.88 -23.6016 1017.45 59.3633 c 0,36,37
 1023.64 97.2238 1023.64 97.2238 999.035 121.6 c 0,38,39
 982.682 137.799 982.682 137.799 942.667 145.081 c 0,40,41
 821.808 167.076 821.808 167.076 792.826 254.399 c 0,42,43
 763.175 340.62 763.175 340.62 800.876 421.741 c 0,44,45
 913.451 657.059 913.451 657.059 1158.64 672.032 c 1,0,-1
EndSplineSet
Substitution2: "'fina' Terminal Forms in Arabic lookup 9 subtable" uniFEF0
Substitution2: "'medi' Medial Forms in Arabic lookup 11 subtable" uniFBE9
Substitution2: "'init' Initial Forms in Arabic lookup 13 subtable" uniFBE8
EndChar

StartChar: uni064B
Encoding: 1611 1611 75
Width: 0
VWidth: 2186
GlyphClass: 4
Flags: W
AnchorPoint: "Anchor-10" 547.84 1041.5 mark 0
AnchorPoint: "Anchor-9" 547.84 1041.5 mark 0
AnchorPoint: "Anchor-1" 547.84 1576.5 basemark 0
AnchorPoint: "Anchor-1" 547.84 1041.5 mark 0
LayerCount: 2
Fore
SplineSet
269.4 977.41 m 5,0,-1
 269.4 1104.48 l 5,1,-1
 827.28 1332.79 l 5,2,-1
 827.28 1205.72 l 5,3,-1
 269.4 977.41 l 5,0,-1
269.4 1234.21 m 5,4,-1
 269.4 1361.28 l 5,5,-1
 827.28 1589.59 l 5,6,-1
 827.28 1462.52 l 5,7,-1
 269.4 1234.21 l 5,4,-1
EndSplineSet
EndChar

StartChar: uni064C
Encoding: 1612 1612 76
Width: 0
VWidth: 2186
GlyphClass: 4
Flags: W
AnchorPoint: "Anchor-10" 554.386 1155.44 mark 0
AnchorPoint: "Anchor-9" 554.386 1155.44 mark 0
AnchorPoint: "Anchor-1" 546.386 1810.94 basemark 0
AnchorPoint: "Anchor-1" 554.386 1155.44 mark 0
LayerCount: 2
Fore
SplineSet
567.219 1298.72 m 0,0,1
 608.391 1338.78 608.391 1338.78 631.845 1385.69 c 2,2,-1
 639.364 1400.73 l 1,3,-1
 622.913 1404.22 l 2,4,5
 589.558 1411.29 589.558 1411.29 566.532 1424.31 c 0,6,7
 457.736 1481.73 457.736 1481.73 457.736 1574.47 c 0,8,9
 457.736 1661.08 457.736 1661.08 526.365 1712.8 c 0,10,11
 552.86 1732.67 552.86 1732.67 615.937 1732.67 c 0,12,13
 688.759 1732.67 688.759 1732.67 727.738 1694.66 c 0,14,15
 782.696 1640.71 782.696 1640.71 782.696 1561.63 c 0,16,17
 782.696 1521.9 782.696 1521.9 770.46 1483.15 c 2,18,-1
 765.402 1467.14 l 1,19,-1
 782.175 1466.26 l 2,20,21
 802.247 1465.2 802.247 1465.2 817.806 1465.17 c 0,22,23
 831.205 1464.45 831.205 1464.45 845.826 1464.2 c 1,24,-1
 845.826 1372.44 l 1,25,26
 806.232 1372.69 806.232 1372.69 788.381 1374.48 c 2,27,-1
 723.27 1380.74 l 1,28,-1
 719.537 1371.99 l 2,29,30
 692.652 1308.91 692.652 1308.91 614.12 1227.24 c 1,31,32
 527.043 1139.14 527.043 1139.14 431.896 1139.14 c 0,33,34
 319.02 1139.14 319.02 1139.14 262.205 1295.39 c 0,35,36
 247.89 1334.51 247.89 1334.51 246.994 1442.7 c 1,37,-1
 317.299 1442.7 l 1,38,39
 318.143 1347.11 318.143 1347.11 331.307 1318.59 c 0,40,41
 372.26 1230.84 372.26 1230.84 431.896 1230.84 c 0,42,43
 497.076 1230.84 497.076 1230.84 567.219 1298.72 c 0,0,1
669.292 1482.64 m 1,44,-1
 680.316 1508.36 l 2,45,46
 690.996 1533.28 690.996 1533.28 690.996 1561.63 c 0,47,48
 690.996 1604.15 690.996 1604.15 668.07 1623.02 c 0,49,50
 646.28 1640.97 646.28 1640.97 620.217 1640.97 c 0,51,52
 591.787 1640.97 591.787 1640.97 575.875 1628.63 c 0,53,54
 551.576 1610.34 551.576 1610.34 551.576 1574.47 c 0,55,56
 551.576 1526.08 551.576 1526.08 607.898 1503.55 c 0,57,58
 629.803 1494.79 629.803 1494.79 658.123 1486.08 c 2,59,-1
 669.292 1482.64 l 1,44,-1
EndSplineSet
EndChar

StartChar: uni064D
Encoding: 1613 1613 77
Width: 0
VWidth: 2186
GlyphClass: 4
Flags: W
AnchorPoint: "Anchor-7" 531.84 75.5 mark 0
AnchorPoint: "Anchor-6" 531.84 75.5 mark 0
AnchorPoint: "Anchor-0" 547.84 -439.5 basemark 0
AnchorPoint: "Anchor-0" 531.84 75.5 mark 0
LayerCount: 2
Fore
SplineSet
270.96 -512.18 m 5,0,-1
 270.96 -385.109 l 5,1,-1
 828.84 -156.8 l 5,2,-1
 828.84 -283.87 l 5,3,-1
 270.96 -512.18 l 5,0,-1
270.96 -255.38 m 5,4,-1
 270.96 -128.31 l 5,5,-1
 828.84 100 l 5,6,-1
 828.84 -27.0703 l 5,7,-1
 270.96 -255.38 l 5,4,-1
EndSplineSet
EndChar

StartChar: uni064E
Encoding: 1614 1614 78
Width: 0
VWidth: 2186
GlyphClass: 4
Flags: W
AnchorPoint: "Anchor-10" 517.84 1279.5 mark 0
AnchorPoint: "Anchor-9" 517.84 1279.5 mark 0
AnchorPoint: "Anchor-1" 517.84 1600.5 basemark 0
AnchorPoint: "Anchor-1" 517.84 1279.5 mark 0
LayerCount: 2
Fore
SplineSet
237.4 1237.41 m 1,0,-1
 237.4 1364.48 l 1,1,-1
 795.28 1592.79 l 5,2,-1
 795.28 1465.72 l 1,3,-1
 237.4 1237.41 l 1,0,-1
EndSplineSet
EndChar

StartChar: uni064F
Encoding: 1615 1615 79
Width: 0
VWidth: 2186
GlyphClass: 4
Flags: W
AnchorPoint: "Anchor-10" 531.84 1205.5 mark 0
AnchorPoint: "Anchor-9" 531.84 1205.5 mark 0
AnchorPoint: "Anchor-1" 547.84 1825 basemark 0
AnchorPoint: "Anchor-1" 531.84 1205.5 mark 0
LayerCount: 2
Fore
SplineSet
594.529 1426.81 m 6,0,1
 586.598 1428.57 586.598 1428.57 567.734 1438.5 c 4,2,3
 459.19 1494.78 459.19 1494.78 459.19 1588.53 c 4,4,5
 459.19 1675.14 459.19 1675.14 527.819 1726.86 c 4,6,7
 554.314 1746.73 554.314 1746.73 617.39 1746.73 c 4,8,9
 690.212 1746.73 690.212 1746.73 729.192 1708.72 c 4,10,11
 784.15 1654.77 784.15 1654.77 784.15 1575.69 c 4,12,13
 784.15 1543.43 784.15 1543.43 769.757 1497.16 c 6,14,-1
 764.821 1481.3 l 5,15,-1
 781.407 1480.32 l 6,16,17
 799.81 1479.24 799.81 1479.24 819.259 1478.7 c 4,18,19
 832.229 1478.34 832.229 1478.34 847.28 1478.21 c 5,20,-1
 847.28 1386.53 l 5,21,22
 817.029 1386.85 817.029 1386.85 789.455 1388.57 c 4,23,24
 757.6 1390.7 757.6 1390.7 727.915 1393.88 c 6,25,-1
 720.312 1394.69 l 5,26,-1
 715.905 1388.44 l 6,27,28
 671.45 1325.37 671.45 1325.37 599.88 1281.81 c 4,29,30
 398.294 1157.85 398.294 1157.85 248.4 1152.36 c 5,31,-1
 248.4 1244.01 l 5,32,33
 408.671 1248.65 408.671 1248.65 554.781 1363.22 c 4,34,35
 580.142 1383.07 580.142 1383.07 601.135 1405.16 c 6,36,-1
 616.962 1421.83 l 5,37,-1
 594.529 1426.81 l 6,0,1
670.746 1496.7 m 5,38,-1
 681.77 1522.42 l 6,39,40
 692.45 1547.34 692.45 1547.34 692.45 1575.69 c 4,41,42
 692.45 1618.21 692.45 1618.21 669.524 1637.08 c 4,43,44
 647.734 1655.03 647.734 1655.03 621.67 1655.03 c 4,45,46
 593.241 1655.03 593.241 1655.03 577.329 1642.69 c 4,47,48
 553.03 1624.4 553.03 1624.4 553.03 1588.53 c 4,49,50
 553.03 1540.14 553.03 1540.14 609.352 1517.61 c 4,51,52
 631.256 1508.85 631.256 1508.85 659.577 1500.14 c 6,53,-1
 670.746 1496.7 l 5,38,-1
EndSplineSet
EndChar

StartChar: uni0650
Encoding: 1616 1616 80
Width: 0
VWidth: 2186
GlyphClass: 4
Flags: W
AnchorPoint: "Anchor-7" 467.84 -12.5 mark 0
AnchorPoint: "Anchor-6" 467.84 -12.5 mark 0
AnchorPoint: "Anchor-0" 556.84 -311.5 basemark 0
AnchorPoint: "Anchor-0" 467.84 -12.5 mark 0
LayerCount: 2
Fore
SplineSet
267.96 -356.836 m 1,0,-1
 267.96 -229.766 l 1,1,-1
 825.84 -1.45605 l 1,2,-1
 825.84 -128.526 l 1,3,-1
 267.96 -356.836 l 1,0,-1
EndSplineSet
EndChar

StartChar: uni0651
Encoding: 1617 1617 81
Width: 0
VWidth: 2186
GlyphClass: 4
Flags: W
AnchorPoint: "Anchor-10" 547.84 1316.5 mark 0
AnchorPoint: "Anchor-9" 547.84 1316.5 mark 0
AnchorPoint: "Anchor-1" 535.84 1818.5 basemark 0
AnchorPoint: "Anchor-1" 547.84 1316.5 mark 0
LayerCount: 2
Fore
SplineSet
507.838 1339.09 m 128,-1,1
 469.58 1294.39 469.58 1294.39 378.78 1294.39 c 0,2,3
 301.302 1294.39 301.302 1294.39 261.261 1355.91 c 0,4,5
 227 1408.31 227 1408.31 227 1486.07 c 0,6,7
 227 1527.41 227 1527.41 242.222 1626.56 c 1,8,-1
 320.73 1626.56 l 1,9,10
 310.14 1502.98 310.14 1502.98 310.14 1459.89 c 0,11,12
 310.14 1394.86 310.14 1394.86 398.84 1393.09 c 0,13,14
 497.128 1391.16 497.128 1391.16 506.266 1518.54 c 0,15,16
 508.184 1545.08 508.184 1545.08 508.4 1680.83 c 1,17,-1
 586.06 1680.83 l 1,18,19
 588.34 1645.85 588.34 1645.85 588.34 1597.53 c 0,20,21
 588.34 1452.09 588.34 1452.09 700.84 1452.09 c 4,22,23
 785.54 1452.09 785.54 1452.09 785.54 1599.06 c 4,24,25
 785.54 1708.64 785.54 1708.64 774.521 1770.1 c 5,26,-1
 857.705 1770.1 l 5,27,28
 868.68 1694.87 868.68 1694.87 868.68 1580.87 c 4,29,30
 868.68 1511.69 868.68 1511.69 841.188 1456.65 c 4,31,32
 796.118 1367.27 796.118 1367.27 722.84 1358.99 c 4,33,34
 657.525 1351.76 657.525 1351.76 616.258 1379.33 c 4,35,36
 556.63 1418.62 556.63 1418.62 554.84 1431.09 c 1,37,38
 546.096 1383.79 546.096 1383.79 507.838 1339.09 c 128,-1,1
EndSplineSet
EndChar

StartChar: uni0652
Encoding: 1618 1618 82
Width: 0
VWidth: 2186
GlyphClass: 4
Flags: W
AnchorPoint: "Anchor-10" 565.84 1128.5 mark 0
AnchorPoint: "Anchor-9" 565.84 1128.5 mark 0
AnchorPoint: "Anchor-1" 551.84 1702 basemark 0
AnchorPoint: "Anchor-1" 565.84 1128.5 mark 0
LayerCount: 2
Fore
SplineSet
674.569 1383.62 m 0,0,1
 674.569 1428.15 674.569 1428.15 643.439 1459.28 c 128,-1,2
 612.312 1490.41 612.312 1490.41 567.126 1490.41 c 0,3,4
 521.285 1490.41 521.285 1490.41 490.485 1459.61 c 128,-1,5
 459.685 1428.81 459.685 1428.81 459.685 1383.62 c 0,6,7
 459.685 1337.78 459.685 1337.78 490.485 1306.98 c 128,-1,8
 521.285 1276.18 521.285 1276.18 567.126 1276.18 c 0,9,10
 612.314 1276.18 612.314 1276.18 643.439 1307.31 c 128,-1,11
 674.569 1338.44 674.569 1338.44 674.569 1383.62 c 0,0,1
750.396 1383.73 m 128,-1,13
 750.396 1306.88 750.396 1306.88 697.316 1253.46 c 128,-1,14
 644.259 1200.07 644.259 1200.07 567.436 1200.07 c 128,-1,15
 490.613 1200.07 490.613 1200.07 437.557 1253.46 c 128,-1,16
 384.476 1306.88 384.476 1306.88 384.476 1383.73 c 128,-1,17
 384.476 1460.56 384.476 1460.56 437.537 1513.63 c 128,-1,18
 490.596 1566.69 490.596 1566.69 567.436 1566.69 c 128,-1,19
 644.276 1566.69 644.276 1566.69 697.335 1513.63 c 128,-1,12
 750.396 1460.56 750.396 1460.56 750.396 1383.73 c 128,-1,13
EndSplineSet
EndChar

StartChar: uni0653
Encoding: 1619 1619 83
Width: 0
VWidth: 2186
GlyphClass: 4
Flags: W
AnchorPoint: "Anchor-10" 442.84 1264.52 mark 0
AnchorPoint: "Anchor-9" 442.84 1264.52 mark 0
AnchorPoint: "Anchor-1" 442.84 1600.5 basemark 0
AnchorPoint: "Anchor-1" 442.84 1264.52 mark 0
LayerCount: 2
Fore
SplineSet
109.638 1365.05 m 5,0,1
 212.289 1479.87 212.289 1479.87 287.73 1453.49 c 4,2,3
 442.183 1397.9 442.183 1397.9 515.207 1405.97 c 4,4,5
 587.354 1413.79 587.354 1413.79 656.914 1479.92 c 5,6,-1
 704.93 1408.22 l 5,7,8
 617.699 1349.9 617.699 1349.9 559.504 1324.21 c 4,9,10
 491.236 1295.05 491.236 1295.05 293.235 1356.78 c 4,11,12
 239.766 1372.07 239.766 1372.07 165.102 1302.38 c 5,13,-1
 109.638 1365.05 l 5,0,1
EndSplineSet
EndChar

StartChar: uni0657
Encoding: 1623 1623 86
Width: 0
VWidth: 2186
GlyphClass: 4
Flags: W
AnchorPoint: "Anchor-10" 547.84 1279.5 mark 0
AnchorPoint: "Anchor-9" 547.84 1279.5 mark 0
AnchorPoint: "Anchor-1" 547.84 1975 basemark 0
AnchorPoint: "Anchor-1" 547.84 1279.5 mark 0
LayerCount: 2
Fore
SplineSet
501.148 1675.55 m 2,0,1
 509.083 1673.79 509.083 1673.79 527.945 1663.86 c 0,2,3
 636.49 1607.58 636.49 1607.58 636.49 1513.83 c 0,4,5
 636.49 1427.22 636.49 1427.22 567.86 1375.5 c 0,6,7
 541.366 1355.63 541.366 1355.63 478.29 1355.63 c 0,8,9
 405.468 1355.63 405.468 1355.63 366.487 1393.64 c 0,10,11
 311.53 1447.59 311.53 1447.59 311.53 1526.67 c 0,12,13
 311.53 1558.94 311.53 1558.94 325.923 1605.2 c 2,14,-1
 330.858 1621.06 l 1,15,-1
 314.272 1622.04 l 2,16,17
 295.871 1623.12 295.871 1623.12 276.421 1623.66 c 0,18,19
 263.452 1624.02 263.452 1624.02 248.4 1624.15 c 1,20,-1
 248.4 1715.83 l 1,21,22
 278.631 1715.51 278.631 1715.51 306.226 1713.79 c 0,23,24
 338.082 1711.66 338.082 1711.66 367.766 1708.48 c 2,25,-1
 375.369 1707.67 l 1,26,-1
 379.775 1713.92 l 2,27,28
 424.231 1776.99 424.231 1776.99 495.801 1820.55 c 0,29,30
 697.387 1944.51 697.387 1944.51 847.28 1950 c 1,31,-1
 847.28 1858.35 l 1,32,33
 687.009 1853.71 687.009 1853.71 540.898 1739.14 c 0,34,35
 515.54 1719.29 515.54 1719.29 494.545 1697.2 c 2,36,-1
 478.72 1680.54 l 1,37,-1
 501.148 1675.55 l 2,0,1
424.935 1605.66 m 1,38,-1
 413.911 1579.94 l 2,39,40
 403.23 1555.02 403.23 1555.02 403.23 1526.67 c 0,41,42
 403.23 1484.16 403.23 1484.16 426.155 1465.28 c 0,43,44
 447.946 1447.33 447.946 1447.33 474.01 1447.33 c 0,45,46
 502.438 1447.33 502.438 1447.33 518.352 1459.67 c 0,47,48
 542.65 1477.96 542.65 1477.96 542.65 1513.83 c 0,49,50
 542.65 1562.22 542.65 1562.22 486.328 1584.75 c 0,51,52
 464.442 1593.51 464.442 1593.51 436.104 1602.22 c 2,53,-1
 424.935 1605.66 l 1,38,-1
EndSplineSet
EndChar

StartChar: uni065A
Encoding: 1626 1626 87
Width: 1095
VWidth: 2186
GlyphClass: 4
Flags: W
AnchorPoint: "Anchor-10" 547.84 1279.5 mark 0
AnchorPoint: "Anchor-9" 547.84 1279.5 mark 0
AnchorPoint: "Anchor-1" 545.7 1761 basemark 0
AnchorPoint: "Anchor-1" 547.84 1279.5 mark 0
LayerCount: 2
Fore
SplineSet
476.032 1358.84 m 1,0,-1
 282.934 1681.66 l 1,1,-1
 401.783 1681.66 l 1,2,-1
 547.84 1462.57 l 1,3,-1
 693.896 1681.66 l 1,4,-1
 812.746 1681.66 l 1,5,-1
 619.646 1358.84 l 1,6,-1
 476.032 1358.84 l 1,0,-1
EndSplineSet
EndChar

StartChar: afii57392
Encoding: 1632 1632 88
Width: 1177
VWidth: 2181
GlyphClass: 2
Flags: W
LayerCount: 2
Fore
SplineSet
497.74 603.61 m 128,-1,1
 497.74 561.913 497.74 561.913 527.621 532.031 c 128,-1,2
 557.503 502.15 557.503 502.15 599.2 502.15 c 128,-1,3
 640.896 502.15 640.896 502.15 670.777 532.031 c 128,-1,4
 700.66 561.914 700.66 561.914 700.66 603.61 c 128,-1,5
 700.66 645.305 700.66 645.305 670.777 675.188 c 128,-1,6
 640.896 705.07 640.896 705.07 599.2 705.07 c 128,-1,7
 557.504 705.07 557.504 705.07 527.621 675.188 c 128,-1,0
 497.74 645.306 497.74 645.306 497.74 603.61 c 128,-1,1
357.267 600.562 m 128,-1,9
 357.267 702.314 357.267 702.314 429.102 774.568 c 128,-1,10
 500.889 846.775 500.889 846.775 601.947 846.775 c 128,-1,11
 703.01 846.775 703.01 846.775 774.793 774.568 c 128,-1,12
 846.626 702.313 846.626 702.313 846.626 600.562 c 128,-1,13
 846.626 498.803 846.626 498.803 774.793 426.557 c 128,-1,14
 703.001 354.351 703.001 354.351 601.947 354.351 c 128,-1,15
 500.888 354.351 500.888 354.351 429.102 426.557 c 128,-1,8
 357.267 498.808 357.267 498.808 357.267 600.562 c 128,-1,9
EndSplineSet
EndChar

StartChar: afii57393
Encoding: 1633 1633 89
Width: 1177
VWidth: 2181
GlyphClass: 2
Flags: W
LayerCount: 2
Fore
SplineSet
730.99 8.5 m 5,0,-1
 574.386 8.5 l 5,1,2
 573.56 443.91 573.56 443.91 530.803 709.65 c 4,3,4
 484.243 1020.09 484.243 1020.09 355.803 1295.65 c 5,5,-1
 495.143 1363.5 l 5,6,7
 603.328 1184.84 603.328 1184.84 678.803 837.65 c 4,8,9
 728.802 607.65 728.802 607.65 730.99 8.5 c 5,0,-1
EndSplineSet
EndChar

StartChar: afii57394
Encoding: 1634 1634 90
Width: 1177
VWidth: 2181
GlyphClass: 2
Flags: W
LayerCount: 2
Fore
SplineSet
288.771 1363.5 m 5,0,1
 354.924 1208.23 354.924 1208.23 358.772 1201.54 c 4,2,3
 430.591 1056.06 430.591 1056.06 579.175 1047.5 c 4,4,5
 783.496 1035.94 783.496 1035.94 844.654 1155.35 c 4,6,7
 886.654 1237.35 886.654 1237.35 903.133 1363.35 c 5,8,-1
 1047.13 1327.35 l 5,9,10
 1037.13 1273.35 1037.13 1273.35 1017.13 1201.35 c 4,11,12
 929.545 891.723 929.545 891.723 639.175 879.5 c 4,13,14
 544.718 875.524 544.718 875.524 442.008 911.271 c 5,15,16
 481.167 812.272 481.167 812.272 507.175 574.5 c 4,17,18
 515.243 500.755 515.243 500.755 521.27 8.5 c 5,19,-1
 364.664 8.5 l 5,20,21
 363.89 446.489 363.89 446.489 324.837 683.659 c 4,22,23
 271.977 1004.68 271.977 1004.68 150.175 1266.5 c 5,24,-1
 288.771 1363.5 l 5,0,1
EndSplineSet
EndChar

StartChar: afii57395
Encoding: 1635 1635 91
Width: 1177
VWidth: 2181
GlyphClass: 2
Flags: W
LayerCount: 2
Fore
SplineSet
243.771 1363.5 m 1,0,1
 309.924 1208.23 309.924 1208.23 313.772 1201.54 c 0,2,3
 396.217 1048.51 396.217 1048.51 483 1040.75 c 0,4,5
 633.334 1028.59 633.334 1028.59 655 1115.75 c 0,6,7
 663.297 1148.98 663.297 1148.98 663.297 1318.75 c 1,8,-1
 779.4 1317.88 l 1,9,10
 781.513 1141.29 781.513 1141.29 805.4 1101.88 c 0,11,12
 841.573 1042.71 841.573 1042.71 915.691 1047.75 c 4,13,14
 1020.51 1054.75 1020.51 1054.75 1026.57 1351.88 c 1,15,-1
 1154.57 1330.88 l 1,16,17
 1166.38 1325.24 1166.38 1325.24 1139.87 1161 c 0,18,19
 1098.14 902.367 1098.14 902.367 917.4 896.046 c 0,20,21
 814.489 892.447 814.489 892.447 735.4 983.876 c 1,22,23
 684.788 895.982 684.788 895.982 552 887.75 c 0,24,25
 477.295 883.119 477.295 883.119 397.008 911.271 c 1,26,27
 431.411 829.41 431.411 829.41 473.4 476.876 c 0,28,29
 482.352 401.717 482.352 401.717 478.27 8.5 c 1,30,-1
 319.664 8.5 l 1,31,32
 318.89 446.488 318.89 446.488 279.837 683.659 c 0,33,34
 226.978 1004.68 226.978 1004.68 105.175 1266.5 c 1,35,-1
 243.771 1363.5 l 1,0,1
EndSplineSet
EndChar

StartChar: afii57396
Encoding: 1636 1636 92
Width: 1177
VWidth: 2181
GlyphClass: 2
Flags: W
LayerCount: 2
Fore
SplineSet
755.514 1369.21 m 1,0,-1
 747.191 1235.88 l 1,1,2
 622.541 1247.74 622.541 1247.74 539.314 1210.42 c 1,3,4
 429.063 1159.52 429.063 1159.52 437.877 1047.09 c 0,5,6
 447.153 930.327 447.153 930.327 566.078 885.305 c 0,7,8
 604.867 870.62 604.867 870.62 742.77 856.721 c 1,9,-1
 742.77 713.322 l 1,10,11
 588.49 684.021 588.49 684.021 498.288 624.809 c 0,12,13
 378.637 545.295 378.637 545.295 361.969 401.309 c 0,14,15
 357.018 358.521 357.018 358.521 361.91 322.85 c 0,16,17
 391.152 109.715 391.152 109.715 752.526 159.562 c 0,18,19
 835.112 170.937 835.112 170.937 958.91 229.883 c 1,20,-1
 958.91 61.0957 l 1,21,22
 835.432 12.0723 835.432 12.0723 671.832 0.755859 c 0,23,24
 292.089 -24.582 292.089 -24.582 223.893 229.285 c 0,25,26
 205.25 298.689 205.25 298.689 205.25 399.24 c 0,27,28
 205.25 536.091 205.25 536.091 315.484 667.957 c 1,29,30
 381.369 744.99 381.369 744.99 470.187 769.214 c 2,31,-1
 525.383 784.268 l 1,32,-1
 471.511 803.529 l 2,33,34
 324.39 856.131 324.39 856.131 294.745 995.727 c 0,35,36
 245.026 1231.99 245.026 1231.99 446.729 1316.54 c 0,37,38
 566.263 1366.64 566.263 1366.64 755.514 1369.21 c 1,0,-1
EndSplineSet
EndChar

StartChar: afii57397
Encoding: 1637 1637 93
Width: 1177
VWidth: 2181
GlyphClass: 2
Flags: W
LayerCount: 2
Fore
SplineSet
558.316 1029.44 m 2,0,1
 435.596 952.978 435.596 952.978 347.237 779.785 c 0,2,3
 267.629 623.745 267.629 623.745 261.968 501.817 c 0,4,5
 253.924 328.592 253.924 328.592 349.612 249.899 c 0,6,7
 438.292 176.952 438.292 176.952 612.858 176.156 c 0,8,9
 807.962 175.266 807.962 175.266 874.874 289.757 c 0,10,11
 931.282 387.875 931.282 387.875 919.441 533.265 c 0,12,13
 907.591 686.656 907.591 686.656 779.574 856.497 c 0,14,15
 683.022 984.606 683.022 984.606 574.889 1030.73 c 2,16,-1
 566.271 1034.4 l 1,17,-1
 558.316 1029.44 l 2,0,1
361.901 1159.19 m 1,18,-1
 428.864 1284.18 l 1,19,20
 605.398 1240.84 605.398 1240.84 723.104 1162.07 c 1,21,22
 882.141 1052.74 882.141 1052.74 979.707 876.4 c 1,23,24
 1078 702.704 1078 702.704 1087 517.754 c 0,25,26
 1099.63 263.693 1099.63 263.693 996.072 153.638 c 0,27,28
 866.263 16.918 866.263 16.918 594.251 17.958 c 1,29,30
 318.252 17.958 318.252 17.958 192.535 153.525 c 0,31,32
 62.7842 294.381 62.7842 294.381 90.4756 517.379 c 0,33,34
 112.886 695.866 112.886 695.866 202.562 848.477 c 0,35,36
 310.611 1032.35 310.611 1032.35 429.875 1125.57 c 2,37,-1
 436.899 1131.06 l 1,38,-1
 361.901 1159.19 l 1,18,-1
EndSplineSet
EndChar

StartChar: afii57398
Encoding: 1638 1638 94
Width: 1177
VWidth: 2181
GlyphClass: 2
Flags: W
LayerCount: 2
Fore
SplineSet
887.272 1358.75 m 1,0,1
 888.725 1053.76 888.725 1053.76 926.908 689.476 c 0,2,3
 957.165 400.473 957.165 400.473 1057.48 8.5 c 1,4,-1
 884.891 8.5 l 1,5,6
 797.13 347.691 797.13 347.691 764.782 693.033 c 0,7,8
 734.716 1012.95 734.716 1012.95 732.759 1153.61 c 2,9,-1
 732.429 1177.26 l 1,10,-1
 709.721 1170.64 l 2,11,12
 609.383 1141.4 609.383 1141.4 460.1 1141.4 c 0,13,14
 279.35 1141.4 279.35 1141.4 108.95 1190.38 c 1,15,-1
 108.95 1357.99 l 1,16,17
 292.058 1310 292.058 1310 460.1 1310 c 0,18,19
 674.898 1310 674.898 1310 887.272 1358.75 c 1,0,1
EndSplineSet
EndChar

StartChar: afii57399
Encoding: 1639 1639 95
Width: 1177
VWidth: 2181
GlyphClass: 2
Flags: W
LayerCount: 2
Fore
SplineSet
508.918 8.5 m 5,0,1
 493.571 202.579 493.571 202.579 386.335 595.058 c 4,2,3
 278.426 990 278.426 990 107.231 1284.5 c 5,4,-1
 262.747 1363.5 l 5,5,6
 423.469 1037.6 423.469 1037.6 517.692 707.806 c 4,7,8
 568.814 528.879 568.814 528.879 570.791 518.001 c 6,9,-1
 588.5 420.575 l 5,10,-1
 606.209 518 l 6,11,12
 608.183 528.862 608.183 528.862 659.308 707.806 c 4,13,14
 753.547 1037.65 753.547 1037.65 914.253 1363.5 c 5,15,-1
 1069.62 1284.5 l 5,16,17
 900.645 996.25 900.645 996.25 790.49 594.46 c 4,18,19
 702.005 271.711 702.005 271.711 668.877 8.5 c 5,20,-1
 508.918 8.5 l 5,0,1
EndSplineSet
EndChar

StartChar: afii57400
Encoding: 1640 1640 96
Width: 1177
VWidth: 2181
GlyphClass: 2
Flags: W
LayerCount: 2
Fore
SplineSet
508.918 1363.5 m 5,0,-1
 668.877 1363.5 l 5,1,2
 704.769 1078.33 704.769 1078.33 790.487 777.554 c 4,3,4
 916.426 335.65 916.426 335.65 1082.62 71.5 c 5,5,-1
 914.253 8.5 l 5,6,7
 753.544 334.356 753.544 334.356 659.308 664.194 c 4,8,9
 608.185 843.131 608.185 843.131 588.5 951.424 c 5,10,11
 568.815 843.132 568.815 843.132 517.692 664.194 c 4,12,13
 423.456 334.355 423.456 334.355 262.747 8.5 c 5,14,-1
 94.2314 71.5 l 5,15,16
 220.426 283.65 220.426 283.65 386.334 776.938 c 4,17,18
 485.778 1070.86 485.778 1070.86 508.918 1363.5 c 5,0,-1
EndSplineSet
EndChar

StartChar: afii57401
Encoding: 1641 1641 97
Width: 1177
VWidth: 2181
GlyphClass: 2
Flags: W
LayerCount: 2
Fore
SplineSet
566.245 667.279 m 4,0,1
 317.085 682.63 317.085 682.63 211.67 799.709 c 4,2,3
 125 895.322 125 895.322 125 1008.65 c 4,4,5
 125 1160.27 125 1160.27 219.468 1254.81 c 4,6,7
 348.76 1385.2 348.76 1385.2 499.69 1384.2 c 4,8,9
 680.926 1384.2 680.926 1384.2 764.24 1303.87 c 4,10,11
 883.019 1188.33 883.019 1188.33 896.898 1001.97 c 4,12,13
 907.619 857.206 907.619 857.206 926.939 696.196 c 4,14,15
 967.118 376.737 967.118 376.737 1057.49 8.5 c 1,16,-1
 885.445 8.5 l 1,17,18
 796.165 437.565 796.165 437.565 768.368 668.29 c 5,19,20
 670.332 660.812 670.332 660.812 566.245 667.279 c 4,0,1
744.53 825.96 m 5,21,-1
 744.53 923.05 l 6,22,23
 744.53 1044.41 744.53 1044.41 696.992 1116.42 c 5,24,25
 619.963 1224.6 619.963 1224.6 505.04 1224.6 c 4,26,27
 413.247 1224.6 413.247 1224.6 347.025 1160.71 c 4,28,29
 285.638 1101.52 285.638 1101.52 281.6 1014 c 4,30,31
 278.341 937.53 278.341 937.53 352.984 883.653 c 28,32,33
 406.417 845.086 406.417 845.086 466.245 831.279 c 4,34,35
 570.245 807.279 570.245 807.279 744.53 825.96 c 5,21,-1
EndSplineSet
EndChar

StartChar: afii57381
Encoding: 1642 1642 98
Width: 1177
VWidth: 2186
GlyphClass: 2
Flags: W
LayerCount: 2
Fore
SplineSet
839.04 250 m 1,0,-1
 1005.64 250 l 1,1,-1
 1005.64 8.5 l 1,2,-1
 839.04 8.5 l 1,3,-1
 839.04 250 l 1,0,-1
170.29 1373.5 m 1,4,-1
 336.89 1373.5 l 1,5,-1
 336.89 1132 l 1,6,-1
 170.29 1132 l 1,7,-1
 170.29 1373.5 l 1,4,-1
871.394 1373.5 m 1,8,-1
 1013.31 1373.5 l 1,9,-1
 305.606 8.5 l 1,10,-1
 163.693 8.5 l 1,11,-1
 871.394 1373.5 l 1,8,-1
EndSplineSet
EndChar

StartChar: uni066B
Encoding: 1643 1643 99
Width: 711
VWidth: 2186
GlyphClass: 2
Flags: W
LayerCount: 2
Fore
SplineSet
443.218 502.139 m 1,0,-1
 568.799 501.203 l 1,1,2
 342.799 113.203 342.799 113.203 130 -230.265 c 1,3,-1
 1.59766 -228.502 l 1,4,5
 94.7988 -78.7969 94.7988 -78.7969 443.218 502.139 c 1,0,-1
EndSplineSet
EndChar

StartChar: uni066C
Encoding: 1644 1644 100
Width: 696
VWidth: 2186
GlyphClass: 2
Flags: W
LayerCount: 2
Fore
SplineSet
291.2 1580.01 m 1,0,-1
 490.97 1580.01 l 1,1,-1
 490.97 1433.52 l 1,2,-1
 320.557 1102.04 l 1,3,-1
 207.225 1102.04 l 1,4,-1
 291.2 1428.73 l 1,5,-1
 291.2 1580.01 l 1,0,-1
EndSplineSet
EndChar

StartChar: afii63167
Encoding: 1645 1645 101
Width: 1194
VWidth: 2186
GlyphClass: 2
Flags: W
LayerCount: 2
Fore
SplineSet
132.901 794.63 m 1,0,-1
 486.633 794.63 l 1,1,-1
 597.061 1130.84 l 1,2,-1
 707.487 794.63 l 1,3,-1
 1061.22 794.63 l 1,4,-1
 775.453 585.725 l 1,5,-1
 884.797 249.809 l 1,6,-1
 597.061 457.729 l 1,7,-1
 309.323 249.809 l 1,8,-1
 418.667 585.725 l 1,9,-1
 132.901 794.63 l 1,0,-1
EndSplineSet
EndChar

StartChar: uni066E
Encoding: 1646 1646 102
Width: 1755
VWidth: 2181
GlyphClass: 2
Flags: W
AnchorPoint: "Anchor-10" 763.22 1051.5 basechar 0
AnchorPoint: "Anchor-7" 533.22 -209 basechar 0
LayerCount: 2
Fore
SplineSet
869.463 0.982422 m 5,0,1
 520.854 -0.0240258 520.854 -0.0240258 337.839 80.8037 c 4,2,3
 108.441 183.356 108.441 183.356 94.3193 419.902 c 4,4,5
 82.3195 620.902 82.3195 620.902 220.604 798.863 c 5,6,-1
 349.319 764.902 l 5,7,8
 231.056 604.152 231.056 604.152 238.319 437.902 c 4,9,10
 247.28 231.95 247.28 231.95 561.779 183.378 c 4,11,12
 638.222 171.572 638.222 171.572 814.097 171.017 c 21,13,14
 937.569 174.299 937.569 174.299 991.492 179.902 c 0,15,16
 1517.43 237.431 1517.43 237.431 1534.49 587.902 c 1,17,-1
 1654.49 572.902 l 1,18,19
 1663.75 314.362 1663.75 314.362 1448.49 163.902 c 0,20,21
 1255.72 28.7627 1255.72 28.7627 869.463 0.982422 c 5,0,1
EndSplineSet
Substitution2: "'init' Initial Forms in Arabic lookup 13 subtable" uni066E.init
Substitution2: "'medi' Medial Forms in Arabic lookup 11 subtable" uni066E.medi
Substitution2: "'fina' Terminal Forms in Arabic lookup 9 subtable" uni066E.fina
EndChar

StartChar: uni066F
Encoding: 1647 1647 103
Width: 1528
VWidth: 2181
GlyphClass: 2
Flags: W
AnchorPoint: "Anchor-10" 315 1045.5 basechar 0
AnchorPoint: "Anchor-7" 439 -603 basechar 0
LayerCount: 2
Fore
SplineSet
1406.99 133.703 m 0,0,1
 1338.02 -177.19 1338.02 -177.19 1065.87 -340.028 c 0,2,3
 766.98 -520.474 766.98 -520.474 438 -441 c 4,4,5
 93.4991 -357.046 93.4991 -357.046 97.8682 42 c 0,6,7
 100.585 247.941 100.585 247.941 272.31 564.017 c 1,8,-1
 421.868 526 l 1,9,10
 268.76 268.134 268.76 268.134 261.868 58 c 0,11,12
 249.771 -310.821 249.771 -310.821 648.868 -307.528 c 0,13,14
 875.719 -305.657 875.719 -305.657 1033.48 -184.025 c 0,15,16
 1260.16 -10.5371 1260.16 -10.5371 1260.98 130.646 c 1,17,18
 1248.3 129.416 1248.3 129.416 1084.83 129.239 c 0,19,20
 907.276 129.014 907.276 129.014 832.993 214.703 c 0,21,22
 755.484 305.125 755.484 305.125 770.613 429.323 c 0,23,24
 791.65 607.226 791.65 607.226 901.265 713.436 c 0,25,26
 999.725 808.838 999.725 808.838 1114.14 801.823 c 0,27,28
 1255.28 793.666 1255.28 793.666 1349 644 c 0,29,30
 1420.37 530 1420.37 530 1423 367 c 0,31,32
 1425.49 212.905 1425.49 212.905 1406.99 133.703 c 0,0,1
1098.84 649.636 m 0,33,34
 971.104 646.718 971.104 646.718 922.979 489.104 c 0,35,36
 864.527 301.248 864.527 301.248 1071.78 285.264 c 0,37,38
 1125.67 281.107 1125.67 281.107 1269.29 288.203 c 1,39,40
 1270.3 400.516 1270.3 400.516 1253.56 482.008 c 0,41,42
 1218.49 652.711 1218.49 652.711 1098.84 649.636 c 0,33,34
EndSplineSet
Substitution2: "'init' Initial Forms in Arabic lookup 13 subtable" uni066F.init
Substitution2: "'medi' Medial Forms in Arabic lookup 11 subtable" uni066F.medi
Substitution2: "'fina' Terminal Forms in Arabic lookup 9 subtable" uni066F.fina
EndChar

StartChar: uni0670
Encoding: 1648 1648 104
Width: 0
VWidth: 2186
GlyphClass: 4
Flags: W
AnchorPoint: "Anchor-10" 547.84 1279.5 mark 0
AnchorPoint: "Anchor-9" 547.84 1279.5 mark 0
AnchorPoint: "Anchor-1" 547.84 1975 basemark 0
AnchorPoint: "Anchor-1" 547.84 1279.5 mark 0
LayerCount: 2
Fore
SplineSet
501.99 1327.81 m 1,0,-1
 501.99 1926.69 l 1,1,-1
 593.69 1926.69 l 1,2,-1
 593.69 1327.81 l 1,3,-1
 501.99 1327.81 l 1,0,-1
EndSplineSet
EndChar

StartChar: uni0674
Encoding: 1652 1652 105
Width: 639
VWidth: 2186
GlyphClass: 2
Flags: W
LayerCount: 2
Fore
SplineSet
143.54 1515.26 m 1,0,-1
 254.306 1540.82 l 1,1,-1
 219.379 1556.7 l 2,2,3
 176.794 1576.05 176.794 1576.05 161.706 1610 c 0,4,5
 145.68 1647.06 145.68 1647.06 145.68 1692.52 c 0,6,7
 145.68 1788.83 145.68 1788.83 200.568 1830.98 c 0,8,9
 259.108 1876.4 259.108 1876.4 353.1 1876.4 c 0,10,11
 411.842 1876.4 411.842 1876.4 462.08 1846.81 c 1,12,-1
 462.08 1769.8 l 1,13,14
 412.732 1795.4 412.732 1795.4 353.1 1795.4 c 0,15,16
 276.875 1795.4 276.875 1795.4 254.747 1771.97 c 0,17,18
 220.26 1733.92 220.26 1733.92 220.26 1701.08 c 0,19,20
 220.26 1608.9 220.26 1608.9 330.161 1577.33 c 0,21,22
 366.368 1566.36 366.368 1566.36 484.55 1593.69 c 1,23,-1
 484.55 1511.4 l 1,24,-1
 143.54 1434.84 l 1,25,-1
 143.54 1515.26 l 1,0,-1
EndSplineSet
EndChar

StartChar: uni06A1
Encoding: 1697 1697 109
Width: 1747
VWidth: 2181
GlyphClass: 2
Flags: W
AnchorPoint: "Anchor-10" 498.55 1225.28 basechar 0
AnchorPoint: "Anchor-7" 605.55 -152.88 basechar 0
LayerCount: 2
Fore
SplineSet
1369.88 913.016 m 4,0,1
 1244.21 909.656 1244.21 909.656 1201.88 709.016 c 4,2,3
 1165.87 540.039 1165.87 540.039 1396.86 556.045 c 4,4,5
 1463.74 559.389 1463.74 559.389 1509.14 562.88 c 5,6,7
 1510.15 675.193 1510.15 675.193 1493.41 756.686 c 4,8,9
 1462.57 915.299 1462.57 915.299 1369.88 913.016 c 4,0,1
862.779 -1 m 20,10,11
 517.854 -0.0244141 517.854 -0.0244141 334.839 80.8037 c 4,12,13
 105.517 182.083 105.517 182.083 91.3193 419.902 c 4,14,15
 79.3193 620.902 79.3193 620.902 217.604 798.863 c 5,16,-1
 346.319 764.902 l 5,17,18
 228.056 604.152 228.056 604.152 235.319 437.902 c 4,19,20
 244.354 230.271 244.354 230.271 558.779 183.378 c 4,21,22
 603.526 176.704 603.526 176.704 808.097 171.017 c 20,23,24
 1130.42 162.055 1130.42 162.055 1320.71 218.174 c 4,25,26
 1476.99 264.006 1476.99 264.006 1498.39 401.816 c 6,27,-1
 1500.92 418.121 l 5,28,-1
 1387.36 401.045 l 4,29,30
 1149.46 384.358 1149.46 384.358 1088.86 502.045 c 4,31,32
 1049.57 579.274 1049.57 579.274 1060.88 667.016 c 4,33,34
 1086.66 867.146 1086.66 867.146 1201.88 994.016 c 4,35,36
 1279.97 1080.25 1279.97 1080.25 1402.99 1069.5 c 4,37,38
 1527.89 1059.17 1527.89 1059.17 1586.83 918.244 c 4,39,40
 1634.47 804.328 1634.47 804.328 1646.86 659.045 c 4,41,42
 1653.55 579.107 1653.55 579.107 1654.36 571.15 c 4,43,44
 1665.34 462.992 1665.34 462.992 1627.34 318.291 c 4,45,46
 1574.94 118.764 1574.94 118.764 1351.14 46.4951 c 4,47,48
 1195.45 -2.92676 1195.45 -2.92676 862.779 -1 c 20,10,11
EndSplineSet
Substitution2: "'init' Initial Forms in Arabic lookup 13 subtable" uni06A1.init
Substitution2: "'medi' Medial Forms in Arabic lookup 11 subtable" uni06A1.medi
Substitution2: "'fina' Terminal Forms in Arabic lookup 9 subtable" uni06A1.fina
EndChar

StartChar: uni06A9
Encoding: 1705 1705 110
Width: 1741
VWidth: 2181
GlyphClass: 2
Flags: W
AnchorPoint: "Anchor-10" 371 1202.34 basechar 0
AnchorPoint: "Anchor-7" 487 -235.68 basechar 0
LayerCount: 2
Fore
SplineSet
860.779 0 m 4,0,1
 517.854 -0.0244141 517.854 -0.0244141 334.839 80.8037 c 4,2,3
 105.441 183.355 105.441 183.355 91.3193 419.902 c 4,4,5
 79.3193 620.902 79.3193 620.902 217.604 798.863 c 5,6,-1
 346.319 764.902 l 5,7,8
 228.056 604.152 228.056 604.152 235.319 437.902 c 4,9,10
 244.28 231.95 244.28 231.95 558.779 183.378 c 4,11,12
 635.222 171.572 635.222 171.572 811.097 171.017 c 21,13,14
 1058.75 169.004 l 5,15,-1
 1191.41 169.004 l 6,16,17
 1454.14 169.004 1454.14 169.004 1471.46 291.991 c 4,18,19
 1488.6 413.938 1488.6 413.938 1403.46 488.991 c 4,20,21
 1159.21 705.2 1159.21 705.2 1028.46 750.224 c 4,22,23
 961.631 772.68 961.631 772.68 952.547 878.462 c 4,24,25
 944.219 981.759 944.219 981.759 1052.7 1073.92 c 4,26,27
 1149.24 1155.93 1149.24 1155.93 1300.46 1236.99 c 4,28,29
 1489.65 1338.4 1489.65 1338.4 1701.29 1399.09 c 5,30,-1
 1701.29 1239.42 l 5,31,32
 1596.89 1222.04 1596.89 1222.04 1390.46 1125.99 c 4,33,34
 1216.14 1045.76 1216.14 1045.76 1088.77 918.91 c 5,35,36
 1477.64 717.756 1477.64 717.756 1595.46 483.991 c 4,37,38
 1635.81 403.938 1635.81 403.938 1619.46 270.991 c 4,39,40
 1600.99 111.784 1600.99 111.784 1427.46 33.9912 c 4,41,42
 1351.64 0 1351.64 0 1232.74 0 c 6,43,-1
 1091.04 0 l 5,44,-1
 860.779 0 l 4,0,1
EndSplineSet
Substitution2: "'init' Initial Forms in Arabic lookup 13 subtable" uniFB90
Substitution2: "'medi' Medial Forms in Arabic lookup 11 subtable" uniFB91
Substitution2: "'fina' Terminal Forms in Arabic lookup 9 subtable" uniFB8F
EndChar

StartChar: afii57514
Encoding: 1722 1722 112
Width: 1329
VWidth: 2186
GlyphClass: 2
Flags: W
AnchorPoint: "Anchor-10" 545.734 1052.15 basechar 0
AnchorPoint: "Anchor-7" 407.58 -617.02 basechar 0
LayerCount: 2
Fore
SplineSet
1230.58 194.543 m 4,0,1
 1217.24 -33.8359 1217.24 -33.8359 1110.3 -166.862 c 4,2,3
 978.926 -330.282 978.926 -330.282 678.83 -341.999 c 4,4,5
 419.515 -352.217 419.515 -352.217 276.577 -258.987 c 4,6,7
 82.0029 -132.078 82.0029 -132.078 91.5771 111.013 c 4,8,9
 105.079 428.104 105.079 428.104 356.065 681.479 c 5,10,-1
 464.065 600.955 l 5,11,12
 117.598 157.107 117.598 157.107 312.829 -78.4746 c 4,13,14
 405.477 -190.883 405.477 -190.883 684.032 -188.814 c 4,15,16
 1076.69 -185.949 1076.69 -185.949 1095.06 167.477 c 4,17,18
 1108.68 432.615 1108.68 432.615 1079.07 539.477 c 5,19,-1
 1231.06 617.477 l 5,20,21
 1245.19 421.543 1245.19 421.543 1230.58 194.543 c 4,0,1
EndSplineSet
Substitution2: "'init' Initial Forms in Arabic lookup 13 subtable" uni06BA.init
Substitution2: "'medi' Medial Forms in Arabic lookup 11 subtable" uni06BA.medi
Substitution2: "'fina' Terminal Forms in Arabic lookup 9 subtable" uniFB9F
EndChar

StartChar: uni06F4
Encoding: 1780 1780 119
Width: 1177
VWidth: 2181
GlyphClass: 2
Flags: W
LayerCount: 2
Fore
SplineSet
373.954 1113.08 m 2,0,-1
 390.401 1062.09 l 1,1,-1
 408.076 1112.66 l 2,2,3
 478.879 1315.24 478.879 1315.24 618.676 1355.98 c 0,4,5
 765.032 1398.51 765.032 1398.51 957.84 1358.41 c 1,6,-1
 957.84 1228.77 l 1,7,8
 918.031 1240 918.031 1240 834.188 1250.63 c 0,9,10
 670.066 1271.43 670.066 1271.43 585.823 1185.46 c 0,11,12
 476.05 1074.15 476.05 1074.15 544.819 961.178 c 0,13,14
 595.149 880.1 595.149 880.1 791.244 879.86 c 0,15,16
 845.03 879.811 845.03 879.811 1015.41 904.857 c 1,17,-1
 1017.51 769.148 l 1,18,19
 823.321 743.59 823.321 743.59 761.84 743.59 c 0,20,21
 592.257 743.59 592.257 743.59 489.921 812.229 c 2,22,-1
 442.074 844.321 l 1,23,24
 473.798 722.426 473.798 722.426 481.856 670.213 c 0,25,26
 524.499 426.78 524.499 426.78 521.441 8.5 c 1,27,-1
 364.664 8.5 l 1,28,29
 363.907 436.888 363.907 436.888 324.84 683.643 c 0,30,31
 278.203 974.213 278.203 974.213 146.203 1270.21 c 1,32,-1
 287.91 1363.5 l 1,33,34
 353.392 1176.83 353.392 1176.83 373.954 1113.08 c 2,0,-1
EndSplineSet
EndChar

StartChar: uni06F5
Encoding: 1781 1781 120
Width: 1177
VWidth: 2181
GlyphClass: 2
Flags: W
LayerCount: 2
Fore
SplineSet
650.175 306.278 m 1,0,1
 683.285 180.89 683.285 180.89 806.149 184.39 c 0,2,3
 846.106 185.344 846.106 185.344 875.592 195.619 c 0,4,5
 1008.22 241.844 1008.22 241.844 928.052 470.974 c 0,6,7
 809.35 808.062 809.35 808.062 592.071 1078.04 c 2,8,-1
 588.03 1083.05 l 1,9,-1
 584.172 1077.89 l 2,10,11
 362.406 781.288 362.406 781.288 259.962 465.662 c 0,12,13
 234.372 386.273 234.372 386.273 234.327 330.016 c 0,14,15
 234.212 187.945 234.212 187.945 395.245 187.945 c 0,16,17
 500.421 187.945 500.421 187.945 541.963 306.277 c 1,18,-1
 650.175 306.278 l 1,0,1
366.971 8.36426 m 0,19,20
 94.3955 8.36426 94.3955 8.36426 80 279 c 0,21,22
 60.8672 638.697 60.8672 638.697 548.267 1270.45 c 0,23,24
 556.375 1280.96 556.375 1280.96 564.476 1287.61 c 0,25,26
 599.508 1316.38 599.508 1316.38 637.045 1270.34 c 0,27,28
 1134.58 660.177 1134.58 660.177 1097 283 c 0,29,30
 1070.27 13.5996 1070.27 13.5996 819.699 8.86426 c 0,31,32
 649.851 5.41797 649.851 5.41797 596.155 154.498 c 2,33,-1
 591.455 167.547 l 1,34,-1
 586.748 154.501 l 2,35,36
 534.018 8.36621 534.018 8.36621 366.971 8.36426 c 0,19,20
EndSplineSet
EndChar

StartChar: uni06F6
Encoding: 1782 1782 121
Width: 1177
VWidth: 2181
GlyphClass: 2
Flags: W
LayerCount: 2
Fore
SplineSet
245.846 8.5 m 1,0,1
 321.051 275.974 321.051 275.974 426.229 456.617 c 0,2,3
 529.133 633 529.133 633 613.843 696 c 1,4,5
 360.467 726.858 360.467 726.858 332.58 984.53 c 0,6,7
 314.831 1148.34 314.831 1148.34 428.843 1267 c 0,8,9
 532.872 1375.27 532.872 1375.27 689.08 1375.27 c 0,10,11
 805.562 1375.27 805.562 1375.27 893.64 1347.17 c 1,12,-1
 893.64 1197.52 l 5,13,14
 672.045 1259.76 672.045 1259.76 570.17 1184.6 c 0,15,16
 489.18 1125.58 489.18 1125.58 489.18 997.37 c 0,17,18
 489.18 907.122 489.18 907.122 553.76 847.241 c 0,19,20
 606.027 798.54 606.027 798.54 723.32 798.54 c 0,21,22
 753.916 798.54 753.916 798.54 981.843 880 c 1,23,-1
 981.843 726.789 l 1,24,25
 751.929 644.172 751.929 644.172 600.728 437.694 c 0,26,27
 459.657 245.049 459.657 245.049 400.99 8.5 c 1,28,-1
 245.846 8.5 l 1,0,1
EndSplineSet
EndChar

StartChar: uniFB8F
Encoding: 64399 64399 136
Width: 1812
VWidth: 2181
GlyphClass: 2
Flags: W
AnchorPoint: "Anchor-10" 450 1174.5 basechar 0
AnchorPoint: "Anchor-7" 529 -212 basechar 0
LayerCount: 2
Fore
SplineSet
1610.33 223.232 m 5,0,1
 1678.67 168.88 1678.67 168.88 1767.08 168.88 c 2,2,-1
 1828.33 168.88 l 1,3,-1
 1828.33 0 l 1,4,-1
 1781.22 0 l 2,5,6
 1609.11 0 1609.11 0 1532.56 101 c 1,7,8
 1490.29 62.1587 1490.29 62.1587 1427.46 33.9912 c 0,9,10
 1351.64 0 1351.64 0 1232.74 0 c 2,11,-1
 1091.04 0 l 1,12,-1
 860.779 0 l 0,13,14
 517.854 -0.0244141 517.854 -0.0244141 334.839 80.8037 c 0,15,16
 105.441 183.355 105.441 183.355 91.3193 419.902 c 0,17,18
 79.3193 620.902 79.3193 620.902 217.604 798.863 c 1,19,-1
 346.319 764.902 l 1,20,21
 228.056 604.152 228.056 604.152 235.319 437.902 c 0,22,23
 244.28 231.95 244.28 231.95 558.779 183.378 c 0,24,25
 635.222 171.572 635.222 171.572 811.097 171.017 c 17,26,-1
 1058.75 169.004 l 1,27,-1
 1191.41 169.004 l 2,28,29
 1454.14 169.004 1454.14 169.004 1471.46 291.991 c 0,30,31
 1488.6 413.938 1488.6 413.938 1403.46 488.991 c 0,32,33
 1159.21 705.2 1159.21 705.2 1028.46 750.224 c 0,34,35
 961.631 772.68 961.631 772.68 952.547 878.462 c 0,36,37
 944.219 981.759 944.219 981.759 1052.7 1073.92 c 0,38,39
 1149.24 1155.93 1149.24 1155.93 1300.46 1236.99 c 0,40,41
 1489.65 1338.4 1489.65 1338.4 1701.29 1399.09 c 1,42,-1
 1701.29 1239.42 l 1,43,44
 1596.89 1222.04 1596.89 1222.04 1390.46 1125.99 c 0,45,46
 1216.14 1045.76 1216.14 1045.76 1088.77 918.91 c 1,47,48
 1477.64 717.756 1477.64 717.756 1595.46 483.991 c 0,49,50
 1635.81 403.938 1635.81 403.938 1619.46 270.991 c 0,51,52
 1616.56 245.992 1616.56 245.992 1610.33 223.232 c 5,0,1
EndSplineSet
EndChar

StartChar: uniFB9F
Encoding: 64415 64415 144
Width: 1463
VWidth: 2186
GlyphClass: 2
Flags: W
AnchorPoint: "Anchor-10" 446.092 711.45 basechar 0
AnchorPoint: "Anchor-7" 301.712 -701.104 basechar 0
LayerCount: 2
Fore
SplineSet
1278.06 63.4766 m 5,0,1
 1264.24 -161.836 1264.24 -161.836 1157.3 -294.862 c 4,2,3
 1025.93 -458.282 1025.93 -458.282 725.83 -469.999 c 4,4,5
 466.515 -480.217 466.515 -480.217 323.577 -386.987 c 4,6,7
 129.002 -260.078 129.002 -260.078 138.577 -16.9873 c 4,8,9
 152.079 300.104 152.079 300.104 403.065 553.478 c 5,10,-1
 511.065 472.955 l 5,11,12
 164.597 29.1074 164.597 29.1074 359.829 -206.475 c 4,13,14
 452.476 -318.883 452.476 -318.883 731.032 -316.814 c 4,15,16
 1123.69 -313.949 1123.69 -313.949 1142.06 39.4766 c 4,17,18
 1155.68 304.615 1155.68 304.615 1126.07 411.477 c 5,19,-1
 1278.06 489.477 l 5,20,21
 1273.88 297.41 1273.88 297.41 1287.03 247.186 c 4,22,23
 1307.41 169.38 1307.41 169.38 1441.28 169.38 c 2,24,-1
 1483.53 169.38 l 1,25,-1
 1483.53 0.5 l 1,26,-1
 1385.43 0.5 l 2,27,28
 1318.98 0.5 1318.98 0.5 1278.06 63.4766 c 5,0,1
EndSplineSet
EndChar

StartChar: uniFBE8
Encoding: 64488 64488 147
Width: 558
VWidth: 2186
GlyphClass: 2
Flags: W
AnchorPoint: "Anchor-10" 252.93 1016.5 basechar 0
AnchorPoint: "Anchor-7" 284.93 -112.5 basechar 0
LayerCount: 2
Fore
SplineSet
382.573 136.623 m 4,0,1
 309.647 -1.00102e-05 309.647 -1.00102e-05 90 0 c 6,2,-1
 -39.4004 0 l 5,3,-1
 -39.4004 168.98 l 5,4,-1
 6.0498 168.98 l 6,5,6
 191.242 168.98 191.242 168.98 226.506 193.539 c 4,7,8
 372.573 295.623 372.573 295.623 254.697 643.77 c 5,9,-1
 372.697 703.77 l 5,10,11
 508.573 375.623 508.573 375.623 382.573 136.623 c 4,0,1
EndSplineSet
EndChar

StartChar: uniFBE9
Encoding: 64489 64489 148
Width: 638
VWidth: 2181
GlyphClass: 2
Flags: W
AnchorPoint: "Anchor-10" 331.93 964.5 basechar 0
AnchorPoint: "Anchor-7" 313.93 -120.5 basechar 0
LayerCount: 2
Fore
SplineSet
356.94 94.9971 m 2,0,1
 271.863 2.12677e-06 271.863 2.12677e-06 124.9 0 c 2,2,-1
 -15.4004 0 l 1,3,-1
 -15.4004 168.98 l 1,4,-1
 78.0498 168.98 l 2,5,6
 204.416 168.98 204.416 168.98 247.63 211.903 c 0,7,8
 300.059 263.982 300.059 263.982 310.63 342.35 c 2,9,-1
 326.63 460.965 l 5,10,-1
 465.513 484.965 l 5,11,-1
 448.63 330.35 l 2,12,13
 437.087 224.638 437.087 224.638 509.63 183.903 c 0,14,15
 536.226 168.98 536.226 168.98 630.811 168.98 c 2,16,-1
 658.66 168.98 l 1,17,-1
 658.66 0 l 1,18,-1
 571.96 0 l 2,19,20
 470.196 -2.93985e-06 470.196 -2.93985e-06 383.188 94.6973 c 2,21,-1
 369.76 109.312 l 1,22,-1
 356.94 94.9971 l 2,0,1
EndSplineSet
EndChar

StartChar: uniFE73
Encoding: 65139 65139 156
Width: 573
VWidth: 2186
GlyphClass: 2
Flags: W
AnchorPoint: "Anchor-10" 210.79 1279.5 basechar 0
AnchorPoint: "Anchor-7" 210.79 -111.5 basechar 0
LayerCount: 2
Fore
SplineSet
296.23 350.74 m 2,0,1
 296.23 286.506 296.23 286.506 352.468 230.268 c 0,2,3
 403.354 179.38 403.354 179.38 514.67 179.38 c 2,4,-1
 581.92 179.38 l 1,5,-1
 581.92 8.5 l 1,6,-1
 455.82 8.5 l 2,7,8
 309.266 8.5 309.266 8.5 214.633 103.133 c 0,9,10
 125.35 192.415 125.35 192.415 125.35 337.9 c 2,11,-1
 125.35 370.91 l 1,12,-1
 296.23 370.91 l 1,13,-1
 296.23 350.74 l 2,0,1
EndSplineSet
EndChar

StartChar: uniFE8E
Encoding: 65166 65166 182
Width: 529
VWidth: 2181
GlyphClass: 2
Flags: W
AnchorPoint: "Anchor-10" 267.95 1360 basechar 0
AnchorPoint: "Anchor-7" 276.95 -206.5 basechar 0
LayerCount: 2
Fore
SplineSet
185.069 1167.26 m 1,0,-1
 326.069 1168.26 l 1,1,2
 287.681 686.132 287.681 686.132 304.064 471.385 c 0,3,4
 319.238 271.446 319.238 271.446 355.631 227.174 c 4,5,6
 402.014 168.98 402.014 168.98 482.83 168.98 c 2,7,-1
 549.08 168.98 l 1,8,-1
 549.08 0 l 1,9,-1
 526.98 0 l 2,10,11
 177.497 0 177.497 0 166.069 376.262 c 0,12,13
 152.747 823.106 152.747 823.106 185.069 1167.26 c 1,0,-1
EndSplineSet
EndChar

StartChar: uniFEA2
Encoding: 65186 65186 202
Width: 1247
VWidth: 2181
GlyphClass: 2
Flags: W
AnchorPoint: "Anchor-10" 434.146 1133 basechar 0
AnchorPoint: "Anchor-7" 207.486 -835.14 basechar 0
LayerCount: 2
Fore
SplineSet
668.099 650.438 m 1,0,1
 600.232 659.045 600.232 659.045 545.232 671.045 c 0,2,3
 483.558 684.413 483.558 684.413 423.232 685.045 c 0,4,5
 311.326 686.227 311.326 686.227 195.232 538.045 c 1,6,-1
 91.2324 618.045 l 1,7,8
 174.928 740.209 174.928 740.209 252.232 793.045 c 0,9,10
 315.352 836.186 315.352 836.186 417.232 831.045 c 0,11,12
 504.453 826.644 504.453 826.644 618.232 795.045 c 0,13,14
 783.629 750.638 783.629 750.638 949.026 706.23 c 1,15,-1
 929.909 592.348 l 5,16,17
 897.409 586.848 897.409 586.848 864.909 581.348 c 1,18,19
 967.25 168.88 967.25 168.88 1224.78 168.88 c 2,20,-1
 1266.59 168.88 l 1,21,-1
 1266.59 0 l 1,22,-1
 1248.41 0 l 2,23,24
 865.296 0 865.296 0 753.909 539.348 c 1,25,26
 216.106 335.257 216.106 335.257 233.409 -34.6094 c 0,27,28
 241.385 -203.999 241.385 -203.999 377.645 -287.944 c 0,29,30
 540.313 -388.16 540.313 -388.16 803.409 -355.609 c 0,31,32
 931.09 -339.812 931.09 -339.812 1162.23 -234.23 c 1,33,-1
 1194.95 -387.492 l 1,34,35
 1029.06 -476.651 1029.06 -476.651 868.635 -500.987 c 0,36,37
 717.252 -524.18 717.252 -524.18 600.24 -513.381 c 0,38,39
 331.359 -488.566 331.359 -488.566 196.24 -335.381 c 0,40,41
 82.0503 -205.923 82.0503 -205.923 92.4092 -13.6094 c 0,42,43
 117.819 422.923 117.819 422.923 668.099 650.438 c 1,0,1
EndSplineSet
EndChar

StartChar: uniFEA3
Encoding: 65187 65187 203
Width: 1189
VWidth: 2181
GlyphClass: 2
Flags: W
AnchorPoint: "Anchor-10" 424 1052.73 basechar 0
AnchorPoint: "Anchor-7" 619 -208.5 basechar 0
LayerCount: 2
Fore
SplineSet
594.854 118.482 m 0,0,1
 388.854 0 388.854 0 50.2549 0 c 2,2,-1
 -13.4004 0 l 1,3,-1
 -13.4004 168.98 l 1,4,-1
 21.5996 168.98 l 2,5,6
 330.775 168.98 330.775 168.98 476.854 240.482 c 0,7,8
 758.854 376.482 758.854 376.482 892.744 508.568 c 5,9,10
 812.225 514 812.225 514 660.247 587.919 c 4,11,12
 547.591 644.593 547.591 644.593 483.227 652.189 c 4,13,14
 339.2 669.189 339.2 669.189 170.077 451.189 c 5,15,-1
 66.0771 531.189 l 5,16,17
 164.69 670.406 164.69 670.406 248.077 739.189 c 4,18,19
 375.325 844.149 375.325 844.149 554.227 797.189 c 4,20,21
 654 771 654 771 810.247 685.919 c 4,22,23
 948.726 608.728 948.726 608.728 1182.85 596.482 c 5,24,-1
 1160.85 470.482 l 1,25,26
 1087.02 459.094 1087.02 459.094 1036.85 420.482 c 0,27,28
 797.045 235.914 797.045 235.914 594.854 118.482 c 0,0,1
EndSplineSet
EndChar

StartChar: uniFEA4
Encoding: 65188 65188 204
Width: 1224
VWidth: 2181
GlyphClass: 2
Flags: W
AnchorPoint: "Anchor-10" 455 1072.69 basechar 0
AnchorPoint: "Anchor-7" 623 -216.5 basechar 0
LayerCount: 2
Fore
SplineSet
847.744 508.568 m 5,0,1
 761.402 514.393 761.402 514.393 615.247 587.919 c 0,2,3
 502.591 644.593 502.591 644.593 438.227 652.189 c 0,4,5
 294.2 669.189 294.2 669.189 125.077 451.189 c 1,6,-1
 21.0771 531.189 l 1,7,8
 119.69 670.406 119.69 670.406 203.077 739.189 c 0,9,10
 330.325 844.148 330.325 844.148 509.227 797.189 c 0,11,12
 615.828 769.208 615.828 769.208 765.247 685.919 c 0,13,14
 903.726 608.729 903.726 608.729 1137.85 596.482 c 1,15,-1
 1112.85 470.482 l 1,16,17
 1039.02 459.094 1039.02 459.094 988.854 420.482 c 0,18,19
 917.775 365.776 917.775 365.776 850 316.969 c 1,20,21
 869.043 169.88 869.043 169.88 1161.32 169.88 c 2,22,-1
 1244.94 169.88 l 1,23,-1
 1244.94 0 l 1,24,-1
 1139.92 0 l 2,25,26
 795.855 0 795.855 0 724 229.415 c 1,27,28
 632.085 167.984 632.085 167.984 546.854 118.482 c 0,29,30
 340.854 0 340.854 0 32.2549 0 c 2,31,-1
 -31.4004 0 l 1,32,-1
 -31.4004 168.98 l 1,33,-1
 3.59961 168.98 l 2,34,35
 282.775 168.98 282.775 168.98 428.854 240.482 c 0,36,37
 706.217 376.244 706.217 376.244 847.744 508.568 c 5,0,1
EndSplineSet
EndChar

StartChar: uniFEAA
Encoding: 65194 65194 210
Width: 1051
VWidth: 2181
GlyphClass: 2
Flags: W
AnchorPoint: "Anchor-10" 494.99 1129.65 basechar 0
AnchorPoint: "Anchor-7" 386.5 -236 basechar 0
LayerCount: 2
Fore
SplineSet
641.912 718.399 m 5,0,-1
 791.912 772.399 l 5,1,2
 817.058 399.068 817.058 399.068 831.912 324.399 c 24,3,4
 856.227 207.015 856.227 207.015 1024.4 169.805 c 2,5,-1
 1026.32 169.38 l 1,6,-1
 1071.65 169.38 l 1,7,-1
 1071.65 0.5 l 1,8,-1
 1030.44 0.5 l 2,9,10
 871.39 0.5 871.39 0.5 780.875 121.808 c 1,11,12
 637.322 -39.668 637.322 -39.668 360.912 -24.7734 c 0,13,14
 184.065 -15.7725 184.065 -15.7725 90.1748 49.1123 c 1,15,-1
 90.1748 226.915 l 1,16,17
 245.422 140.79 245.422 140.79 378.412 140.632 c 0,18,19
 640.789 140.404 640.789 140.404 665.912 270.399 c 0,20,21
 685.537 368.781 685.537 368.781 641.912 718.399 c 5,0,-1
EndSplineSet
EndChar

StartChar: uniFEAE
Encoding: 65198 65198 214
Width: 852
VWidth: 2186
GlyphClass: 2
Flags: W
AnchorPoint: "Anchor-10" 383 818 basechar 0
AnchorPoint: "Anchor-7" 355.925 -621.55 basechar 0
LayerCount: 2
Fore
SplineSet
500.417 460.236 m 5,0,-1
 648.417 478.236 l 5,1,2
 641.481 242.477 641.481 242.477 703.509 189.136 c 0,3,4
 726.527 168.98 726.527 168.98 821.84 168.98 c 2,5,-1
 872.6 168.98 l 1,6,-1
 872.6 0.000976562 l 1,7,8
 826.802 -0.000984277 826.802 -0.000984277 826.768 0.00878906 c 2,9,10
 690.1 0.0320854 690.1 0.0320854 648.601 51.5 c 1,11,12
 561.509 -450.863 561.509 -450.863 102.417 -510.764 c 1,13,-1
 30.417 -404.764 l 1,14,15
 473.79 -314.778 473.79 -314.778 512.509 116.137 c 0,16,17
 525.016 255.909 525.016 255.909 500.417 460.236 c 5,0,-1
EndSplineSet
PairPos2: "'kern' Horizontal Kerning lookup 15-1" uniFB58 dx=70 dy=0 dh=70 dv=0 dx=0 dy=0 dh=0 dv=0
PairPos2: "'kern' Horizontal Kerning lookup 15-1" uniFEF3 dx=70 dy=0 dh=70 dv=0 dx=0 dy=0 dh=0 dv=0
PairPos2: "'kern' Horizontal Kerning lookup 15-1" uniFBFE dx=70 dy=0 dh=70 dv=0 dx=0 dy=0 dh=0 dv=0
PairPos2: "'kern' Horizontal Kerning lookup 15-1" uniFEDF dx=-150 dy=0 dh=-150 dv=0 dx=0 dy=0 dh=0 dv=0
PairPos2: "'kern' Horizontal Kerning lookup 15-1" uniFBAC dx=-150 dy=0 dh=-150 dv=0 dx=0 dy=0 dh=0 dv=0
PairPos2: "'kern' Horizontal Kerning lookup 15-1" uniFB90 dx=-150 dy=0 dh=-150 dv=0 dx=0 dy=0 dh=0 dv=0
PairPos2: "'kern' Horizontal Kerning lookup 15-1" uni06A9 dx=-150 dy=0 dh=-150 dv=0 dx=0 dy=0 dh=0 dv=0
PairPos2: "'kern' Horizontal Kerning lookup 15-1" uni0649 dx=-100 dy=0 dh=-100 dv=0 dx=0 dy=0 dh=0 dv=0
PairPos2: "'kern' Horizontal Kerning lookup 15-1" uni0647 dx=-150 dy=0 dh=-150 dv=0 dx=0 dy=0 dh=0 dv=0
PairPos2: "'kern' Horizontal Kerning lookup 15-1" uniFEE7 dx=-150 dy=0 dh=-150 dv=0 dx=0 dy=0 dh=0 dv=0
PairPos2: "'kern' Horizontal Kerning lookup 15-1" uniFEE3 dx=-150 dy=0 dh=-150 dv=0 dx=0 dy=0 dh=0 dv=0
PairPos2: "'kern' Horizontal Kerning lookup 15-1" uni0645 dx=-150 dy=0 dh=-150 dv=0 dx=0 dy=0 dh=0 dv=0
PairPos2: "'kern' Horizontal Kerning lookup 15-1" uniFEDB dx=-150 dy=0 dh=-150 dv=0 dx=0 dy=0 dh=0 dv=0
PairPos2: "'kern' Horizontal Kerning lookup 15-1" uniFED7 dx=-150 dy=0 dh=-150 dv=0 dx=0 dy=0 dh=0 dv=0
PairPos2: "'kern' Horizontal Kerning lookup 15-1" uniFED3 dx=-150 dy=0 dh=-150 dv=0 dx=0 dy=0 dh=0 dv=0
PairPos2: "'kern' Horizontal Kerning lookup 15-1" uni0641 dx=-150 dy=0 dh=-150 dv=0 dx=0 dy=0 dh=0 dv=0
PairPos2: "'kern' Horizontal Kerning lookup 15-1" uniFECF dx=-70 dy=0 dh=-70 dv=0 dx=0 dy=0 dh=0 dv=0
PairPos2: "'kern' Horizontal Kerning lookup 15-1" uniFECB dx=-70 dy=0 dh=-70 dv=0 dx=0 dy=0 dh=0 dv=0
PairPos2: "'kern' Horizontal Kerning lookup 15-1" uniFEC7 dx=-150 dy=0 dh=-150 dv=0 dx=0 dy=0 dh=0 dv=0
PairPos2: "'kern' Horizontal Kerning lookup 15-1" uni0638 dx=-150 dy=0 dh=-150 dv=0 dx=0 dy=0 dh=0 dv=0
PairPos2: "'kern' Horizontal Kerning lookup 15-1" uniFEC3 dx=-150 dy=0 dh=-150 dv=0 dx=0 dy=0 dh=0 dv=0
PairPos2: "'kern' Horizontal Kerning lookup 15-1" uni0637 dx=-150 dy=0 dh=-150 dv=0 dx=0 dy=0 dh=0 dv=0
PairPos2: "'kern' Horizontal Kerning lookup 15-1" uniFEBF dx=-150 dy=0 dh=-150 dv=0 dx=0 dy=0 dh=0 dv=0
PairPos2: "'kern' Horizontal Kerning lookup 15-1" uni0636 dx=-150 dy=0 dh=-150 dv=0 dx=0 dy=0 dh=0 dv=0
PairPos2: "'kern' Horizontal Kerning lookup 15-1" uniFEBB dx=-150 dy=0 dh=-150 dv=0 dx=0 dy=0 dh=0 dv=0
PairPos2: "'kern' Horizontal Kerning lookup 15-1" uni0635 dx=-150 dy=0 dh=-150 dv=0 dx=0 dy=0 dh=0 dv=0
PairPos2: "'kern' Horizontal Kerning lookup 15-1" uniFEB7 dx=-150 dy=0 dh=-150 dv=0 dx=0 dy=0 dh=0 dv=0
PairPos2: "'kern' Horizontal Kerning lookup 15-1" uni0634 dx=-150 dy=0 dh=-150 dv=0 dx=0 dy=0 dh=0 dv=0
PairPos2: "'kern' Horizontal Kerning lookup 15-1" uniFEB3 dx=-150 dy=0 dh=-150 dv=0 dx=0 dy=0 dh=0 dv=0
PairPos2: "'kern' Horizontal Kerning lookup 15-1" uni0633 dx=-150 dy=0 dh=-150 dv=0 dx=0 dy=0 dh=0 dv=0
PairPos2: "'kern' Horizontal Kerning lookup 15-1" uni0630 dx=-150 dy=0 dh=-150 dv=0 dx=0 dy=0 dh=0 dv=0
PairPos2: "'kern' Horizontal Kerning lookup 15-1" uni062F dx=-150 dy=0 dh=-150 dv=0 dx=0 dy=0 dh=0 dv=0
PairPos2: "'kern' Horizontal Kerning lookup 15-1" uniFEA7 dx=-70 dy=0 dh=-70 dv=0 dx=0 dy=0 dh=0 dv=0
PairPos2: "'kern' Horizontal Kerning lookup 15-1" uniFEA3 dx=-70 dy=0 dh=-70 dv=0 dx=0 dy=0 dh=0 dv=0
PairPos2: "'kern' Horizontal Kerning lookup 15-1" uniFE9F dx=-70 dy=0 dh=-70 dv=0 dx=0 dy=0 dh=0 dv=0
PairPos2: "'kern' Horizontal Kerning lookup 15-1" uniFE9B dx=-150 dy=0 dh=-150 dv=0 dx=0 dy=0 dh=0 dv=0
PairPos2: "'kern' Horizontal Kerning lookup 15-1" uni062B dx=-150 dy=0 dh=-150 dv=0 dx=0 dy=0 dh=0 dv=0
PairPos2: "'kern' Horizontal Kerning lookup 15-1" uniFE97 dx=-150 dy=0 dh=-150 dv=0 dx=0 dy=0 dh=0 dv=0
PairPos2: "'kern' Horizontal Kerning lookup 15-1" uni062A dx=-150 dy=0 dh=-150 dv=0 dx=0 dy=0 dh=0 dv=0
PairPos2: "'kern' Horizontal Kerning lookup 15-1" uni0629 dx=-150 dy=0 dh=-150 dv=0 dx=0 dy=0 dh=0 dv=0
PairPos2: "'kern' Horizontal Kerning lookup 15-1" uni0628 dx=-150 dy=0 dh=-150 dv=0 dx=0 dy=0 dh=0 dv=0
PairPos2: "'kern' Horizontal Kerning lookup 15-1" uni0627 dx=-170 dy=0 dh=-170 dv=0 dx=0 dy=0 dh=0 dv=0
PairPos2: "'kern' Horizontal Kerning lookup 15-1" uni0622 dx=-170 dy=0 dh=-170 dv=0 dx=0 dy=0 dh=0 dv=0
PairPos2: "'kern' Horizontal Kerning lookup 15-1" uniFB94 dx=-150 dy=0 dh=-150 dv=0 dx=0 dy=0 dh=0 dv=0
PairPos2: "'kern' Horizontal Kerning lookup 15-1" afii57509 dx=-150 dy=0 dh=-150 dv=0 dx=0 dy=0 dh=0 dv=0
PairPos2: "'kern' Horizontal Kerning lookup 15-1" uniFB56 dx=-150 dy=0 dh=-150 dv=0 dx=0 dy=0 dh=0 dv=0
PairPos2: "'kern' Horizontal Kerning lookup 15-1" afii57506 dx=-150 dy=0 dh=-150 dv=0 dx=0 dy=0 dh=0 dv=0
EndChar

StartChar: uniFEB2
Encoding: 65202 65202 218
Width: 2380
VWidth: 2186
GlyphClass: 2
Flags: W
AnchorPoint: "Anchor-10" 601 881.5 basechar 0
AnchorPoint: "Anchor-7" 436 -701.5 basechar 0
LayerCount: 2
Fore
SplineSet
2083.33 120.093 m 1,0,1
 2004.24 -1 2004.24 -1 1848.24 -1 c 1,2,3
 1679.92 -15.748 1679.92 -15.748 1625.7 50.2031 c 0,4,5
 1587.02 97.4844 1587.02 97.4844 1577.2 143.162 c 1,6,7
 1532.66 1.55995 1532.66 1.55995 1385.27 0 c 24,8,9
 1263.1 -1.29297 1263.1 -1.29297 1230.64 67.0156 c 1,10,11
 1216.24 -161.836 1216.24 -161.836 1109.3 -294.862 c 0,12,13
 977.926 -458.282 977.926 -458.282 677.83 -469.999 c 0,14,15
 418.515 -480.217 418.515 -480.217 275.577 -386.987 c 0,16,17
 81.0029 -260.078 81.0029 -260.078 90.5771 -16.9873 c 0,18,19
 103.024 299.039 103.024 299.039 355.065 553.479 c 1,20,-1
 463.065 472.955 l 1,21,22
 116.598 29.1074 116.598 29.1074 311.829 -206.475 c 0,23,24
 404.477 -318.883 404.477 -318.883 683.032 -316.814 c 0,25,26
 1075.69 -313.949 1075.69 -313.949 1094.06 39.4766 c 0,27,28
 1107.68 304.615 1107.68 304.615 1078.07 411.477 c 1,29,-1
 1230.06 489.477 l 1,30,31
 1225.88 297.41 1225.88 297.41 1241.74 244.125 c 1,32,33
 1257.47 160.751 1257.47 160.751 1382.22 162.493 c 24,34,35
 1480.47 164.65 1480.47 164.65 1536.09 295.127 c 2,36,-1
 1612.11 473.447 l 1,37,-1
 1719.07 473.447 l 1,38,-1
 1692.01 317.189 l 2,39,40
 1661.29 139.798 1661.29 139.798 1840.06 157.633 c 17,41,42
 1887.3 157.633 1887.3 157.633 1922.52 182.191 c 0,43,44
 2086.43 294.902 2086.43 294.902 1984.73 520.323 c 1,45,-1
 2102.73 580.323 l 1,46,47
 2162.73 485.496 2162.73 485.496 2151.02 313.5 c 1,48,49
 2142.47 243.111 2142.47 243.111 2221.16 198.707 c 0,50,51
 2273.13 169.38 2273.13 169.38 2367.46 169.38 c 2,52,-1
 2399.33 169.38 l 1,53,-1
 2399.33 0.5 l 1,54,-1
 2338.92 0.5 l 2,55,56
 2151.02 0.5 2151.02 0.5 2083.33 120.093 c 1,0,1
EndSplineSet
EndChar

StartChar: uniFEB3
Encoding: 65203 65203 219
Width: 1512
VWidth: 2186
GlyphClass: 2
Flags: W
AnchorPoint: "Anchor-10" 652.5 953.5 basechar 0
AnchorPoint: "Anchor-7" 672.5 -190 basechar 0
LayerCount: 2
Fore
SplineSet
1081.89 158.633 m 21,0,1
 1124.49 158.633 1124.49 158.633 1164.35 183.191 c 0,2,3
 1347.25 295.902 1347.25 295.902 1197.76 643.77 c 1,4,-1
 1315.76 703.77 l 1,5,6
 1463.1 382.002 1463.1 382.002 1343.07 151.955 c 0,7,8
 1264.82 0 1264.82 0 1090.07 0 c 1,9,10
 929.655 -15.7432 929.655 -15.7432 875.889 50.209 c 0,11,12
 837.205 97.4902 837.205 97.4902 827.389 143.168 c 1,13,14
 787.663 16.7764 787.663 16.7764 600.457 0.00585938 c 0,15,16
 332.389 -24.832 332.389 -24.832 296.832 133.92 c 1,17,18
 228.841 0 228.841 0 34.3887 0 c 2,19,-1
 -3.40039 0 l 1,20,-1
 -3.40039 168.98 l 1,21,-1
 15.8496 168.98 l 2,22,23
 185.46 168.985 185.46 168.985 255.557 368.246 c 2,24,-1
 295.381 481.453 l 1,25,-1
 417.258 481.453 l 1,26,-1
 392.195 368.333 l 2,27,28
 347.235 165.405 347.235 165.405 597.408 162.499 c 0,29,30
 729.083 160.964 729.083 160.964 786.28 295.133 c 2,31,-1
 862.3 473.453 l 1,32,-1
 969.26 473.453 l 1,33,-1
 942.199 317.195 l 2,34,35
 911.461 139.702 911.461 139.702 1081.89 158.633 c 21,0,1
EndSplineSet
EndChar

StartChar: uniFEB4
Encoding: 65204 65204 220
Width: 1652
VWidth: 2186
GlyphClass: 2
Flags: W
AnchorPoint: "Anchor-10" 720.5 948.5 basechar 0
AnchorPoint: "Anchor-7" 780.5 -210 basechar 0
LayerCount: 2
Fore
SplineSet
1394.26 326.5 m 5,0,1
 1422.81 200.987 1422.81 200.987 1538.68 180 c 0,2,3
 1594.05 169.88 1594.05 169.88 1621.45 169.88 c 2,4,-1
 1673.64 169.88 l 1,5,-1
 1673.64 0 l 1,6,-1
 1576.66 0 l 2,7,8
 1403.08 0 1403.08 0 1336.68 141 c 1,9,10
 1264.08 0 1264.08 0 1090.07 0 c 1,11,12
 929.655 -15.7432 929.655 -15.7432 875.889 50.209 c 0,13,14
 837.205 97.4902 837.205 97.4902 827.389 143.168 c 1,15,16
 787.663 16.7764 787.663 16.7764 600.457 0.00585938 c 0,17,18
 332.389 -24.832 332.389 -24.832 296.832 133.92 c 1,19,20
 228.841 0 228.841 0 34.3887 0 c 2,21,-1
 -3.40039 0 l 1,22,-1
 -3.40039 168.98 l 1,23,-1
 15.8496 168.98 l 2,24,25
 185.46 168.985 185.46 168.985 255.557 368.246 c 2,26,-1
 295.381 481.453 l 1,27,-1
 417.258 481.453 l 1,28,-1
 392.195 368.333 l 2,29,30
 347.235 165.405 347.235 165.405 597.408 162.499 c 0,31,32
 729.083 160.964 729.083 160.964 786.28 295.133 c 2,33,-1
 862.3 473.453 l 1,34,-1
 969.26 473.453 l 1,35,-1
 942.199 317.195 l 2,36,37
 911.461 139.702 911.461 139.702 1081.89 158.633 c 17,38,39
 1124.49 158.633 1124.49 158.633 1164.35 183.191 c 0,40,41
 1308.64 272.107 1308.64 272.107 1234.12 526.322 c 1,42,-1
 1352.12 586.322 l 1,43,44
 1393.12 472.955 1393.12 472.955 1394.26 326.5 c 5,0,1
EndSplineSet
EndChar

StartChar: uniFEBA
Encoding: 65210 65210 226
Width: 2473
VWidth: 2181
GlyphClass: 2
Flags: W
AnchorPoint: "Anchor-10" 628 981.5 basechar 0
AnchorPoint: "Anchor-7" 415 -673.5 basechar 0
LayerCount: 2
Fore
SplineSet
1452.96 180.009 m 1,0,-1
 1631.74 180.009 l 2,1,2
 1858.98 180.009 1858.98 180.009 1968.67 223 c 0,3,4
 2082.14 267.445 2082.14 267.445 2100.84 354.341 c 1,5,6
 2108.89 417.125 2108.89 417.125 2078.91 471.913 c 128,-1,7
 2048.92 526.7 2048.92 526.7 1964.1 531.102 c 0,8,9
 1883.02 535.309 1883.02 535.309 1754.92 460.7 c 0,10,11
 1589.31 348.635 1589.31 348.635 1452.96 180.009 c 1,0,-1
2143.17 130.37 m 1,12,13
 2129 118.609 2129 118.609 2113.14 107.445 c 0,14,15
 1961.58 0 1961.58 0 1689.52 0 c 0,16,-1
 1386.92 0 l 2,17,18
 1297.03 0 1297.03 0 1249.07 62.75 c 1,19,-1
 1231.64 63.0156 l 1,20,21
 1217.53 -161.48 1217.53 -161.48 1110.3 -294.862 c 0,22,23
 978.926 -458.282 978.926 -458.282 678.83 -469.999 c 0,24,25
 419.515 -480.217 419.515 -480.217 276.577 -386.987 c 0,26,27
 82.0029 -260.078 82.0029 -260.078 91.5771 -16.9873 c 0,28,29
 104.024 299.039 104.024 299.039 356.065 553.479 c 1,30,-1
 464.065 472.955 l 1,31,32
 117.598 29.1074 117.598 29.1074 312.829 -206.475 c 0,33,34
 405.477 -318.883 405.477 -318.883 684.032 -316.814 c 0,35,36
 1076.69 -313.949 1076.69 -313.949 1095.06 39.4766 c 0,37,38
 1108.68 304.615 1108.68 304.615 1079.07 411.477 c 1,39,-1
 1231.06 489.477 l 1,40,41
 1226.88 297.41 1226.88 297.41 1240.07 246 c 1,42,43
 1259.17 222 1259.17 222 1311.63 228.834 c 1,44,45
 1531 545.817 1531 545.817 1782.14 658.444 c 0,46,47
 1982.11 748.378 1982.11 748.378 2122.92 663.7 c 0,48,49
 2290.92 562.68 2290.92 562.68 2259.62 329 c 0,50,51
 2255.53 298.073 2255.53 298.073 2245.16 269.37 c 1,52,53
 2325.16 168.881 2325.16 168.881 2452.25 168.881 c 2,54,-1
 2495.54 168.881 l 1,55,-1
 2495.54 0 l 1,56,-1
 2430.85 0 l 2,57,58
 2204.36 0 2204.36 0 2143.17 130.37 c 1,12,13
EndSplineSet
EndChar

StartChar: uniFEBB
Encoding: 65211 65211 227
Width: 1583
VWidth: 2181
GlyphClass: 2
Flags: W
AnchorPoint: "Anchor-10" 548.3 1069.8 basechar 0
AnchorPoint: "Anchor-7" 667.3 -253 basechar 0
LayerCount: 2
Fore
SplineSet
693.604 180.009 m 5,0,-1
 872.379 180.009 l 6,1,2
 1099.62 180.009 1099.62 180.009 1209.31 223 c 4,3,4
 1322.78 267.445 1322.78 267.445 1341.48 354.341 c 5,5,6
 1349.53 417.125 1349.53 417.125 1319.55 471.913 c 132,-1,7
 1289.57 526.699 1289.57 526.699 1204.74 531.102 c 4,8,9
 1123.67 535.309 1123.67 535.309 995.567 460.7 c 4,10,11
 829.955 348.635 829.955 348.635 693.604 180.009 c 5,0,-1
552.273 228.834 m 5,12,13
 771.647 545.816 771.647 545.816 1022.79 658.443 c 4,14,15
 1222.75 748.377 1222.75 748.377 1363.57 663.699 c 4,16,17
 1531.56 562.68 1531.56 562.68 1500.26 329 c 4,18,19
 1482.97 198.383 1482.97 198.383 1353.78 107.445 c 4,20,21
 1202.22 0 1202.22 0 930.162 0 c 4,22,-1
 627.567 0 l 6,23,24
 441.297 0 441.297 0 346 156.189 c 5,25,26
 230.564 0 230.564 0 60.9902 0 c 6,27,-1
 -20.4004 0 l 5,28,-1
 -20.4004 168.98 l 5,29,-1
 2.13965 168.98 l 6,30,31
 116.95 168.98 116.95 168.98 172 212.189 c 4,32,33
 203.253 236.727 203.253 236.727 270.212 385.366 c 6,34,-1
 310.608 475.04 l 5,35,-1
 457.008 475.04 l 5,36,-1
 428.526 364.189 l 6,37,38
 400.197 253.933 400.197 253.933 552.273 228.834 c 5,12,13
EndSplineSet
EndChar

StartChar: uniFEBC
Encoding: 65212 65212 228
Width: 1711
VWidth: 2181
GlyphClass: 2
Flags: W
AnchorPoint: "Anchor-10" 580.5 1134.5 basechar 0
AnchorPoint: "Anchor-7" 666.5 -260 basechar 0
LayerCount: 2
Fore
SplineSet
693.604 180.009 m 1,0,-1
 872.379 180.009 l 2,1,2
 1099.62 180.009 1099.62 180.009 1209.31 223 c 0,3,4
 1322.78 267.445 1322.78 267.445 1341.48 354.341 c 1,5,6
 1349.53 417.125 1349.53 417.125 1319.55 471.913 c 128,-1,7
 1289.57 526.699 1289.57 526.699 1204.74 531.102 c 0,8,9
 1123.67 535.309 1123.67 535.309 995.567 460.7 c 0,10,11
 829.955 348.635 829.955 348.635 693.604 180.009 c 1,0,-1
1382.3 129.122 m 5,12,13
 1368.8 118.016 1368.8 118.016 1353.78 107.445 c 0,14,15
 1202.22 0 1202.22 0 930.162 0 c 0,16,-1
 627.567 0 l 2,17,18
 441.297 0 441.297 0 346 156.189 c 1,19,20
 230.564 0 230.564 0 60.9902 0 c 2,21,-1
 -20.4004 0 l 1,22,-1
 -20.4004 168.98 l 1,23,-1
 2.13965 168.98 l 2,24,25
 116.95 168.98 116.95 168.98 172 212.189 c 0,26,27
 203.253 236.727 203.253 236.727 270.212 385.366 c 2,28,-1
 310.608 475.04 l 1,29,-1
 457.008 475.04 l 1,30,-1
 428.526 364.189 l 2,31,32
 400.197 253.933 400.197 253.933 552.273 228.834 c 1,33,34
 771.647 545.816 771.647 545.816 1022.79 658.443 c 0,35,36
 1222.75 748.377 1222.75 748.377 1363.57 663.699 c 0,37,38
 1531.56 562.68 1531.56 562.68 1500.26 329 c 0,39,40
 1496.18 298.119 1496.18 298.119 1485.83 269.455 c 1,41,42
 1565.5 169.38 1565.5 169.38 1691.51 169.38 c 2,43,-1
 1734.8 169.38 l 1,44,-1
 1734.8 0.5 l 1,45,-1
 1670.11 0.5 l 2,46,47
 1442.66 0.5 1442.66 0.5 1382.3 129.122 c 5,12,13
EndSplineSet
EndChar

StartChar: uniFEC2
Encoding: 65218 65218 234
Width: 1530
VWidth: 2181
GlyphClass: 2
Flags: W
AnchorPoint: "Anchor-7" 711.13 -225 basechar 0
AnchorPoint: "Anchor-10" 317.67 1363.79 basechar 0
LayerCount: 2
Fore
SplineSet
537.34 180.009 m 1,0,-1
 716.115 180.009 l 2,1,2
 943.357 180.009 943.357 180.009 1053.05 223 c 0,3,4
 1166.52 267.445 1166.52 267.445 1185.22 354.341 c 1,5,6
 1193.27 417.125 1193.27 417.125 1163.29 471.913 c 128,-1,7
 1133.3 526.7 1133.3 526.7 1048.48 531.102 c 0,8,9
 967.402 535.309 967.402 535.309 839.304 460.7 c 0,10,11
 673.69 348.635 673.69 348.635 537.34 180.009 c 1,0,-1
1213.16 118.911 m 1,12,13
 1205.55 113.102 1205.55 113.102 1197.52 107.445 c 0,14,15
 1045.96 0 1045.96 0 773.898 0 c 0,16,-1
 561.304 0 l 2,17,18
 440.436 0 440.436 0 364.304 79.7002 c 1,19,20
 326.047 0 326.047 0 170.304 0 c 2,21,-1
 91.75 0 l 1,22,-1
 91.75 168.979 l 1,23,-1
 268.28 168.98 l 1,24,25
 231.23 305.664 231.23 305.664 229.304 702.7 c 0,26,27
 228.142 1028.5 228.142 1028.5 258.304 1170 c 5,28,-1
 395.304 1169 l 5,29,30
 366.325 930.939 366.325 930.939 366.304 730.999 c 0,31,32
 366.269 407.043 366.269 407.043 396.01 228.834 c 1,33,34
 615.384 545.816 615.384 545.816 866.523 658.444 c 0,35,36
 1066.49 748.378 1066.49 748.378 1207.3 663.7 c 0,37,38
 1375.29 562.68 1375.29 562.68 1344 329 c 0,39,40
 1338.94 290.755 1338.94 290.755 1324.28 255.911 c 1,41,42
 1393.16 169.38 1393.16 169.38 1518.51 169.38 c 2,43,-1
 1549.8 169.38 l 1,44,-1
 1549.8 0.5 l 1,45,-1
 1497.11 0.5 l 2,46,47
 1268.73 0.5 1268.73 0.5 1213.16 118.911 c 1,12,13
EndSplineSet
EndChar

StartChar: uniFEC3
Encoding: 65219 65219 235
Width: 1446
VWidth: 2181
GlyphClass: 2
Flags: W
AnchorPoint: "Anchor-10" 283.57 1365.47 basechar 0
AnchorPoint: "Anchor-7" 536.57 -238 basechar 0
LayerCount: 2
Fore
SplineSet
486.34 180.009 m 1,0,-1
 665.115 180.009 l 2,1,2
 892.357 180.009 892.357 180.009 1002.05 223 c 0,3,4
 1115.52 267.445 1115.52 267.445 1134.22 354.341 c 1,5,6
 1142.27 417.125 1142.27 417.125 1112.29 471.913 c 128,-1,7
 1082.3 526.7 1082.3 526.7 997.48 531.102 c 0,8,9
 916.402 535.309 916.402 535.309 788.304 460.7 c 0,10,11
 622.691 348.635 622.691 348.635 486.34 180.009 c 1,0,-1
722.898 0 m 0,12,-1
 510.304 0 l 2,13,14
 389.436 0 389.436 0 313.304 79.7002 c 1,15,16
 275.047 0 275.047 0 52.3036 0 c 2,17,-1
 -26.25 0 l 1,18,-1
 -26.25 168.979 l 1,19,-1
 217.28 168.98 l 1,20,21
 180.23 305.664 180.23 305.664 178.304 702.7 c 0,22,23
 177.142 1028.5 177.142 1028.5 207.304 1170 c 1,24,-1
 344.304 1169 l 1,25,26
 317.582 930.924 317.582 930.924 315.304 730.999 c 0,27,28
 311.779 427.999 311.779 427.999 345.01 228.834 c 1,29,30
 564.384 545.817 564.384 545.817 815.523 658.444 c 0,31,32
 1015.49 748.378 1015.49 748.378 1156.3 663.7 c 0,33,34
 1324.48 564.08 1324.48 564.08 1293 329 c 0,35,36
 1275.71 198.383 1275.71 198.383 1146.52 107.445 c 0,37,38
 994.96 0 994.96 0 722.898 0 c 0,12,-1
EndSplineSet
EndChar

StartChar: uniFEC4
Encoding: 65220 65220 236
Width: 1479
VWidth: 2181
GlyphClass: 2
Flags: W
AnchorPoint: "Anchor-10" 289.57 1333.47 basechar 0
AnchorPoint: "Anchor-7" 547.73 -210 basechar 0
LayerCount: 2
Fore
SplineSet
486.34 180.009 m 1,0,-1
 665.115 180.009 l 2,1,2
 892.357 180.009 892.357 180.009 1002.05 223 c 0,3,4
 1115.52 267.445 1115.52 267.445 1134.22 354.341 c 1,5,6
 1142.27 417.125 1142.27 417.125 1112.29 471.913 c 128,-1,7
 1082.3 526.7 1082.3 526.7 997.48 531.102 c 0,8,9
 916.402 535.309 916.402 535.309 788.304 460.7 c 0,10,11
 622.691 348.635 622.691 348.635 486.34 180.009 c 1,0,-1
1162.16 118.911 m 1,12,13
 1154.55 113.101 1154.55 113.101 1146.52 107.445 c 0,14,15
 994.96 0 994.96 0 722.898 0 c 0,16,-1
 510.304 0 l 2,17,18
 389.436 0 389.436 0 313.304 79.7002 c 1,19,20
 275.047 0 275.047 0 52.3036 0 c 2,21,-1
 -26.25 0 l 1,22,-1
 -26.25 168.979 l 1,23,-1
 217.28 168.98 l 1,24,25
 179.723 305.664 179.723 305.664 178.304 598.7 c 4,26,27
 176.723 924.5 176.723 924.5 207.304 1169 c 5,28,-1
 344.304 1168 l 5,29,30
 315.311 690.38 315.311 690.38 315.304 626.999 c 4,31,32
 315.268 303.043 315.268 303.043 345.01 228.834 c 1,33,34
 564.384 545.817 564.384 545.817 815.523 658.444 c 0,35,36
 1015.49 748.378 1015.49 748.378 1156.3 663.7 c 0,37,38
 1324.29 562.68 1324.29 562.68 1293 329 c 0,39,40
 1287.94 290.755 1287.94 290.755 1273.28 255.911 c 1,41,42
 1342.16 169.38 1342.16 169.38 1467.51 169.38 c 2,43,-1
 1498.8 169.38 l 1,44,-1
 1498.8 0.5 l 1,45,-1
 1446.11 0.5 l 2,46,47
 1217.73 0.5 1217.73 0.5 1162.16 118.911 c 1,12,13
EndSplineSet
EndChar

StartChar: uniFECA
Encoding: 65226 65226 242
Width: 1263
VWidth: 2181
GlyphClass: 2
Flags: W
AnchorPoint: "Anchor-10" 487 1133.05 basechar 0
AnchorPoint: "Anchor-7" 351.69 -765.64 basechar 0
LayerCount: 2
Fore
SplineSet
572.401 735.293 m 0,0,1
 535.399 735.293 535.399 735.293 484.701 731.477 c 0,2,3
 346.462 721.066 346.462 721.066 360.401 646.629 c 0,4,5
 367.73 611.184 367.73 611.184 447.821 549.793 c 0,6,7
 555.231 468.575 555.231 468.575 568.894 474.78 c 1,8,9
 650.821 518.293 650.821 518.293 703.46 566.281 c 128,-1,10
 756.099 614.27 756.099 614.27 756.099 647.299 c 0,11,12
 756.099 721.283 756.099 721.283 661.709 731.535 c 0,13,14
 627.105 735.293 627.105 735.293 572.401 735.293 c 0,0,1
681.401 395.47 m 1,15,16
 932.66 169.38 932.66 169.38 1158.5 169.38 c 2,17,-1
 1288.7 169.38 l 1,18,-1
 1288.7 0.5 l 1,19,-1
 1255.62 0.5 l 2,20,21
 859.169 0.5 859.169 0.5 563.992 301 c 5,22,23
 244.195 154.164 244.195 154.164 234 -139.53 c 4,24,25
 228.66 -295.746 228.66 -295.746 357.404 -385.989 c 4,26,27
 490 -479.53 490 -479.53 724 -457.53 c 4,28,29
 916.696 -440.845 916.696 -440.845 1141.99 -332.275 c 5,30,-1
 1174.71 -485.537 l 5,31,32
 1008.82 -574.696 1008.82 -574.696 848.395 -599.032 c 4,33,34
 697.012 -622.224 697.012 -622.224 580 -611.426 c 4,35,36
 299.497 -586.82 299.497 -586.82 176 -433.426 c 4,37,38
 74.9909 -308.276 74.9909 -308.276 91.3945 -98.0322 c 4,39,40
 110.86 162.729 110.86 162.729 450.821 397.834 c 5,41,42
 368.076 442.669 368.076 442.669 286.812 520.473 c 0,43,44
 201.128 602.809 201.128 602.809 207.09 678.762 c 0,45,46
 213.728 764.996 213.728 764.996 346.09 830.762 c 0,47,48
 471.397 892.705 471.397 892.705 643.401 876.293 c 0,49,50
 828.014 859.584 828.014 859.584 882.401 756.471 c 0,51,52
 912.782 697.609 912.782 697.609 895.401 640.471 c 0,53,54
 856.391 514.764 856.391 514.764 681.401 395.47 c 1,15,16
EndSplineSet
EndChar

StartChar: uniFECB
Encoding: 65227 65227 243
Width: 1039
VWidth: 2181
GlyphClass: 2
Flags: W
AnchorPoint: "Anchor-10" 373.265 1216.23 basechar 0
AnchorPoint: "Anchor-7" 498.6 -245.5 basechar 0
LayerCount: 2
Fore
SplineSet
20.3301 168.98 m 2,0,1
 57.7002 168.98 57.7002 168.98 57.7002 164.402 c 2,2,-1
 218.7 168.402 l 5,3,4
 150.922 237.794 150.922 237.794 158.65 340.367 c 4,5,6
 174.471 529.978 174.471 529.978 321.65 686.367 c 0,7,8
 578.45 959.235 578.45 959.235 791.201 753.658 c 0,9,10
 825.214 720.625 825.214 720.625 853.701 637.402 c 0,11,12
 872.833 581.512 872.833 581.512 874.7 499.402 c 1,13,-1
 769.7 502.402 l 1,14,15
 731.827 722.112 731.827 722.112 585.7 690.402 c 0,16,17
 415.354 653.438 415.354 653.438 335.65 460.367 c 0,18,19
 237.307 220.28 237.307 220.28 485.7 182 c 0,20,21
 618.239 161.574 618.239 161.574 819.65 240.801 c 0,22,23
 913.094 277.558 913.094 277.558 959.7 308.402 c 1,24,-1
 1007.7 178.402 l 1,25,26
 782.885 0 782.885 0 84.5 0 c 2,27,-1
 -18.4004 0 l 1,28,-1
 -18.4004 168.98 l 1,29,-1
 20.3301 168.98 l 2,0,1
EndSplineSet
EndChar

StartChar: uniFECC
Encoding: 65228 65228 244
Width: 1097
VWidth: 2181
GlyphClass: 2
Flags: W
AnchorPoint: "Anchor-10" 488.58 1068.5 basechar 0
AnchorPoint: "Anchor-7" 524.58 -200.5 basechar 0
LayerCount: 2
Fore
SplineSet
552.58 599.764 m 4,0,1
 515.578 599.764 515.578 599.764 464.88 595.946 c 4,2,3
 326.64 585.537 326.64 585.537 340.58 511.099 c 4,4,5
 347.909 475.654 347.909 475.654 428 414.263 c 4,6,7
 535.41 333.046 535.41 333.046 549.072 339.251 c 5,8,9
 631 382.763 631 382.763 683.639 430.752 c 132,-1,10
 736.277 478.74 736.277 478.74 736.277 511.77 c 4,11,12
 736.277 585.755 736.277 585.755 641.888 596.006 c 4,13,14
 607.284 599.764 607.284 599.764 552.58 599.764 c 4,0,1
661.58 259.941 m 5,15,16
 807.579 168.418 807.579 168.418 991.862 168.98 c 2,17,-1
 1115.56 169.357 l 1,18,-1
 1115.56 0.5 l 1,19,-1
 968.3 0.5 l 2,20,21
 717.808 0.500021 717.808 0.500021 549.53 161.022 c 2,22,-1
 546.08 164.313 l 1,23,-1
 542.629 161.022 l 2,24,25
 373.779 0 373.779 0 120.86 0 c 2,26,-1
 -17.4004 0 l 1,27,-1
 -17.4004 168.98 l 1,28,-1
 97.3203 168.98 l 2,29,30
 321.58 168.98 321.58 168.98 431 262.305 c 5,31,32
 348.255 307.14 348.255 307.14 266.99 384.942 c 4,33,34
 181.306 467.278 181.306 467.278 187.269 543.231 c 4,35,36
 193.907 629.466 193.907 629.466 326.269 695.231 c 4,37,38
 451.576 757.175 451.576 757.175 623.58 740.764 c 4,39,40
 808.192 724.055 808.192 724.055 862.58 620.941 c 4,41,42
 892.961 562.08 892.961 562.08 875.58 504.941 c 4,43,44
 836.569 379.234 836.569 379.234 661.58 259.941 c 5,15,16
EndSplineSet
EndChar

StartChar: uniFEDA
Encoding: 65242 65242 258
Width: 1840
VWidth: 2181
GlyphClass: 2
Flags: W
AnchorPoint: "Anchor-10" 539 1367.5 basechar 0
AnchorPoint: "Anchor-7" 570 -228.5 basechar 0
LayerCount: 2
Fore
SplineSet
1044.77 1181.06 m 1,0,-1
 1044.77 1129.12 l 1,1,2
 975.084 1123.99 975.084 1123.99 936.614 1109.81 c 0,3,4
 839.33 1073.34 839.33 1073.34 839.33 1025.55 c 0,5,6
 839.33 989.411 839.33 989.411 858.004 965.402 c 0,7,8
 875.196 942.479 875.196 942.479 955.292 930.699 c 0,9,10
 1004.69 923.436 1004.69 923.436 1029.62 900.664 c 0,11,12
 1054.05 878.351 1054.05 878.351 1054.05 838.298 c 0,13,14
 1054.05 742.199 1054.05 742.199 964.839 691.751 c 0,15,16
 895.97 652.804 895.97 652.804 801.689 651.929 c 0,17,18
 741.751 651.929 741.751 651.929 689.148 660.715 c 1,19,-1
 689.148 719.167 l 1,20,21
 749.907 711.158 749.907 711.158 792.059 711.158 c 0,22,23
 866.867 711.158 866.867 711.158 915.098 730.146 c 0,24,25
 999.45 762.542 999.45 762.542 999.45 816.898 c 0,26,27
 999.45 877.435 999.45 877.435 901.515 893.393 c 0,28,29
 844.717 902.048 844.717 902.048 813.966 933.498 c 128,-1,30
 783.138 965.029 783.138 965.029 784.373 1021.9 c 0,31,32
 786.251 1097.81 786.251 1097.81 856.895 1133.61 c 0,33,34
 937.2 1174.24 937.2 1174.24 1044.77 1181.06 c 1,0,-1
1605.64 252.5 m 5,35,36
 1667.14 169.38 1667.14 169.38 1795.97 169.38 c 2,37,-1
 1860.22 169.38 l 1,38,-1
 1860.22 0.5 l 1,39,-1
 1737.12 0.5 l 2,40,41
 1606.04 0.5 1606.04 0.5 1490.29 123.093 c 1,42,43
 1423.05 76.3517 1423.05 76.3517 1326.15 46.2764 c 0,44,45
 1189.35 3.81784 1189.35 3.81784 873.041 2 c 24,46,47
 520.854 -0.0240258 520.854 -0.0240258 337.839 80.8037 c 0,48,49
 108.441 183.356 108.441 183.356 94.3193 419.902 c 0,50,51
 82.3195 620.902 82.3195 620.902 220.604 798.863 c 1,52,-1
 349.319 764.902 l 1,53,54
 231.056 604.152 231.056 604.152 238.319 437.902 c 0,55,56
 247.28 231.95 247.28 231.95 561.779 183.378 c 0,57,58
 638.355 171.572 638.355 171.572 807.097 171.017 c 17,59,60
 1009.18 163.795 1009.18 163.795 1131.14 176.459 c 0,61,62
 1494.12 214.145 1494.12 214.145 1511.61 381.05 c 2,63,-1
 1517.4 436.293 l 1,64,-1
 1517.43 436.553 l 1,65,66
 1521.42 455.675 1521.42 455.675 1523.33 736.404 c 0,67,68
 1525.56 1008.91 1525.56 1008.91 1489.33 1269.71 c 1,69,-1
 1628.3 1271.96 l 1,70,71
 1651.9 1143.4 1651.9 1143.4 1662.33 701.404 c 0,72,73
 1666.26 543.238 1666.26 543.238 1638.01 356 c 0,74,75
 1629.51 299.932 1629.51 299.932 1605.64 252.5 c 5,35,36
EndSplineSet
EndChar

StartChar: uniFEDB
Encoding: 65243 65243 259
Width: 831
VWidth: 2181
GlyphClass: 2
Flags: W
AnchorPoint: "Anchor-10" 249.5 1324 basechar 0
AnchorPoint: "Anchor-7" 356 -230 basechar 0
LayerCount: 2
Fore
SplineSet
288.7 0 m 2,0,-1
 -20.4004 0 l 5,1,-1
 -20.4004 168.98 l 5,2,-1
 247.371 169.004 l 2,3,4
 570.103 169.032 570.103 169.032 587.425 291.991 c 0,5,6
 604.56 413.938 604.56 413.938 519.425 488.991 c 0,7,8
 275.169 705.2 275.169 705.2 144.417 750.224 c 0,9,10
 77.5918 772.68 77.5918 772.68 68.5078 878.462 c 0,11,12
 60.1797 981.759 60.1797 981.759 168.665 1073.92 c 0,13,14
 265.197 1155.93 265.197 1155.93 416.425 1236.99 c 0,15,16
 605.61 1338.4 605.61 1338.4 817.25 1399.09 c 1,17,-1
 817.25 1239.42 l 1,18,19
 712.851 1222.04 712.851 1222.04 506.425 1125.99 c 0,20,21
 332.104 1045.76 332.104 1045.76 204.729 918.91 c 1,22,23
 593.598 717.756 593.598 717.756 711.425 483.991 c 0,24,25
 751.775 403.938 751.775 403.938 735.425 270.991 c 0,26,27
 716.955 111.784 716.955 111.784 543.425 33.9912 c 0,28,29
 467.602 0 467.602 0 288.7 0 c 2,0,-1
EndSplineSet
EndChar

StartChar: uniFEDC
Encoding: 65244 65244 260
Width: 926
VWidth: 2181
GlyphClass: 2
Flags: W
AnchorPoint: "Anchor-10" 254.945 1239.35 basechar 0
AnchorPoint: "Anchor-7" 367.488 -216.768 basechar 0
LayerCount: 2
Fore
SplineSet
647.148 103.232 m 1,0,1
 604.935 65.0273 604.935 65.0273 542.913 37.2236 c 0,2,3
 467.09 3.23242 467.09 3.23242 288.188 3.23242 c 2,4,-1
 -20.9131 3.23242 l 5,5,-1
 -20.9131 172.212 l 5,6,-1
 246.858 172.236 l 2,7,8
 569.592 172.266 569.592 172.266 586.913 295.223 c 0,9,10
 604.048 417.17 604.048 417.17 518.913 492.223 c 0,11,12
 274.656 708.432 274.656 708.432 143.904 753.456 c 0,13,14
 77.0791 775.912 77.0791 775.912 67.9951 881.694 c 0,15,16
 59.667 984.991 59.667 984.991 168.152 1077.15 c 0,17,18
 264.685 1159.16 264.685 1159.16 415.913 1240.22 c 0,19,20
 605.098 1341.63 605.098 1341.63 816.737 1402.32 c 1,21,-1
 816.737 1242.65 l 1,22,23
 712.339 1225.27 712.339 1225.27 505.913 1129.22 c 0,24,25
 331.592 1048.99 331.592 1048.99 204.217 922.142 c 1,26,27
 593.086 720.988 593.086 720.988 710.913 487.223 c 0,28,29
 754.042 401.655 754.042 401.655 734.913 274.223 c 0,30,31
 732.238 256.41 732.238 256.41 725.923 224.464 c 1,32,33
 791.74 172.112 791.74 172.112 882.663 172.112 c 2,34,-1
 943.913 172.112 l 1,35,-1
 943.913 3.23242 l 1,36,-1
 896.812 3.23242 l 2,37,38
 722.94 3.23242 722.94 3.23242 647.148 103.232 c 1,0,1
EndSplineSet
EndChar

StartChar: uniFEDE
Encoding: 65246 65246 262
Width: 1506
VWidth: 2186
GlyphClass: 2
Flags: W
AnchorPoint: "Anchor-10" 558.5 952.5 basechar 0
AnchorPoint: "Anchor-7" 376.974 -774.619 basechar 0
LayerCount: 2
Fore
SplineSet
1288.67 398.751 m 1,0,1
 1288.67 283.042 1288.67 283.042 1349.98 221.732 c 0,2,3
 1402.34 169.38 1402.34 169.38 1451.72 169.38 c 2,4,-1
 1512.97 169.38 l 1,5,-1
 1512.97 0.5 l 1,6,-1
 1465.87 0.5 l 2,7,8
 1323.87 0.5 1323.87 0.5 1256.16 110.751 c 1,9,10
 1253.69 73.0182 1253.69 73.0182 1241.05 0 c 0,11,12
 1205.52 -201.604 1205.52 -201.604 1108.3 -301.862 c 4,13,14
 955.984 -459.037 955.984 -459.037 678.83 -469.999 c 0,15,16
 419.515 -480.217 419.515 -480.217 276.577 -386.987 c 0,17,18
 82.0029 -260.078 82.0029 -260.078 91.5771 -16.9873 c 0,19,20
 104.024 299.04 104.024 299.04 356.065 553.479 c 1,21,-1
 464.065 472.955 l 1,22,23
 117.598 29.1074 117.598 29.1074 312.829 -206.475 c 0,24,25
 405.477 -318.883 405.477 -318.883 684.032 -316.814 c 0,26,27
 1033.39 -314.841 1033.39 -314.841 1114.05 0 c 0,28,29
 1165.8 202.017 1165.8 202.017 1157.64 627.404 c 0,30,31
 1152.02 942.58 1152.02 942.58 1130.64 1167.4 c 1,32,-1
 1266.64 1167.4 l 1,33,34
 1302.51 937.21 1302.51 937.21 1299.64 701.404 c 0,35,36
 1297.58 534.485 1297.58 534.485 1288.67 398.751 c 1,0,1
EndSplineSet
EndChar

StartChar: uniFEDF
Encoding: 65247 65247 263
Width: 513
VWidth: 2181
GlyphClass: 2
Flags: W
AnchorPoint: "Anchor-10" 269.325 1327.87 basechar 0
AnchorPoint: "Anchor-7" 169.73 -194.5 basechar 0
LayerCount: 2
Fore
SplineSet
283.984 109.389 m 4,0,1
 195.478 0 195.478 0 56.7285 0 c 6,2,-1
 -20.4004 0 l 5,3,-1
 -20.4004 168.98 l 5,4,-1
 46.8496 168.98 l 6,5,6
 111.935 168.98 111.935 168.98 157.038 199.789 c 4,7,8
 242.265 257.664 242.265 257.664 232.038 622.789 c 4,9,10
 219.485 1073.39 219.485 1073.39 204.729 1166.11 c 5,11,-1
 340.729 1169.11 l 5,12,13
 381.901 933.42 381.901 933.42 378.038 598.789 c 4,14,15
 374.564 221.34 374.564 221.34 283.984 109.389 c 4,0,1
EndSplineSet
EndChar

StartChar: uniFEE0
Encoding: 65248 65248 264
Width: 536
VWidth: 2181
GlyphClass: 2
Flags: W
AnchorPoint: "Anchor-10" 241.73 1353 basechar 0
AnchorPoint: "Anchor-7" 129.73 -244.5 basechar 0
LayerCount: 2
Fore
SplineSet
211.748 79.9121 m 2,0,1
 140.193 1.08454e-06 140.193 1.08454e-06 19.7002 0 c 2,2,-1
 -26.4004 0 l 1,3,-1
 -26.4004 168.98 l 1,4,-1
 5.84961 168.98 l 2,5,6
 124.417 168.98 124.417 168.98 171.729 259.004 c 24,7,8
 202.73 317.984 202.73 317.984 202.73 623.74 c 0,9,10
 202.73 1000.74 202.73 1000.74 175.73 1164.74 c 1,11,-1
 316.73 1167.74 l 1,12,13
 352.171 928.582 352.171 928.582 346.729 594.6 c 0,14,15
 344.313 428.657 344.313 428.657 313.871 254.732 c 0,16,17
 299.231 168.98 299.231 168.98 515.61 168.98 c 2,18,-1
 556.86 168.98 l 1,19,-1
 556.86 0 l 1,20,-1
 456.76 0 l 2,21,22
 311.997 8.3701e-06 311.997 8.3701e-06 238.415 80.083 c 2,23,-1
 224.987 94.6973 l 1,24,-1
 211.748 79.9121 l 2,0,1
EndSplineSet
EndChar

StartChar: uniFEE2
Encoding: 65250 65250 266
Width: 1352
VWidth: 2181
GlyphClass: 2
Flags: W
AnchorPoint: "Anchor-10" 551.5 991 basechar 0
AnchorPoint: "Anchor-7" 181.188 -542.422 basechar 0
LayerCount: 2
Fore
SplineSet
836.605 198.203 m 0,0,1
 955.538 153.379 955.538 153.379 1011.51 179.23 c 0,2,3
 1068.78 206.709 1068.78 206.709 1079.56 277.528 c 0,4,5
 1114.17 491.269 1114.17 491.269 971.256 499.828 c 0,6,7
 891.199 504.123 891.199 504.123 827.806 439.504 c 0,8,9
 742.306 350.203 742.306 350.203 708.105 272.304 c 1,10,11
 750.475 230.666 750.475 230.666 836.605 198.203 c 0,0,1
1165.45 94 m 1,12,13
 1118.66 34.5673 1118.66 34.5673 1020.37 19.8682 c 0,14,15
 806.395 -11.5967 806.395 -11.5967 608.425 167.622 c 1,16,17
 515.032 -6.99219 515.032 -6.99219 422.598 -99 c 0,18,19
 306.598 -214.483 306.598 -214.483 102.598 -288.803 c 5,20,-1
 53 -142.076 l 5,21,22
 216.587 -93.0137 216.587 -93.0137 336.598 34.1973 c 0,23,24
 458.598 163.517 458.598 163.517 637.792 438.013 c 1,25,26
 811.464 684.851 811.464 684.851 998.351 659.525 c 0,27,28
 1231.57 627.264 1231.57 627.264 1226.37 291.863 c 0,29,30
 1225.84 255.298 1225.84 255.298 1218.18 218.789 c 1,31,32
 1251.8 168.213 1251.8 168.213 1330.49 168.003 c 2,33,-1
 1369.94 167.897 l 1,34,-1
 1369.94 0 l 1,35,-1
 1352 0 l 2,36,37
 1227.11 0 1227.11 0 1165.45 94 c 1,12,13
EndSplineSet
EndChar

StartChar: uniFEE3
Encoding: 65251 65251 267
Width: 921
VWidth: 2181
GlyphClass: 2
Flags: W
AnchorPoint: "Anchor-10" 380.69 970.5 basechar 0
AnchorPoint: "Anchor-7" 344.69 -167.5 basechar 0
LayerCount: 2
Fore
SplineSet
803.843 76.7275 m 4,0,1
 761.722 -12.375 761.722 -12.375 637.986 -30.8799 c 4,2,3
 424.008 -62.3447 424.008 -62.3447 226.038 116.874 c 5,4,5
 157.313 0 157.313 0 35.9805 0 c 6,6,-1
 -20.4004 0 l 5,7,-1
 -20.4004 168.979 l 5,8,-1
 24.96 168.979 l 6,9,10
 99.1742 168.979 99.1742 168.979 143.211 223.769 c 4,11,12
 171.25 258.649 171.25 258.649 255.405 387.265 c 4,13,14
 418.427 635.546 418.427 635.546 615.964 608.777 c 4,15,16
 848.183 576.516 848.183 576.516 842.982 241.115 c 4,17,18
 841.733 156.883 841.733 156.883 803.843 76.7275 c 4,0,1
454.219 147.455 m 4,19,20
 573.151 102.631 573.151 102.631 629.125 128.482 c 4,21,22
 686.389 155.961 686.389 155.961 697.169 226.78 c 4,23,24
 731.785 440.521 731.785 440.521 588.869 449.08 c 4,25,26
 508.812 453.375 508.812 453.375 445.419 388.756 c 4,27,28
 359.919 299.455 359.919 299.455 325.719 221.556 c 5,29,30
 368.088 179.918 368.088 179.918 454.219 147.455 c 4,19,20
EndSplineSet
EndChar

StartChar: uniFEE4
Encoding: 65252 65252 268
Width: 1047
VWidth: 2181
GlyphClass: 2
Flags: W
AnchorPoint: "Anchor-10" 418.79 936.5 basechar 0
AnchorPoint: "Anchor-7" 382.79 -218.5 basechar 0
LayerCount: 2
Fore
SplineSet
454.219 147.455 m 0,0,1
 573.151 102.631 573.151 102.631 629.125 128.482 c 0,2,3
 686.389 155.961 686.389 155.961 697.169 226.78 c 0,4,5
 731.785 440.521 731.785 440.521 588.869 449.08 c 0,6,7
 508.812 453.375 508.812 453.375 445.419 388.756 c 0,8,9
 359.919 299.455 359.919 299.455 325.719 221.556 c 1,10,11
 368.088 179.918 368.088 179.918 454.219 147.455 c 0,0,1
811.39 93.9014 m 5,12,13
 811.858 93.6835 811.858 93.6835 803.843 76.7275 c 0,14,15
 761.722 -12.375 761.722 -12.375 637.986 -30.8799 c 0,16,17
 424.008 -62.3447 424.008 -62.3447 226.038 116.874 c 1,18,19
 157.313 0 157.313 0 35.9805 0 c 2,20,-1
 -20.4004 0 l 1,21,-1
 -20.4004 168.979 l 1,22,-1
 24.96 168.979 l 2,23,24
 99.1742 168.979 99.1742 168.979 143.211 223.769 c 0,25,26
 171.25 258.649 171.25 258.649 255.405 387.265 c 0,27,28
 418.427 635.546 418.427 635.546 615.964 608.777 c 0,29,30
 808.456 582.035 808.456 582.035 837.813 347 c 24,31,32
 860.036 169.09 860.036 169.09 1034.28 169.09 c 2,33,-1
 1068.18 169.09 l 1,34,-1
 1068.18 0.209961 l 1,35,-1
 975.43 0.209961 l 2,36,37
 869.967 0.209961 869.967 0.209961 811.39 93.9014 c 5,12,13
EndSplineSet
EndChar

StartChar: uniFEEA
Encoding: 65258 65258 274
Width: 895
VWidth: 2181
GlyphClass: 2
Flags: W
AnchorPoint: "Anchor-10" 212.95 1147.81 basechar 0
AnchorPoint: "Anchor-7" 102.564 -318.552 basechar 0
LayerCount: 2
Fore
SplineSet
84.4463 -33 m 5,0,1
 162.11 179.641 162.11 179.641 262.446 328.159 c 4,2,3
 400.062 531.927 400.062 531.927 544.446 541 c 4,4,5
 686.9 549.178 686.9 549.178 690.446 429.159 c 0,6,7
 692.611 352.328 692.611 352.328 709.446 252.159 c 0,8,9
 723.252 169.024 723.252 169.024 835.3 169 c 2,10,-1
 915.26 168.983 l 1,11,-1
 915.26 0 l 1,12,-1
 814.34 0 l 2,13,14
 567.126 0 567.126 0 559.542 274.512 c 0,15,16
 556.247 393.765 556.247 393.765 523.446 385.159 c 0,17,18
 435.46 362.065 435.46 362.065 323.446 139.159 c 0,19,20
 239.446 -28 239.446 -28 213.446 -100 c 1,21,22
 148.946 -66.5 148.946 -66.5 84.4463 -33 c 5,0,1
EndSplineSet
EndChar

StartChar: uniFEEB
Encoding: 65259 65259 275
Width: 1210
VWidth: 2181
GlyphClass: 2
Flags: W
AnchorPoint: "Anchor-10" 601.801 1213.23 basechar 0
AnchorPoint: "Anchor-7" 425.542 -230.946 basechar 0
LayerCount: 2
Fore
SplineSet
511.113 400.805 m 1,0,1
 453.381 490.095 453.381 490.095 369.572 462.34 c 0,2,3
 306.82 441.788 306.82 441.788 282.621 376.593 c 1,4,5
 242.47 273.115 242.47 273.115 383.365 209.195 c 1,6,7
 566.511 305.355 566.511 305.355 511.113 400.805 c 1,0,1
290.853 795.102 m 1,8,-1
 378.853 911.102 l 1,9,10
 540.104 859.938 540.104 859.938 701.104 759.939 c 1,11,12
 1078.67 521.827 1078.67 521.827 1113.1 308.602 c 1,13,14
 1151.17 47.8965 1151.17 47.8965 784.854 21 c 0,15,16
 574.476 5.80957 574.476 5.80957 416.998 84.8115 c 1,17,18
 223.065 -0 223.065 -0 9.63086 -0 c 2,19,-1
 -8.39941 -0 l 1,20,-1
 -8.39941 168.979 l 1,21,-1
 93.0908 168.979 l 1,22,-1
 229.964 170.611 l 1,23,24
 174.09 223.725 174.09 223.725 163.254 284.408 c 0,25,26
 142.943 392.649 142.943 392.649 207.79 485.148 c 0,27,28
 260.248 559.975 260.248 559.975 361.527 580.4 c 0,29,30
 468.59 601.443 468.59 601.443 572.084 513.557 c 1,31,32
 651.202 412.13 651.202 412.13 620.546 306.344 c 0,33,34
 596.008 219.271 596.008 219.271 525.295 176 c 1,35,36
 961.862 107.045 961.862 107.045 973.104 270.602 c 0,37,38
 981.123 385.938 981.123 385.938 715.854 580.323 c 0,39,40
 521.766 723.649 521.766 723.649 290.853 795.102 c 1,8,-1
EndSplineSet
EndChar

StartChar: uniFEEC
Encoding: 65260 65260 276
Width: 909
VWidth: 2181
GlyphClass: 2
Flags: W
AnchorPoint: "Anchor-7" 97.88 -699.244 basechar 0
AnchorPoint: "Anchor-10" 365.76 1082.74 basechar 0
LayerCount: 2
Fore
SplineSet
25.8525 169.08 m 2,0,1
 208.491 169.426 208.491 169.426 345.857 299.796 c 0,2,3
 448.371 397.087 448.371 397.087 495.853 355 c 0,4,5
 539.852 316 539.852 316 426.853 136.08 c 0,6,7
 320.422 -33.3799 320.422 -33.3799 302.853 -360.92 c 1,8,9
 389.852 -78.9199 389.852 -78.9199 623.854 80.0801 c 0,10,11
 755.5 170.066 755.5 170.066 882.03 169.979 c 1,12,-1
 924.64 169.414 l 1,13,-1
 924.64 0.463867 l 1,14,-1
 853.352 0 l 2,15,16
 630.361 -1.45099 630.361 -1.45099 494.853 -270 c 0,17,18
 373.706 -510.103 373.706 -510.103 331.853 -532 c 0,19,20
 285.261 -557.195 285.261 -557.195 249.853 -530 c 0,21,22
 191.044 -483.853 191.044 -483.853 217.853 -222 c 0,23,24
 237.232 -32.709 237.232 -32.709 317.853 159.58 c 1,25,26
 289.853 114.08 289.853 114.08 187.602 57.04 c 128,-1,27
 85.3522 0 85.3522 0 9.85254 0 c 2,28,-1
 -26.9355 0 l 1,29,-1
 -26.9355 168.98 l 1,30,-1
 25.8525 169.08 l 2,0,1
EndSplineSet
EndChar

StartChar: uniFEEE
Encoding: 65262 65262 278
Width: 798
VWidth: 2181
GlyphClass: 2
Flags: W
AnchorPoint: "Anchor-10" 287 1059 basechar 0
AnchorPoint: "Anchor-7" 464.515 -614.238 basechar 0
LayerCount: 2
Fore
SplineSet
411.03 510.338 m 0,0,1
 289.662 507.095 289.662 507.095 243.03 306.338 c 0,2,3
 213.286 178.19 213.286 178.19 401.777 157.264 c 0,4,5
 440.997 153.107 440.997 153.107 560.293 160.203 c 1,6,7
 561.301 272.516 561.301 272.516 544.56 354.008 c 0,8,9
 513.678 512.621 513.678 512.621 411.03 510.338 c 0,0,1
691.693 0.5 m 1,10,11
 662.969 -187.387 662.969 -187.387 558.465 -307.483 c 0,12,13
 403.03 -485.662 403.03 -485.662 169.465 -514.483 c 1,14,-1
 90.4639 -406.483 l 1,15,16
 455.465 -326.483 455.465 -326.483 552.073 1.44336 c 1,17,18
 444.03 0 l 0,19,20
 195.782 0 195.782 0 125.03 126.338 c 0,21,22
 92.5488 184.339 92.5488 184.339 102.03 264.338 c 0,23,24
 127.814 464.469 127.814 464.469 243.03 591.338 c 0,25,26
 320.229 676.59 320.229 676.59 444.138 666.823 c 0,27,28
 579.385 656.489 579.385 656.489 637.98 515.567 c 0,29,30
 685.626 401.65 685.626 401.65 698.014 256.368 c 0,31,32
 704.697 176.43 704.697 176.43 705.506 168.473 c 1,33,-1
 818.66 169.354 l 5,34,-1
 818.66 0.5 l 5,35,-1
 691.693 0.5 l 1,10,11
EndSplineSet
EndChar

StartChar: uniFEF0
Encoding: 65264 65264 280
Width: 1210
VWidth: 2181
GlyphClass: 2
Flags: W
AnchorPoint: "Anchor-10" 535.508 577.01 basechar 0
AnchorPoint: "Anchor-7" 192.067 -710.505 basechar 0
LayerCount: 2
Fore
SplineSet
852.896 71.167 m 0,0,1
 937.293 170.782 937.293 170.782 1194.81 169.534 c 1,2,3
 1207.35 169.456 1207.35 169.456 1219.89 169.377 c 1,4,-1
 1219.89 0.500977 l 1,5,-1
 1170.31 0 l 2,6,7
 995.37 -1.76767 995.37 -1.76767 960.561 -48.2637 c 0,8,9
 920.11 -102.301 920.11 -102.301 984.561 -142.264 c 0,10,11
 1063.95 -193.141 1063.95 -193.141 1080.56 -268.264 c 0,12,13
 1100.58 -355.137 1100.58 -355.137 1054.31 -426.5 c 0,14,15
 990.59 -522.568 990.59 -522.568 890.312 -570.5 c 0,16,17
 646.168 -689.932 646.168 -689.932 374.062 -643.502 c 0,18,19
 99.1803 -597.117 99.1803 -597.117 77.0625 -307.502 c 4,20,21
 65.9862 -154.624 65.9862 -154.624 144.812 47 c 0,22,23
 229.062 262.498 229.062 262.498 386.312 473.5 c 1,24,-1
 489.463 393.32 l 1,25,26
 443.355 331.082 443.355 331.082 339.812 131 c 0,27,28
 194.379 -150.031 194.379 -150.031 235.062 -322.502 c 0,29,30
 273.629 -485.995 273.629 -485.995 466.062 -502.502 c 0,31,32
 686.088 -520.939 686.088 -520.939 820.312 -458.5 c 0,33,34
 885.979 -427.778 885.979 -427.778 928.31 -384.5 c 0,35,36
 987.78 -323.711 987.78 -323.711 928.56 -284.264 c 0,37,38
 786.697 -186.616 786.697 -186.616 792.562 -68.2637 c 0,39,40
 796.081 2.75684 796.081 2.75684 852.896 71.167 c 0,0,1
EndSplineSet
EndChar

StartChar: uniFEFB
Encoding: 65275 65275 291
Width: 1012
VWidth: 2181
GlyphClass: 3
Flags: W
AnchorPoint: "Anchor-9" 813.06 1315 baselig 0
AnchorPoint: "Anchor-6" 739.69 -173.5 baselig 0
AnchorPoint: "Anchor-6" 182.5 -210.908 baselig 1
AnchorPoint: "Anchor-9" 145.565 1263.84 baselig 1
LayerCount: 2
Fore
SplineSet
228.221 1120 m 25,0,-1
 90.2207 1081 l 25,1,-1
 318.221 152 l 1,2,3
 316.839 151.98 316.839 151.98 175.342 151.98 c 2,4,-1
 127.221 151.98 l 1,5,-1
 127.221 0 l 1,6,-1
 185.221 0 l 2,7,8
 661.571 0 661.571 0 790.221 159 c 0,9,10
 872.09 262.682 872.09 262.682 875.038 598.789 c 4,11,12
 877.795 996.089 877.795 996.089 837.729 1169.11 c 5,13,-1
 703.729 1166.11 l 1,14,15
 706.892 1141.28 706.892 1141.28 731.038 622.789 c 0,16,17
 743.501 355.702 743.501 355.702 651.795 264.089 c 0,18,19
 589.04 201.397 589.04 201.397 438.221 174 c 1,20,21
 228.221 1120 l 25,0,-1
EndSplineSet
LCarets2: 1 0 
Ligature2: "'rlig' Required Ligatures in Arabic lookup 16 subtable" uniFEDF uniFE8E
EndChar

StartChar: uniFEFC
Encoding: 65276 65276 292
Width: 1236
VWidth: 2181
GlyphClass: 3
Flags: W
AnchorPoint: "Anchor-9" 882.69 1292 baselig 0
AnchorPoint: "Anchor-6" 883.69 -212.5 baselig 0
AnchorPoint: "Anchor-6" 248 -266 baselig 1
AnchorPoint: "Anchor-9" 112.5 1166.5 baselig 1
LayerCount: 2
Fore
SplineSet
755.397 158.989 m 0,0,1
 611.867 0.5 611.867 0.5 333.99 0.5 c 0,2,3
 171.053 0.5 171.053 0.5 124.08 9.1084 c 1,4,-1
 124.08 177.976 l 1,5,6
 399.758 126.04 399.758 126.04 497.397 167 c 2,7,-1
 501.571 168.751 l 1,8,-1
 100.397 957 l 1,9,-1
 235.354 1062.22 l 1,10,-1
 603.613 221.916 l 1,11,12
 724.768 296.533 724.768 296.533 785.397 487.989 c 1,13,14
 834.431 678.868 834.431 678.868 823.396 802.989 c 2,15,-1
 797.248 1097.11 l 1,16,-1
 954.13 1167.11 l 1,17,-1
 954.13 632.5 l 2,18,19
 954.13 436.884 954.13 436.884 991.728 349.948 c 0,20,21
 1069.82 169.38 1069.82 169.38 1193.59 169.38 c 2,22,-1
 1256.94 169.38 l 1,23,-1
 1256.94 0.5 l 1,24,-1
 1194.91 0.5 l 2,25,26
 926.398 0.5 926.398 0.5 857.397 347.989 c 1,27,28
 814.507 225.519 814.507 225.519 755.397 158.989 c 0,0,1
EndSplineSet
LCarets2: 1 0 
Ligature2: "'rlig' Required Ligatures in Arabic lookup 16 subtable" uniFEE0 uniFE8E
EndChar

StartChar: arabic_dot
Encoding: 65536 -1 293
Width: 150
GlyphClass: 2
Flags: W
LayerCount: 2
Fore
SplineSet
97.9723 166.643 m 2,0,-1
 113.107 153.132 l 2,1,2
 122.742 144.531 122.742 144.531 130.164 135.942 c 0,3,4
 188.119 68.8716 188.119 68.8716 113.541 4.61443 c 2,5,-1
 85.541 -19.5106 l 2,6,7
 70.465 -32.5002 70.465 -32.5002 57.2228 -19.114 c 2,8,-1
 11.4244 27.1821 l 1,9,-1
 -28.852 59.5027 l 2,10,11
 -43.7128 71.428 -43.7128 71.428 -28.3479 87.6037 c 2,12,-1
 14.2541 132.453 l 1,13,-1
 52.8624 168.554 l 2,14,15
 73.8488 188.178 73.8488 188.178 97.9723 166.643 c 2,0,-1
EndSplineSet
EndChar

StartChar: arabic_2dots
Encoding: 65537 -1 294
Width: 452
GlyphClass: 2
Flags: W
LayerCount: 2
Fore
SplineSet
381.716 168.126 m 2,0,-1
 396.84 154.625 l 2,1,2
 406.474 146.023 406.474 146.023 413.896 137.434 c 0,3,4
 471.85 70.3638 471.85 70.3638 397.273 6.10661 c 2,5,-1
 369.274 -18.0183 l 2,6,7
 354.198 -31.0083 354.198 -31.0083 340.955 -17.6218 c 2,8,-1
 295.157 28.6743 l 1,9,-1
 254.88 60.9949 l 2,10,11
 240.02 72.9204 240.02 72.9204 255.385 89.0959 c 2,12,-1
 297.987 133.945 l 1,13,-1
 336.595 170.047 l 2,14,15
 357.581 189.671 357.581 189.671 381.716 168.126 c 2,0,-1
125.716 170.126 m 2,16,-1
 140.84 156.625 l 2,17,18
 150.473 148.024 150.473 148.024 157.896 139.434 c 4,19,20
 215.852 72.3638 215.852 72.3638 141.273 8.10661 c 2,21,-1
 113.274 -16.0183 l 2,22,23
 98.1976 -29.0084 98.1976 -29.0084 84.9552 -15.6218 c 2,24,-1
 39.1568 30.6743 l 1,25,-1
 -1.11965 62.9949 l 2,26,27
 -15.9801 74.9205 -15.9801 74.9205 -0.615437 91.0959 c 2,28,-1
 41.9866 135.945 l 1,29,-1
 80.5947 172.047 l 2,30,31
 101.581 191.671 101.581 191.671 125.716 170.126 c 2,16,-1
EndSplineSet
EndChar

StartChar: arabic_3dots
Encoding: 65538 -1 295
Width: 455
GlyphClass: 2
Flags: W
LayerCount: 2
Fore
SplineSet
384.957 158.249 m 2,0,-1
 400.33 144.525 l 2,1,2
 409.965 135.924 409.965 135.924 417.387 127.334 c 0,3,4
 475.341 60.2642 475.341 60.2642 400.764 -3.993 c 2,5,-1
 372.764 -28.1179 l 2,6,7
 357.688 -41.1079 357.688 -41.1079 344.445 -27.7214 c 2,8,-1
 298.647 18.5747 l 1,9,-1
 258.371 50.8953 l 2,10,11
 243.51 62.8208 243.51 62.8208 258.875 78.9963 c 2,12,-1
 301.477 123.846 l 1,13,-1
 301.585 123.947 l 1,14,-1
 340.085 159.947 l 2,15,16
 361.071 179.571 361.071 179.571 384.957 158.249 c 2,0,-1
117.204 156.029 m 2,17,-1
 132.33 142.525 l 2,18,19
 141.963 133.925 141.963 133.925 149.387 125.335 c 0,20,21
 207.342 58.2648 207.342 58.2648 132.764 -5.99299 c 2,22,-1
 104.764 -30.1181 l 2,23,24
 89.6878 -43.1068 89.6878 -43.1068 76.4454 -29.7214 c 2,25,-1
 30.647 16.5747 l 1,26,-1
 -9.62942 48.8953 l 2,27,28
 -24.4898 60.8208 -24.4898 60.8208 -9.1252 76.9963 c 2,29,-1
 33.4768 121.846 l 1,30,-1
 72.085 157.947 l 2,31,32
 93.0714 177.571 93.0714 177.571 117.204 156.029 c 2,17,-1
252.259 366.98 m 2,33,-1
 267.33 353.525 l 2,34,35
 276.964 344.925 276.964 344.925 284.387 336.335 c 0,36,37
 342.342 269.266 342.342 269.266 267.764 205.007 c 2,38,-1
 239.764 180.882 l 2,39,40
 224.688 167.893 224.688 167.893 211.445 181.279 c 2,41,-1
 165.647 227.575 l 1,42,-1
 125.371 259.895 l 2,43,44
 110.51 271.821 110.51 271.821 125.875 287.996 c 2,45,-1
 168.375 332.738 l 1,46,-1
 207.085 368.947 l 2,47,48
 228.071 388.571 228.071 388.571 252.259 366.98 c 2,33,-1
EndSplineSet
EndChar

StartChar: arabic_3dots_a
Encoding: 65539 -1 296
Width: 454
GlyphClass: 2
Flags: W
LayerCount: 2
Fore
SplineSet
251.944 -19.8208 m 2,0,-1
 266.83 -33.1089 l 2,1,2
 276.464 -41.7095 276.464 -41.7095 283.887 -50.2993 c 0,3,4
 341.841 -117.369 341.841 -117.369 267.264 -181.627 c 2,5,-1
 239.264 -205.752 l 2,6,7
 224.188 -218.742 224.188 -218.742 210.945 -205.355 c 2,8,-1
 165.147 -159.059 l 1,9,-1
 124.871 -126.738 l 2,10,11
 110.01 -114.813 110.01 -114.813 125.375 -98.6375 c 2,12,-1
 167.977 -53.788 l 1,13,-1
 206.585 -17.6868 l 2,14,15
 227.571 1.93748 227.571 1.93748 251.944 -19.8208 c 2,0,-1
385.706 181.392 m 2,16,-1
 400.83 167.891 l 2,17,18
 410.465 159.29 410.465 159.29 417.887 150.701 c 0,19,20
 475.841 83.6304 475.841 83.6304 401.264 19.3732 c 2,21,-1
 373.264 -4.75172 l 2,22,23
 358.188 -17.7417 358.188 -17.7417 344.945 -4.35524 c 2,24,-1
 299.147 41.9409 l 1,25,-1
 258.871 74.2616 l 2,26,27
 244.01 86.187 244.01 86.187 259.375 102.362 c 2,28,-1
 301.977 147.212 l 1,29,-1
 340.585 183.313 l 2,30,31
 361.571 202.937 361.571 202.937 385.706 181.392 c 2,16,-1
119.706 182.392 m 2,32,-1
 134.83 168.891 l 2,33,34
 144.464 160.291 144.464 160.291 151.887 151.701 c 0,35,36
 209.842 84.6304 209.842 84.6304 135.264 20.3732 c 2,37,-1
 107.264 -3.75172 l 2,38,39
 92.1878 -16.7418 92.1878 -16.7418 78.9454 -3.35524 c 2,40,-1
 33.147 42.941 l 1,41,-1
 -7.12942 75.2616 l 2,42,43
 -21.9898 87.1871 -21.9898 87.1871 -6.6252 103.362 c 2,44,-1
 35.9768 148.212 l 1,45,-1
 74.585 184.313 l 2,46,47
 95.5714 203.937 95.5714 203.937 119.706 182.392 c 2,32,-1
EndSplineSet
EndChar

StartChar: uni066E.fina
Encoding: 65540 -1 297
Width: 1997
VWidth: 2181
GlyphClass: 2
Flags: W
AnchorPoint: "Anchor-10" 703 1060.5 basechar 0
AnchorPoint: "Anchor-7" 703 -179 basechar 0
LayerCount: 2
Fore
SplineSet
862.463 0.982422 m 5,0,1
 513.854 -0.0244141 513.854 -0.0244141 330.839 80.8037 c 4,2,3
 101.517 182.083 101.517 182.083 87.3193 419.902 c 4,4,5
 75.3193 620.902 75.3193 620.902 213.604 798.863 c 5,6,-1
 342.319 764.902 l 5,7,8
 224.056 604.152 224.056 604.152 231.319 437.902 c 4,9,10
 240.28 231.95 240.28 231.95 554.779 183.378 c 4,11,12
 631.222 171.572 631.222 171.572 807.097 171.017 c 29,13,14
 1151.27 161.271 1151.27 161.271 1299 210.379 c 0,15,16
 1592.66 307.995 1592.66 307.995 1648.31 537.795 c 1,17,-1
 1757.21 537.795 l 1,18,-1
 1740 381.379 l 0,19,20
 1740.75 232.877 1740.75 232.877 1848 189.379 c 0,21,22
 1897.31 169.38 1897.31 169.38 1976.97 169.38 c 2,23,-1
 2022.17 169.38 l 1,24,-1
 2022.17 0.5 l 1,25,-1
 1932.03 0.5 l 2,26,27
 1686.5 0.5 1686.5 0.5 1648.28 231.379 c 1,28,29
 1472.75 102.039 1472.75 102.039 1360.28 66.3789 c 0,30,31
 1150.92 0 1150.92 0 862.463 0.982422 c 5,0,1
EndSplineSet
EndChar

StartChar: uni06A1.fina
Encoding: 65543 -1 300
Width: 1889
VWidth: 2181
GlyphClass: 2
Flags: W
AnchorPoint: "Anchor-10" 541 1167.5 basechar 0
AnchorPoint: "Anchor-7" 648 -223.5 basechar 0
LayerCount: 2
Fore
SplineSet
1299.42 508.568 m 132,-1,1
 1299.42 442.068 1299.42 442.068 1347.62 394.956 c 132,-1,2
 1395.96 347.694 1395.96 347.694 1464.38 347.694 c 132,-1,3
 1532.79 347.694 1532.79 347.694 1581.14 394.956 c 132,-1,4
 1629.33 442.066 1629.33 442.066 1629.33 508.568 c 132,-1,5
 1629.33 575.062 1629.33 575.062 1581.14 622.176 c 132,-1,6
 1532.79 669.438 1532.79 669.438 1464.38 669.438 c 132,-1,7
 1395.97 669.438 1395.97 669.438 1347.62 622.176 c 132,-1,0
 1299.42 575.068 1299.42 575.068 1299.42 508.568 c 132,-1,1
810.097 171.017 m 20,8,9
 937.145 167.593 937.145 167.593 1041.47 177.424 c 4,10,11
 1207.48 191.818 1207.48 191.818 1305.75 245.907 c 5,12,13
 1214.43 305.952 1214.43 305.952 1174.1 399.062 c 4,14,15
 1135.14 489.005 1135.14 489.005 1165.46 591.871 c 5,16,17
 1202.25 728.797 1202.25 728.797 1332.98 782.198 c 4,18,19
 1392 806.31 1392 806.31 1467.44 806.31 c 4,20,21
 1566 806.31 1566 806.31 1619.43 776.193 c 4,22,23
 1748.64 702.872 1748.64 702.872 1769.32 592.305 c 4,24,25
 1788.13 490.759 1788.13 490.759 1757.69 402.918 c 4,26,27
 1725.9 311.22 1725.9 311.22 1609.99 235.282 c 5,28,29
 1681.76 169.38 1681.76 169.38 1836.89 169.38 c 6,30,31
 1908.6 169.38 l 5,32,-1
 1908.6 0.5 l 5,33,-1
 1829.22 0.5 l 6,34,35
 1626.24 0.5 1626.24 0.5 1453 149.542 c 5,36,37
 1329.56 66.1016 1329.56 66.1016 1231 37.7207 c 4,38,39
 1100.18 0.0166016 1100.18 0.0166016 865.279 0 c 20,40,41
 517.854 -0.0244141 517.854 -0.0244141 334.839 80.8037 c 4,42,43
 105.517 182.083 105.517 182.083 91.3193 419.902 c 4,44,45
 79.3193 620.902 79.3193 620.902 217.604 798.863 c 5,46,-1
 346.319 764.902 l 5,47,48
 228.056 604.152 228.056 604.152 235.319 437.902 c 4,49,50
 244.28 231.95 244.28 231.95 558.779 183.378 c 4,51,52
 635.253 173.649 635.253 173.649 810.097 171.017 c 20,8,9
EndSplineSet
EndChar

StartChar: uni06A1.init
Encoding: 65544 -1 301
Width: 961
VWidth: 2181
GlyphClass: 2
Flags: W
AnchorPoint: "Anchor-10" 405.53 1224.5 basechar 0
AnchorPoint: "Anchor-7" 380.53 -170 basechar 0
LayerCount: 2
Fore
SplineSet
445.776 848.576 m 4,0,1
 320.108 845.217 320.108 845.217 277.776 644.576 c 4,2,3
 241.77 475.6 241.77 475.6 472.76 491.605 c 4,4,5
 539.642 494.949 539.642 494.949 585.039 498.44 c 5,6,7
 586.047 610.754 586.047 610.754 569.306 692.246 c 4,8,9
 538.469 850.859 538.469 850.859 445.776 848.576 c 4,0,1
576.819 353.682 m 5,10,-1
 463.26 336.605 l 4,11,12
 225.352 319.919 225.352 319.919 164.76 437.605 c 4,13,14
 125.472 514.835 125.472 514.835 136.776 602.576 c 4,15,16
 162.561 802.707 162.561 802.707 277.776 929.576 c 4,17,18
 355.865 1015.81 355.865 1015.81 478.884 1005.06 c 4,19,20
 603.786 994.728 603.786 994.728 662.727 853.805 c 4,21,22
 710.372 739.889 710.372 739.889 722.76 594.605 c 4,23,24
 729.443 514.668 729.443 514.668 730.252 506.711 c 5,25,26
 734.685 271.53 734.685 271.53 590.76 137.605 c 0,27,28
 444.775 0 444.775 0 90.9561 0 c 2,29,-1
 -20.4004 0 l 1,30,-1
 -20.4004 168.98 l 1,31,-1
 82 168.98 l 2,32,33
 177.209 168.98 177.209 168.98 214.956 171.605 c 0,34,35
 524.588 191.909 524.588 191.909 576.819 353.682 c 5,10,-1
EndSplineSet
EndChar

StartChar: uni06A1.medi
Encoding: 65545 -1 302
Width: 985
VWidth: 2181
GlyphClass: 2
Flags: W
AnchorPoint: "Anchor-10" 488.26 1007 basechar 0
AnchorPoint: "Anchor-7" 488.26 -170 basechar 0
LayerCount: 2
Fore
SplineSet
324.625 459.029 m 132,-1,1
 324.625 392.529 324.625 392.529 372.819 345.417 c 132,-1,2
 421.167 298.155 421.167 298.155 489.582 298.155 c 132,-1,3
 557.996 298.155 557.996 298.155 606.344 345.417 c 132,-1,4
 654.537 392.527 654.537 392.527 654.537 459.029 c 132,-1,5
 654.537 525.523 654.537 525.523 606.344 572.637 c 132,-1,6
 557.995 619.898 557.995 619.898 489.582 619.898 c 132,-1,7
 421.169 619.898 421.169 619.898 372.819 572.637 c 132,-1,0
 324.625 525.529 324.625 525.529 324.625 459.029 c 132,-1,1
644.629 726.654 m 4,8,9
 773.843 653.333 773.843 653.333 794.521 542.766 c 4,10,11
 813.337 441.22 813.337 441.22 782.888 353.379 c 4,12,13
 751.104 261.681 751.104 261.681 635.197 185.743 c 5,14,15
 681.707 167.77 681.707 167.77 928.046 168.98 c 6,16,-1
 1005.92 169.363 l 5,17,-1
 1005.92 0.490234 l 5,18,-1
 791.721 0 l 6,19,20
 643.848 -0.338431 643.848 -0.338431 491.111 105.742 c 6,21,-1
 488.343 107.665 l 5,22,-1
 485.521 105.818 l 6,23,24
 323.856 0 323.856 0 185.79 0 c 6,25,-1
 -20.4004 0 l 1,26,-1
 -20.4004 168.98 l 1,27,-1
 48.4902 168.98 l 6,28,29
 259.975 168.982 259.975 168.982 330.95 196.368 c 5,30,31
 239.635 256.413 239.635 256.413 199.302 349.523 c 4,32,33
 160.343 439.466 160.343 439.466 190.666 542.332 c 5,34,35
 227.458 679.258 227.458 679.258 358.182 732.659 c 4,36,37
 417.2 756.77 417.2 756.77 492.646 756.77 c 4,38,39
 591.201 756.77 591.201 756.77 644.629 726.654 c 4,8,9
EndSplineSet
EndChar

StartChar: uni066F.fina
Encoding: 65546 -1 303
Width: 1528
VWidth: 2181
GlyphClass: 2
Flags: W
AnchorPoint: "Anchor-10" 387 900 basechar 0
AnchorPoint: "Anchor-7" 470.645 -718.82 basechar 0
LayerCount: 2
Fore
SplineSet
1260.98 2.64648 m 5,0,1
 1248.3 1.41602 1248.3 1.41602 1084.83 1.23926 c 4,2,3
 907.276 1.01367 907.276 1.01367 832.993 86.7031 c 4,4,5
 755.484 177.125 755.484 177.125 770.613 301.323 c 4,6,7
 791.65 479.226 791.65 479.226 901.265 585.436 c 4,8,9
 999.725 680.838 999.725 680.838 1114.14 673.823 c 4,10,11
 1273.27 664.354 1273.27 664.354 1340.98 522.567 c 4,12,13
 1394.04 411.605 1394.04 411.605 1407.01 256.368 c 4,14,15
 1413.23 176.43 1413.23 176.43 1414.51 169.473 c 5,16,17
 1453.03 169.427 1453.03 169.427 1491.55 169.38 c 1,18,-1
 1547.96 169.38 l 1,19,-1
 1547.96 0.5 l 1,20,-1
 1410.99 1.70312 l 5,21,22
 1301.32 -330.701 1301.32 -330.701 1065.87 -468.028 c 4,23,24
 755.715 -648.923 755.715 -648.923 408.868 -564 c 4,25,26
 294.809 -536.073 294.809 -536.073 222.868 -447 c 4,27,28
 95.6329 -294.618 95.6329 -294.618 97.8682 -86 c 4,29,30
 100.585 119.941 100.585 119.941 272.31 436.017 c 5,31,-1
 421.868 398 l 5,32,33
 269.868 142 269.868 142 261.868 -70 c 4,34,35
 249.771 -438.821 249.771 -438.821 648.868 -435.528 c 4,36,37
 875.719 -433.657 875.719 -433.657 1033.48 -312.025 c 4,38,39
 1260.16 -138.537 1260.16 -138.537 1260.98 2.64648 c 5,0,1
1098.84 521.636 m 4,40,41
 971.104 518.718 971.104 518.718 922.978 361.104 c 4,42,43
 864.527 173.248 864.527 173.248 1071.78 157.264 c 4,44,45
 1125.67 153.107 1125.67 153.107 1269.29 160.203 c 5,46,47
 1270.3 272.516 1270.3 272.516 1253.56 354.008 c 4,48,49
 1218.49 524.711 1218.49 524.711 1098.84 521.636 c 4,40,41
92.9443 -9.63281 m 4,50,-1
EndSplineSet
EndChar

StartChar: arabic_ring
Encoding: 65549 -1 306
Width: 438
GlyphClass: 2
Flags: W
LayerCount: 2
Fore
SplineSet
316 220 m 4,0,1
 316 260 316 260 288 288 c 4,2,3
 260 317 260 317 219 317 c 132,-1,4
 178 317 178 317 150 289 c 132,-1,5
 122 261 122 261 122 220 c 4,6,7
 122 178 122 178 150 150 c 4,8,9
 178 123 178 123 219 123 c 132,-1,10
 260 123 260 123 288 151 c 132,-1,11
 316 179 316 179 316 220 c 4,0,1
438 220 m 132,-1,13
 438 128 438 128 375 64 c 4,14,15
 311 0 311 0 219 0 c 132,-1,16
 127 0 127 0 64 64 c 4,17,18
 0 128 0 128 0 220 c 132,-1,19
 0 312 0 312 64 376 c 4,20,21
 127 439 127 439 219 439 c 132,-1,22
 311 439 311 439 375 376 c 5,23,12
 438 312 438 312 438 220 c 132,-1,13
EndSplineSet
EndChar

StartChar: arabic_gaf_bar
Encoding: 65550 -1 307
Width: 674
GlyphClass: 2
Flags: W
LayerCount: 2
Fore
SplineSet
666 1673 m 1,0,1
 554.442 1659.79 554.442 1659.79 354 1557 c 0,2,3
 118 1435 118 1435 0 1333 c 1,4,-1
 0 1442 l 1,5,6
 117.337 1545.86 117.337 1545.86 320 1649 c 0,7,8
 542 1763 542 1763 666 1782 c 1,9,-1
 666 1673 l 1,0,1
EndSplineSet
EndChar

StartChar: uni066E.init.math
Encoding: 65560 -1 317
Width: 877
VWidth: 2181
GlyphClass: 2
Flags: W
LayerCount: 2
Fore
SplineSet
573.584 94.0195 m 0,0,1
 501.396 8.5 501.396 8.5 342.4 8.5 c 2,2,-1
 -3.40039 8.5 l 1,3,-1
 -3.40039 169.38 l 1,4,-1
 283.55 169.38 l 2,5,6
 396.937 169.38 396.937 169.38 449.287 221.732 c 0,7,8
 506.99 279.434 506.99 279.434 506.99 400.31 c 2,9,-1
 506.99 614.5 l 1,10,-1
 667.87 614.5 l 1,11,-1
 667.87 400.31 l 2,12,13
 667.87 207.324 667.87 207.324 573.584 94.0195 c 0,0,1
EndSplineSet
EndChar

StartChar: guillemotleft
Encoding: 171 171 318
Width: 1253
Flags: W
LayerCount: 2
Fore
SplineSet
1051 1036.69 m 1,0,-1
 1051 872.486 l 1,1,-1
 744.962 600 l 1,2,-1
 1051 327.514 l 1,3,-1
 1051 163.308 l 1,4,-1
 602 563.483 l 1,5,-1
 602 636.517 l 1,6,-1
 1051 1036.69 l 1,0,-1
617 1036.69 m 1,7,-1
 617 872.486 l 1,8,-1
 310.962 600 l 1,9,-1
 617 327.514 l 1,10,-1
 617 163.308 l 1,11,-1
 168 563.483 l 1,12,-1
 168 636.517 l 1,13,-1
 617 1036.69 l 1,7,-1
EndSplineSet
EndChar

StartChar: guillemotright
Encoding: 187 187 319
Width: 1253
Flags: W
LayerCount: 2
Fore
SplineSet
203 1036.69 m 1,0,-1
 652 636.517 l 1,1,-1
 652 563.483 l 1,2,-1
 203 163.308 l 1,3,-1
 203 327.514 l 1,4,-1
 509.038 600 l 1,5,-1
 203 872.486 l 1,6,-1
 203 1036.69 l 1,0,-1
637 1036.69 m 1,7,-1
 1086 636.517 l 1,8,-1
 1086 563.483 l 1,9,-1
 637 163.308 l 1,10,-1
 637 327.514 l 1,11,-1
 943.038 600 l 1,12,-1
 637 872.486 l 1,13,-1
 637 1036.69 l 1,7,-1
EndSplineSet
EndChar

StartChar: zero
Encoding: 48 48 320
Width: 1263
Flags: W
LayerCount: 2
Fore
SplineSet
866.012 1211.05 m 0,0,1
 787.853 1370 787.853 1370 631 1370 c 0,2,3
 475.109 1370 475.109 1370 396.95 1211.05 c 0,4,5
 318 1055.4 318 1055.4 318 745 c 0,6,7
 318 435.587 318 435.587 396.95 279.947 c 0,8,9
 475.114 121 475.114 121 631 121 c 0,10,11
 787.847 121 787.847 121 866.012 279.947 c 0,12,13
 945 435.587 945 435.587 945 745 c 0,14,15
 945 1055.4 945 1055.4 866.012 1211.05 c 0,0,1
265.817 1315.95 m 0,16,17
 394.777 1510 394.777 1510 631 1510 c 128,-1,18
 867.223 1510 867.223 1510 996.183 1315.95 c 0,19,20
 1127 1119.95 1127 1119.95 1127 745 c 0,21,22
 1127 371.033 1127 371.033 996.183 175.052 c 0,23,24
 867.214 -19 867.214 -19 631 -19 c 128,-1,25
 394.786 -19 394.786 -19 265.817 175.052 c 0,26,27
 135 371.033 135 371.033 135 745 c 0,28,29
 135 1119.95 135 1119.95 265.817 1315.95 c 0,16,17
EndSplineSet
EndChar

StartChar: one
Encoding: 49 49 321
Width: 1263
Flags: W
LayerCount: 2
Fore
SplineSet
254 10 m 1,0,-1
 254 160 l 1,1,-1
 578 160 l 1,2,-1
 578 1321.21 l 1,3,-1
 225 1249.21 l 1,4,-1
 225 1412.82 l 1,5,-1
 567.581 1483 l 1,6,-1
 748.463 1483 l 1,7,-1
 748.463 160 l 1,8,-1
 1074 160 l 1,9,-1
 1074 10 l 1,10,-1
 254 10 l 1,0,-1
EndSplineSet
EndChar

StartChar: two
Encoding: 50 50 322
Width: 1263
Flags: W
LayerCount: 2
Fore
SplineSet
375.857 176.999 m 2,0,-1
 359.2 160 l 1,1,-1
 1058 160 l 1,2,-1
 1058 10 l 1,3,-1
 150 10 l 1,4,-1
 150 165.957 l 1,5,6
 264.881 284.769 264.881 284.769 457.635 482.465 c 0,7,8
 647.219 683.151 647.219 683.151 696.05 741.353 c 0,9,10
 789.415 851.303 789.415 851.303 827.408 927.957 c 0,11,12
 867 1005.6 867 1005.6 867 1081 c 0,13,14
 867 1204.46 867 1204.46 781.652 1282.44 c 0,15,16
 699.256 1360 699.256 1360 567.741 1360 c 0,17,18
 475.62 1360 475.62 1360 372.515 1326.54 c 0,19,20
 272.893 1295.38 272.893 1295.38 160 1233.94 c 1,21,-1
 160 1414.23 l 1,22,23
 278.095 1461.17 278.095 1461.17 380.296 1485.27 c 0,24,25
 481.093 1510 481.093 1510 563.924 1510 c 4,26,27
 781.81 1510 781.81 1510 915.565 1396.34 c 0,28,29
 1050 1283.35 1050 1283.35 1050 1094 c 0,30,31
 1050 1004 1050 1004 1016.27 923.358 c 0,32,33
 982.319 842.172 982.319 842.172 892.331 731.419 c 1,34,35
 867.641 702.78 867.641 702.78 737.407 564.453 c 0,36,37
 609.586 425.991 609.586 425.991 375.857 176.999 c 2,0,-1
EndSplineSet
EndChar

StartChar: three
Encoding: 51 51 323
Width: 1263
Flags: W
LayerCount: 2
Fore
SplineSet
760.985 804.203 m 1,0,-1
 801.214 795.221 l 2,1,2
 940.521 764.948 940.521 764.948 1019.81 669.605 c 128,-1,3
 1099 574.385 1099 574.385 1099 434 c 0,4,5
 1099 217.825 1099 217.825 950.771 99.8242 c 0,6,7
 803.705 -19 803.705 -19 538.924 -19 c 0,8,9
 449.794 -19 449.794 -19 353.328 -0.668945 c 0,10,11
 257.824 17.0889 257.824 17.0889 156 52.1172 c 1,12,-1
 156 222.848 l 1,13,14
 235.369 179.35 235.369 179.35 327.574 156.299 c 0,15,16
 427.623 131 427.623 131 533.178 131 c 0,17,18
 718.328 131 718.328 131 816.162 208.015 c 0,19,20
 918 286.019 918 286.019 918 434 c 0,21,22
 918 570.786 918 570.786 823.107 648.288 c 0,23,24
 731.901 725 731.901 725 570.524 725 c 2,25,-1
 413.481 725 l 1,26,-1
 413.481 871 l 1,27,-1
 578.185 871 l 2,28,29
 724.07 871 724.07 871 802.274 932.512 c 0,30,31
 883 995.015 883 995.015 883 1112 c 0,32,33
 883 1231.99 883 1231.99 799.887 1296.48 c 0,34,35
 719.278 1360 719.278 1360 570.524 1360 c 0,36,37
 490.148 1360 490.148 1360 398.139 1341.83 c 0,38,39
 308.27 1324.8 308.27 1324.8 201 1289.83 c 1,40,-1
 201 1448.39 l 1,41,42
 311.79 1478.79 311.79 1478.79 407.805 1494.12 c 0,43,44
 503.29 1510 503.29 1510 587.76 1510 c 0,45,46
 804.715 1510 804.715 1510 933.851 1407.61 c 0,47,48
 1064 1306.11 1064 1306.11 1064 1133 c 0,49,50
 1064 1012.61 1064 1012.61 995.307 929.889 c 0,51,52
 926.384 846.896 926.384 846.896 800.877 814.697 c 2,53,-1
 760.985 804.203 l 1,0,-1
EndSplineSet
EndChar

StartChar: four
Encoding: 52 52 324
Width: 1263
Flags: W
LayerCount: 2
Fore
SplineSet
759.143 510 m 1,0,-1
 759.143 1351.18 l 1,1,-1
 235.729 510 l 1,2,-1
 759.143 510 l 1,0,-1
100 544.011 m 1,3,-1
 703.539 1483 l 1,4,-1
 935 1483 l 1,5,-1
 935 510 l 1,6,-1
 1148 510 l 1,7,-1
 1148 362 l 1,8,-1
 935 362 l 1,9,-1
 935 10 l 1,10,-1
 759.143 10 l 1,11,-1
 759.143 362 l 1,12,-1
 100 362 l 1,13,-1
 100 544.011 l 1,3,-1
EndSplineSet
EndChar

StartChar: five
Encoding: 53 53 325
Width: 1263
Flags: W
LayerCount: 2
Fore
SplineSet
221 758.37 m 1,0,-1
 221 1483 l 1,1,-1
 974 1483 l 1,2,-1
 974 1333 l 1,3,-1
 386 1333 l 1,4,-1
 386 943.025 l 1,5,-1
 399.227 947.535 l 2,6,7
 440.762 962.275 440.762 962.275 482.076 969.643 c 128,-1,8
 523.341 977 523.341 977 564.596 977 c 0,9,10
 799.806 977 799.806 977 941.157 842.708 c 0,11,12
 1084 708.676 1084 708.676 1084 479 c 0,13,14
 1084 242.484 1084 242.484 937.352 111.97 c 0,15,16
 792.306 -19 792.306 -19 534.961 -19 c 0,17,18
 445.875 -19 445.875 -19 351.119 -3.13184 c 0,19,20
 258.031 12.1445 258.031 12.1445 158 42.4014 c 1,21,-1
 158 221.356 l 1,22,23
 242.557 177.553 242.557 177.553 331.574 155.299 c 0,24,25
 427.668 131 427.668 131 531.137 131 c 0,26,27
 700.196 131 700.196 131 799.478 224.57 c 0,28,29
 902 318.551 902 318.551 902 479 c 128,-1,30
 902 639.449 902 639.449 799.478 733.43 c 0,31,32
 700.196 827 700.196 827 531.137 827 c 0,33,34
 452.649 827 452.649 827 373.318 808.759 c 0,35,36
 298.846 792.107 298.846 792.107 221 758.37 c 1,0,-1
EndSplineSet
EndChar

StartChar: six
Encoding: 54 54 326
Width: 1263
Flags: W
LayerCount: 2
Fore
SplineSet
869.838 740.498 m 0,0,1
 790.521 837 790.521 837 655.326 837 c 128,-1,2
 520.131 837 520.131 837 440.814 740.498 c 0,3,4
 361 644.69 361 644.69 361 479 c 0,5,6
 361 314.324 361 314.324 440.798 218.022 c 0,7,8
 520.116 121 520.116 121 655.326 121 c 128,-1,9
 790.536 121 790.536 121 869.854 218.022 c 0,10,11
 951 314.323 951 314.323 951 479 c 0,12,13
 951 644.69 951 644.69 869.838 740.498 c 0,0,1
883.778 1495.18 m 0,14,15
 957.177 1480.94 957.177 1480.94 1037 1452.93 c 1,16,-1
 1037 1291.65 l 1,17,18
 966.684 1323.35 966.684 1323.35 895.881 1340.71 c 0,19,20
 819.957 1360 819.957 1360 745.707 1360 c 0,21,22
 548.714 1360 548.714 1360 444.393 1221.16 c 0,23,24
 339.189 1083.68 339.189 1083.68 324.015 807.549 c 2,25,-1
 322.037 771.543 l 1,26,-1
 342.276 801.388 l 2,27,28
 399.437 886.305 399.437 886.305 482.863 931.637 c 128,-1,29
 566.345 977 566.345 977 666.864 977 c 0,30,31
 879.097 977 879.097 977 1006.27 843.59 c 0,32,33
 1134 709.984 1134 709.984 1134 479 c 0,34,35
 1134 253.08 1134 253.08 1000.85 116.993 c 0,36,37
 868.582 -19 868.582 -19 655.326 -19 c 0,38,39
 411.344 -19 411.344 -19 278.23 175.181 c 0,40,41
 143 371.116 143 371.116 143 745 c 0,42,43
 143 1095.49 143 1095.49 308.816 1303.26 c 0,44,45
 470.531 1510 470.531 1510 738.015 1510 c 0,46,47
 810.186 1510 810.186 1510 883.778 1495.18 c 0,14,15
EndSplineSet
EndChar

StartChar: seven
Encoding: 55 55 327
Width: 1263
Flags: W
LayerCount: 2
Fore
SplineSet
168 1333 m 1,0,-1
 168 1483 l 1,1,-1
 1088 1483 l 1,2,-1
 1088 1408.86 l 1,3,-1
 562.207 10 l 1,4,-1
 379.572 10 l 1,5,-1
 869.572 1333 l 1,6,-1
 168 1333 l 1,0,-1
EndSplineSet
EndChar

StartChar: eight
Encoding: 56 56 328
Width: 1263
Flags: W
LayerCount: 2
Fore
SplineSet
856.179 639.311 m 0,0,1
 774.126 719 774.126 719 631 719 c 0,2,3
 488.832 719 488.832 719 406.782 639.311 c 0,4,5
 322 559.346 322 559.346 322 420 c 128,-1,6
 322 280.654 322 280.654 406.782 200.689 c 0,7,8
 488.832 121 488.832 121 631 121 c 128,-1,9
 773.172 121 773.172 121 855.7 201.191 c 0,10,11
 941 281.658 941 281.658 941 420 c 0,12,13
 941 559.349 941 559.349 856.179 639.311 c 0,0,1
478.14 794.73 m 1,14,-1
 439.181 804.71 l 2,15,16
 314.639 835.91 314.639 835.91 244.253 922.315 c 128,-1,17
 174 1008.56 174 1008.56 174 1133 c 0,18,19
 174 1307.25 174 1307.25 297.82 1408.25 c 0,20,21
 421.085 1510 421.085 1510 631 1510 c 0,22,23
 841.861 1510 841.861 1510 964.664 1408.26 c 0,24,25
 1088 1307.27 1088 1307.27 1088 1133 c 0,26,27
 1088 1008.56 1088 1008.56 1017.75 922.315 c 128,-1,28
 947.356 835.905 947.356 835.905 823.764 804.706 c 2,29,-1
 784.975 794.693 l 1,30,-1
 823.899 785.261 l 2,31,32
 964.424 752.031 964.424 752.031 1043.78 655.645 c 128,-1,33
 1123 559.422 1123 559.422 1123 420 c 0,34,35
 1123 207.53 1123 207.53 993.913 94.5244 c 0,36,37
 864.752 -19 864.752 -19 631 -19 c 128,-1,38
 397.253 -19 397.253 -19 268.087 94.5244 c 0,39,40
 139 207.535 139 207.535 139 420 c 0,41,42
 139 559.396 139 559.396 218.701 655.621 c 128,-1,43
 298.551 752.025 298.551 752.025 439.062 785.261 c 2,44,-1
 478.14 794.73 l 1,14,-1
429.027 1302.45 m 0,45,46
 355 1234.46 355 1234.46 355 1114 c 128,-1,47
 355 993.535 355 993.535 429.027 925.555 c 0,48,49
 501.436 858 501.436 858 631 858 c 0,50,51
 759.569 858 759.569 858 832.925 925.509 c 0,52,53
 908 993.496 908 993.496 908 1114 c 128,-1,54
 908 1234.5 908 1234.5 832.925 1302.49 c 0,55,56
 759.569 1370 759.569 1370 631 1370 c 0,57,58
 501.429 1370 501.429 1370 429.027 1302.45 c 0,45,46
EndSplineSet
EndChar

StartChar: nine
Encoding: 57 57 329
Width: 1263
Flags: W
LayerCount: 2
Fore
SplineSet
378.729 -4.17969 m 0,0,1
 304.861 10.0566 304.861 10.0566 225 38.0674 c 1,2,-1
 225 199.354 l 1,3,4
 295.345 167.649 295.345 167.649 366.633 150.284 c 0,5,6
 443.061 131 443.061 131 516.32 131 c 0,7,8
 713.282 131 713.282 131 817.601 269.328 c 0,9,10
 922.806 406.297 922.806 406.297 937.985 683.453 c 2,11,-1
 939.965 719.626 l 1,12,-1
 919.709 689.592 l 2,13,14
 863.532 605.714 863.532 605.714 780.143 560.884 c 128,-1,15
 696.655 516 696.655 516 595.157 516 c 0,16,17
 383.886 516 383.886 516 256.703 648.437 c 0,18,19
 129 781.033 129 781.033 129 1012 c 0,20,21
 129 1237.93 129 1237.93 262.147 1374.01 c 0,22,23
 394.426 1510 394.426 1510 607.656 1510 c 0,24,25
 851.614 1510 851.614 1510 984.26 1315.83 c 0,26,27
 1119 1119.89 1119 1119.89 1119 745 c 0,28,29
 1119 395.484 1119 395.484 953.675 187.727 c 0,30,31
 792.414 -19 792.414 -19 524.973 -19 c 0,32,33
 452.82 -19 452.82 -19 378.729 -4.17969 c 0,0,1
393.16 750.502 m 0,34,35
 472.471 654 472.471 654 607.656 654 c 128,-1,36
 742.84 654 742.84 654 822.151 750.502 c 0,37,38
 902 846.31 902 846.31 902 1012 c 0,39,40
 902 1176.68 902 1176.68 822.167 1272.98 c 0,41,42
 742.855 1370 742.855 1370 607.656 1370 c 128,-1,43
 472.456 1370 472.456 1370 393.144 1272.98 c 0,44,45
 312 1176.68 312 1176.68 312 1012 c 0,46,47
 312 846.31 312 846.31 393.16 750.502 c 0,34,35
EndSplineSet
EndChar

